<svg xmlns="http://www.w3.org/2000/svg" xmlns:xlink="http://www.w3.org/1999/xlink" version="1.1" data-diagram-type="SEQUENCE" style="width:2277px;height:588px;" width="2277px" height="588px" viewBox="0 0 2277 588" zoomAndPan="magnify" preserveAspectRatio="none" contentStyleType="text/css"><?plantuml 1.2026.7beta6?><defs/><g font-family="sans-serif" lengthAdjust="spacing"><rect x="8" y="8" width="2256.015" height="16.641" fill="#FFC" style="stroke:#FD8;stroke-width:3;" rx="2.5" ry="2.5"/><text x="15" y="18.641" fill="#000" font-size="10" textLength="295.005" font-family="monospace">Please use CSS style instead of skinparam padding</text><g><title>Application</title><rect x="101.311" y="89.563" width="8" height="235.688" fill="#000" fill-opacity="0"/><line x1="104.811" y1="89.563" x2="104.811" y2="325.25" style="stroke:#EEE;stroke-width:0.5;stroke-dasharray:5,5;"/></g><line x1="104.811" y1="325.25" x2="104.811" y2="396.172" style="stroke:#EEE;stroke-width:0.5;stroke-dasharray:1,4;"/><g><title>Application</title><rect x="101.311" y="396.172" width="8" height="123.844" fill="#000" fill-opacity="0"/><line x1="104.811" y1="396.172" x2="104.811" y2="520.016" style="stroke:#EEE;stroke-width:0.5;stroke-dasharray:5,5;"/></g><g><title>ObservableStorkInfrastructure</title><rect x="714.374" y="89.563" width="8" height="235.688" fill="#000" fill-opacity="0"/><line x1="717.874" y1="89.563" x2="717.874" y2="325.25" style="stroke:#EEE;stroke-width:0.5;stroke-dasharray:5,5;"/></g><line x1="717.874" y1="325.25" x2="717.874" y2="396.172" style="stroke:#EEE;stroke-width:0.5;stroke-dasharray:1,4;"/><g><title>ObservableStorkInfrastructure</title><rect x="714.374" y="396.172" width="8" height="123.844" fill="#000" fill-opacity="0"/><line x1="717.874" y1="396.172" x2="717.874" y2="520.016" style="stroke:#EEE;stroke-width:0.5;stroke-dasharray:5,5;"/></g><g><title>ObservationCollector</title><rect x="1164.106" y="89.563" width="8" height="235.688" fill="#000" fill-opacity="0"/><line x1="1167.606" y1="89.563" x2="1167.606" y2="325.25" style="stroke:#EEE;stroke-width:0.5;stroke-dasharray:5,5;"/></g><line x1="1167.606" y1="325.25" x2="1167.606" y2="396.172" style="stroke:#EEE;stroke-width:0.5;stroke-dasharray:1,4;"/><g><title>ObservationCollector</title><rect x="1164.106" y="396.172" width="8" height="123.844" fill="#000" fill-opacity="0"/><line x1="1167.606" y1="396.172" x2="1167.606" y2="520.016" style="stroke:#EEE;stroke-width:0.5;stroke-dasharray:5,5;"/></g><g><title>Stork</title><rect x="1393.567" y="89.563" width="8" height="235.688" fill="#000" fill-opacity="0"/><line x1="1397.067" y1="89.563" x2="1397.067" y2="325.25" style="stroke:#EEE;stroke-width:0.5;stroke-dasharray:5,5;"/></g><line x1="1397.067" y1="325.25" x2="1397.067" y2="396.172" style="stroke:#EEE;stroke-width:0.5;stroke-dasharray:1,4;"/><g><title>Stork</title><rect x="1393.567" y="396.172" width="8" height="123.844" fill="#000" fill-opacity="0"/><line x1="1397.067" y1="396.172" x2="1397.067" y2="520.016" style="stroke:#EEE;stroke-width:0.5;stroke-dasharray:5,5;"/></g><g><title>Service</title><rect x="2196.078" y="89.563" width="8" height="235.688" fill="#000" fill-opacity="0"/><line x1="2199.578" y1="89.563" x2="2199.578" y2="325.25" style="stroke:#EEE;stroke-width:0.5;stroke-dasharray:5,5;"/></g><line x1="2199.578" y1="325.25" x2="2199.578" y2="396.172" style="stroke:#EEE;stroke-width:0.5;stroke-dasharray:1,4;"/><g><title>Service</title><rect x="2196.078" y="396.172" width="8" height="123.844" fill="#000" fill-opacity="0"/><line x1="2199.578" y1="396.172" x2="2199.578" y2="520.016" style="stroke:#EEE;stroke-width:0.5;stroke-dasharray:5,5;"/></g><rect x="10" y="31.641" width="189.622" height="56.922" fill="#1A618C" style="stroke:#EEE;stroke-width:3;" rx="2" ry="2"/><text x="21" y="70.487" fill="#EEE" font-size="30" textLength="167.622">Application</text><rect x="478.944" y="31.641" width="477.859" height="56.922" fill="#1A618C" style="stroke:#EEE;stroke-width:3;" rx="2" ry="2"/><text x="489.944" y="70.487" fill="#EEE" font-size="30" textLength="455.859">ObservableStorkInfrastructure</text><rect x="998.579" y="31.641" width="338.055" height="56.922" fill="#1A618C" style="stroke:#EEE;stroke-width:3;" rx="2" ry="2"/><text x="1009.579" y="70.487" fill="#EEE" font-size="30" textLength="316.055">ObservationCollector</text><rect x="1346.633" y="31.641" width="100.867" height="56.922" fill="#1A618C" style="stroke:#EEE;stroke-width:3;" rx="2" ry="2"/><text x="1357.633" y="70.487" fill="#EEE" font-size="30" textLength="78.867">Stork</text><rect x="2133.141" y="31.641" width="132.874" height="56.922" fill="#1A618C" style="stroke:#EEE;stroke-width:3;" rx="2" ry="2"/><text x="2144.141" y="70.487" fill="#EEE" font-size="30" textLength="110.874">Service</text><rect x="10" y="520.016" width="189.622" height="56.922" fill="#1A618C" style="stroke:#EEE;stroke-width:3;" rx="2" ry="2"/><text x="21" y="558.862" fill="#EEE" font-size="30" textLength="167.622">Application</text><rect x="478.944" y="520.016" width="477.859" height="56.922" fill="#1A618C" style="stroke:#EEE;stroke-width:3;" rx="2" ry="2"/><text x="489.944" y="558.862" fill="#EEE" font-size="30" textLength="455.859">ObservableStorkInfrastructure</text><rect x="998.579" y="520.016" width="338.055" height="56.922" fill="#1A618C" style="stroke:#EEE;stroke-width:3;" rx="2" ry="2"/><text x="1009.579" y="558.862" fill="#EEE" font-size="30" textLength="316.055">ObservationCollector</text><rect x="1346.633" y="520.016" width="100.867" height="56.922" fill="#1A618C" style="stroke:#EEE;stroke-width:3;" rx="2" ry="2"/><text x="1357.633" y="558.862" fill="#EEE" font-size="30" textLength="78.867">Stork</text><rect x="2133.141" y="520.016" width="132.874" height="56.922" fill="#1A618C" style="stroke:#EEE;stroke-width:3;" rx="2" ry="2"/><text x="2144.141" y="558.862" fill="#EEE" font-size="30" textLength="110.874">Service</text><polygon points="705.874,142.484,715.874,146.484,705.874,150.484,709.874,146.484" fill="#EEE" style="stroke:#EEE;stroke-width:1;stroke-linejoin:miter;stroke-miterlimit:10;"/><line x1="104.811" y1="146.484" x2="711.874" y2="146.484" style="stroke:#EEE;stroke-width:3;"/><text x="279.769" y="133.409" fill="#EEE" font-size="30" textLength="48.296" font-weight="700">(1)</text><text x="340.064" y="133.409" fill="#EEE" font-size="30" textLength="202.852" font-weight="700">instantiates</text><polygon points="1155.606,199.406,1165.606,203.406,1155.606,207.406,1159.606,203.406" fill="#EEE" style="stroke:#EEE;stroke-width:1;stroke-linejoin:miter;stroke-miterlimit:10;"/><line x1="717.874" y1="203.406" x2="1161.606" y2="203.406" style="stroke:#EEE;stroke-width:3;"/><text x="811.166" y="190.331" fill="#EEE" font-size="30" textLength="48.296" font-weight="700">(2)</text><text x="871.462" y="190.331" fill="#EEE" font-size="30" textLength="202.852" font-weight="700">instantiates</text><polygon points="728.874,256.328,718.874,260.328,728.874,264.328,724.874,260.328" fill="#EEE" style="stroke:#EEE;stroke-width:1;stroke-linejoin:miter;stroke-miterlimit:10;"/><line x1="722.874" y1="260.328" x2="1166.606" y2="260.328" style="stroke:#EEE;stroke-width:3;"/><text x="733.874" y="247.253" fill="#EEE" font-size="30" textLength="48.296" font-weight="700">(3)</text><text x="794.169" y="247.253" fill="#EEE" font-size="30" textLength="357.437" font-weight="700">ObservationCollector</text><polygon points="115.811,313.25,105.811,317.25,115.811,321.25,111.811,317.25" fill="#EEE" style="stroke:#EEE;stroke-width:1;stroke-linejoin:miter;stroke-miterlimit:10;"/><line x1="109.811" y1="317.25" x2="716.874" y2="317.25" style="stroke:#EEE;stroke-width:3;"/><text x="120.811" y="304.175" fill="#EEE" font-size="30" textLength="48.296" font-weight="700">(4)</text><text x="181.107" y="304.175" fill="#EEE" font-size="30" textLength="520.767" font-weight="700">ObservableStorkInfrastructure</text><text x="1147.426" y="371.097" fill="#EEE" font-size="30"> </text><polygon points="1385.067,441.094,1395.067,445.094,1385.067,449.094,1389.067,445.094" fill="#EEE" style="stroke:#EEE;stroke-width:1;stroke-linejoin:miter;stroke-miterlimit:10;"/><line x1="104.811" y1="445.094" x2="1391.067" y2="445.094" style="stroke:#EEE;stroke-width:3;"/><text x="422.212" y="432.019" fill="#EEE" font-size="30" textLength="48.296" font-weight="700">(5)</text><text x="482.508" y="432.019" fill="#EEE" font-size="30" textLength="597.158" font-weight="700">initialize(observableInfrastructure)</text><polygon points="2187.578,498.016,2197.578,502.016,2187.578,506.016,2191.578,502.016" fill="#EEE" style="stroke:#EEE;stroke-width:1;stroke-linejoin:miter;stroke-miterlimit:10;"/><line x1="1397.067" y1="502.016" x2="2193.578" y2="502.016" style="stroke:#EEE;stroke-width:3;"/><text x="1413.067" y="488.94" fill="#EEE" font-size="30" textLength="48.296" font-weight="700">(6)</text><text x="1473.363" y="488.94" fill="#EEE" font-size="30" textLength="710.215" font-weight="700">instantiates (..., ObservationCollector, ...)</text><?plantuml-src jLLRJzim57xFhp3qOI0nn6Kg34r8QIWC0GrAaAOz8ISvQQswTcSxhTYq_xwJX3LEcxHief7oOd_dkvmunpi9f4m0wTqyFxYtWsVFl_S3KZoTOxTxVEuvEnKax7l-uCeDlh_YEjtZxbdtt8OykjwTUzDV47NEwCdHvxI2-C5LFx1rIATVF0l8jJzugW5M8MuG-D_gcByGvmDX8kPP0iICW0n1WAASw34JKwheH9DKAX99CpeWd0r7Xb2Ha8IgCLOQIUGCr5mn0sJEpAZaO3CGH8CnJ0prSfIdhxVUtQ0VXkJKMQYGYCRZePAPI3p9KT0eAZHkWJ2E1OivrVfQ2XEodq1EZ-ozHveaA4W-MMj1oQWmL6qz7D54pdDqIha6c-OAKffnGtuvkKxffcgnOul_Nh66LRsb9BMZuhXAoVaAQK-g1DJRjGeMr6giQAOnBnm_WUH9E-iKdTCXj2LV7yoEO1zQbAWKX4p-XRxsSxnD8PQJgHHuQZP-YLQwHdTb_x89FwdtBA66HbJ3EyijdIoP9LiLa9n3R9WK-jrbAXKF0KhoBIhqSaggNhOeqHU6cMqAC650fJI6BMg4y2C34SCZLOR5R4g5AScUHYmU2y0vPizc_Gf7HtR5MdChr0q-BKmreeHK4ygNzrRYtBCKxl5MQILV0FvZ71UhhSp5RgEfOiVkeHiRgJOuA22jMlbksm_iD7oZ1nJ66UxYLIr83FbXScXcfCWc4Tw1kr-YoxsZ_LsidLOT9kvqobbCymbGM_SZ3Mf68muX-XZVYbHHRLGMcqn14p9dyCff8bKDK13KLx20nNZtMkhau-LwKNA1VuWsMC-e0Usi1rTiDMCj97NC9YSNpPat6hBINcnei7DuU4ZmNMbH0IvIC8p0yJBVamkcEic-KuBpghBXI-d97YeSD8OvoCNt_m00?></g></svg>