<svg xmlns="http://www.w3.org/2000/svg" xmlns:xlink="http://www.w3.org/1999/xlink" version="1.1" data-diagram-type="SEQUENCE" style="width:1884px;height:1741px;" width="1884px" height="1741px" viewBox="0 0 1884 1741" zoomAndPan="magnify" preserveAspectRatio="none" contentStyleType="text/css"><?plantuml 1.2026.7beta6?><defs/><g font-family="sans-serif" lengthAdjust="spacing"><rect x="8" y="8" width="1863.951" height="16.641" fill="#FFC" style="stroke:#FD8;stroke-width:3;" rx="2.5" ry="2.5"/><text x="15" y="18.641" fill="#000" font-size="10" textLength="295.005" font-family="monospace">Please use CSS style instead of skinparam padding</text><g><title>Service</title><rect x="72.937" y="89.563" width="8" height="248.688" fill="#000" fill-opacity="0"/><line x1="76.437" y1="89.563" x2="76.437" y2="338.25" style="stroke:#EEE;stroke-width:0.5;stroke-dasharray:5,5;"/></g><line x1="76.437" y1="338.25" x2="76.437" y2="409.172" style="stroke:#EEE;stroke-width:0.5;stroke-dasharray:1,4;"/><g><title>Service</title><rect x="72.937" y="409.172" width="8" height="231.609" fill="#000" fill-opacity="0"/><line x1="76.437" y1="409.172" x2="76.437" y2="640.781" style="stroke:#EEE;stroke-width:0.5;stroke-dasharray:5,5;"/></g><line x1="76.437" y1="640.781" x2="76.437" y2="711.703" style="stroke:#EEE;stroke-width:0.5;stroke-dasharray:1,4;"/><g><title>Service</title><rect x="72.937" y="711.703" width="8" height="231.609" fill="#000" fill-opacity="0"/><line x1="76.437" y1="711.703" x2="76.437" y2="943.313" style="stroke:#EEE;stroke-width:0.5;stroke-dasharray:5,5;"/></g><line x1="76.437" y1="943.313" x2="76.437" y2="1014.234" style="stroke:#EEE;stroke-width:0.5;stroke-dasharray:1,4;"/><g><title>Service</title><rect x="72.937" y="1014.234" width="8" height="323.453" fill="#000" fill-opacity="0"/><line x1="76.437" y1="1014.234" x2="76.437" y2="1337.688" style="stroke:#EEE;stroke-width:0.5;stroke-dasharray:5,5;"/></g><line x1="76.437" y1="1337.688" x2="76.437" y2="1408.609" style="stroke:#EEE;stroke-width:0.5;stroke-dasharray:1,4;"/><g><title>Service</title><rect x="72.937" y="1408.609" width="8" height="263.609" fill="#000" fill-opacity="0"/><line x1="76.437" y1="1408.609" x2="76.437" y2="1672.219" style="stroke:#EEE;stroke-width:0.5;stroke-dasharray:5,5;"/></g><g><title>ObservationCollector</title><rect x="840.746" y="89.563" width="8" height="248.688" fill="#000" fill-opacity="0"/><line x1="844.246" y1="89.563" x2="844.246" y2="338.25" style="stroke:#EEE;stroke-width:0.5;stroke-dasharray:5,5;"/></g><line x1="844.246" y1="338.25" x2="844.246" y2="409.172" style="stroke:#EEE;stroke-width:0.5;stroke-dasharray:1,4;"/><g><title>ObservationCollector</title><rect x="840.746" y="409.172" width="8" height="231.609" fill="#000" fill-opacity="0"/><line x1="844.246" y1="409.172" x2="844.246" y2="640.781" style="stroke:#EEE;stroke-width:0.5;stroke-dasharray:5,5;"/></g><line x1="844.246" y1="640.781" x2="844.246" y2="711.703" style="stroke:#EEE;stroke-width:0.5;stroke-dasharray:1,4;"/><g><title>ObservationCollector</title><rect x="840.746" y="711.703" width="8" height="231.609" fill="#000" fill-opacity="0"/><line x1="844.246" y1="711.703" x2="844.246" y2="943.313" style="stroke:#EEE;stroke-width:0.5;stroke-dasharray:5,5;"/></g><line x1="844.246" y1="943.313" x2="844.246" y2="1014.234" style="stroke:#EEE;stroke-width:0.5;stroke-dasharray:1,4;"/><g><title>ObservationCollector</title><rect x="840.746" y="1014.234" width="8" height="323.453" fill="#000" fill-opacity="0"/><line x1="844.246" y1="1014.234" x2="844.246" y2="1337.688" style="stroke:#EEE;stroke-width:0.5;stroke-dasharray:5,5;"/></g><line x1="844.246" y1="1337.688" x2="844.246" y2="1408.609" style="stroke:#EEE;stroke-width:0.5;stroke-dasharray:1,4;"/><g><title>ObservationCollector</title><rect x="840.746" y="1408.609" width="8" height="263.609" fill="#000" fill-opacity="0"/><line x1="844.246" y1="1408.609" x2="844.246" y2="1672.219" style="stroke:#EEE;stroke-width:0.5;stroke-dasharray:5,5;"/></g><g><title>StorkObservation</title><rect x="1161.547" y="89.563" width="8" height="248.688" fill="#000" fill-opacity="0"/><line x1="1165.047" y1="89.563" x2="1165.047" y2="338.25" style="stroke:#EEE;stroke-width:0.5;stroke-dasharray:5,5;"/></g><line x1="1165.047" y1="338.25" x2="1165.047" y2="409.172" style="stroke:#EEE;stroke-width:0.5;stroke-dasharray:1,4;"/><g><title>StorkObservation</title><rect x="1161.547" y="409.172" width="8" height="231.609" fill="#000" fill-opacity="0"/><line x1="1165.047" y1="409.172" x2="1165.047" y2="640.781" style="stroke:#EEE;stroke-width:0.5;stroke-dasharray:5,5;"/></g><line x1="1165.047" y1="640.781" x2="1165.047" y2="711.703" style="stroke:#EEE;stroke-width:0.5;stroke-dasharray:1,4;"/><g><title>StorkObservation</title><rect x="1161.547" y="711.703" width="8" height="231.609" fill="#000" fill-opacity="0"/><line x1="1165.047" y1="711.703" x2="1165.047" y2="943.313" style="stroke:#EEE;stroke-width:0.5;stroke-dasharray:5,5;"/></g><line x1="1165.047" y1="943.313" x2="1165.047" y2="1014.234" style="stroke:#EEE;stroke-width:0.5;stroke-dasharray:1,4;"/><g><title>StorkObservation</title><rect x="1161.547" y="1014.234" width="8" height="323.453" fill="#000" fill-opacity="0"/><line x1="1165.047" y1="1014.234" x2="1165.047" y2="1337.688" style="stroke:#EEE;stroke-width:0.5;stroke-dasharray:5,5;"/></g><line x1="1165.047" y1="1337.688" x2="1165.047" y2="1408.609" style="stroke:#EEE;stroke-width:0.5;stroke-dasharray:1,4;"/><g><title>StorkObservation</title><rect x="1161.547" y="1408.609" width="8" height="263.609" fill="#000" fill-opacity="0"/><line x1="1165.047" y1="1408.609" x2="1165.047" y2="1672.219" style="stroke:#EEE;stroke-width:0.5;stroke-dasharray:5,5;"/></g><g><title>StorkEventHandler</title><rect x="1717.983" y="89.563" width="8" height="248.688" fill="#000" fill-opacity="0"/><line x1="1721.483" y1="89.563" x2="1721.483" y2="338.25" style="stroke:#EEE;stroke-width:0.5;stroke-dasharray:5,5;"/></g><line x1="1721.483" y1="338.25" x2="1721.483" y2="409.172" style="stroke:#EEE;stroke-width:0.5;stroke-dasharray:1,4;"/><g><title>StorkEventHandler</title><rect x="1717.983" y="409.172" width="8" height="231.609" fill="#000" fill-opacity="0"/><line x1="1721.483" y1="409.172" x2="1721.483" y2="640.781" style="stroke:#EEE;stroke-width:0.5;stroke-dasharray:5,5;"/></g><line x1="1721.483" y1="640.781" x2="1721.483" y2="711.703" style="stroke:#EEE;stroke-width:0.5;stroke-dasharray:1,4;"/><g><title>StorkEventHandler</title><rect x="1717.983" y="711.703" width="8" height="231.609" fill="#000" fill-opacity="0"/><line x1="1721.483" y1="711.703" x2="1721.483" y2="943.313" style="stroke:#EEE;stroke-width:0.5;stroke-dasharray:5,5;"/></g><line x1="1721.483" y1="943.313" x2="1721.483" y2="1014.234" style="stroke:#EEE;stroke-width:0.5;stroke-dasharray:1,4;"/><g><title>StorkEventHandler</title><rect x="1717.983" y="1014.234" width="8" height="323.453" fill="#000" fill-opacity="0"/><line x1="1721.483" y1="1014.234" x2="1721.483" y2="1337.688" style="stroke:#EEE;stroke-width:0.5;stroke-dasharray:5,5;"/></g><line x1="1721.483" y1="1337.688" x2="1721.483" y2="1408.609" style="stroke:#EEE;stroke-width:0.5;stroke-dasharray:1,4;"/><g><title>StorkEventHandler</title><rect x="1717.983" y="1408.609" width="8" height="263.609" fill="#000" fill-opacity="0"/><line x1="1721.483" y1="1408.609" x2="1721.483" y2="1672.219" style="stroke:#EEE;stroke-width:0.5;stroke-dasharray:5,5;"/></g><rect x="10" y="31.641" width="132.874" height="56.922" fill="#1A618C" style="stroke:#EEE;stroke-width:3;" rx="2" ry="2"/><text x="21" y="70.487" fill="#EEE" font-size="30" textLength="110.874">Service</text><rect x="675.218" y="31.641" width="338.055" height="56.922" fill="#1A618C" style="stroke:#EEE;stroke-width:3;" rx="2" ry="2"/><text x="686.218" y="70.487" fill="#EEE" font-size="30" textLength="316.055">ObservationCollector</text><rect x="1023.273" y="31.641" width="283.548" height="56.922" fill="#1A618C" style="stroke:#EEE;stroke-width:3;" rx="2" ry="2"/><text x="1034.273" y="70.487" fill="#EEE" font-size="30" textLength="261.548">StorkObservation</text><rect x="1569.016" y="31.641" width="304.935" height="56.922" fill="#1A618C" style="stroke:#EEE;stroke-width:3;" rx="2" ry="2"/><text x="1580.016" y="70.487" fill="#EEE" font-size="30" textLength="282.935">StorkEventHandler</text><rect x="10" y="1672.219" width="132.874" height="56.922" fill="#1A618C" style="stroke:#EEE;stroke-width:3;" rx="2" ry="2"/><text x="21" y="1711.065" fill="#EEE" font-size="30" textLength="110.874">Service</text><rect x="675.218" y="1672.219" width="338.055" height="56.922" fill="#1A618C" style="stroke:#EEE;stroke-width:3;" rx="2" ry="2"/><text x="686.218" y="1711.065" fill="#EEE" font-size="30" textLength="316.055">ObservationCollector</text><rect x="1023.273" y="1672.219" width="283.548" height="56.922" fill="#1A618C" style="stroke:#EEE;stroke-width:3;" rx="2" ry="2"/><text x="1034.273" y="1711.065" fill="#EEE" font-size="30" textLength="261.548">StorkObservation</text><rect x="1569.016" y="1672.219" width="304.935" height="56.922" fill="#1A618C" style="stroke:#EEE;stroke-width:3;" rx="2" ry="2"/><text x="1580.016" y="1711.065" fill="#EEE" font-size="30" textLength="282.935">StorkEventHandler</text><polygon points="832.246,142.484,842.246,146.484,832.246,150.484,836.246,146.484" fill="#EEE" style="stroke:#EEE;stroke-width:1;stroke-linejoin:miter;stroke-miterlimit:10;"/><line x1="76.437" y1="146.484" x2="838.246" y2="146.484" style="stroke:#EEE;stroke-width:3;"/><text x="92.437" y="133.409" fill="#EEE" font-size="30" textLength="48.296" font-weight="700">(1)</text><text x="152.733" y="133.409" fill="#EEE" font-size="30" textLength="675.513" font-weight="700">create("serviceName", sd type, ss type)</text><polygon points="1153.047,199.406,1163.047,203.406,1153.047,207.406,1157.047,203.406" fill="#EEE" style="stroke:#EEE;stroke-width:1;stroke-linejoin:miter;stroke-miterlimit:10;"/><line x1="844.246" y1="203.406" x2="1159.047" y2="203.406" style="stroke:#EEE;stroke-width:3;"/><text x="873.073" y="190.331" fill="#EEE" font-size="30" textLength="48.296" font-weight="700">(2)</text><text x="933.368" y="190.331" fill="#EEE" font-size="30" textLength="202.852" font-weight="700">instantiates</text><line x1="1165.047" y1="260.328" x2="1207.047" y2="260.328" style="stroke:#EEE;stroke-width:3;"/><line x1="1207.047" y1="260.328" x2="1207.047" y2="273.328" style="stroke:#EEE;stroke-width:3;"/><line x1="1166.047" y1="273.328" x2="1207.047" y2="273.328" style="stroke:#EEE;stroke-width:3;"/><polygon points="1176.047,269.328,1166.047,273.328,1176.047,277.328,1172.047,273.328" fill="#EEE" style="stroke:#EEE;stroke-width:1;stroke-linejoin:miter;stroke-miterlimit:10;"/><text x="1176.047" y="247.253" fill="#EEE" font-size="30" textLength="48.296" font-weight="700">(3)</text><text x="1236.343" y="247.253" fill="#EEE" font-size="30" textLength="339.097" font-weight="700">Registers start time</text><polygon points="87.437,326.25,77.437,330.25,87.437,334.25,83.437,330.25" fill="#EEE" style="stroke:#EEE;stroke-width:1;stroke-linejoin:miter;stroke-miterlimit:10;"/><line x1="81.437" y1="330.25" x2="843.246" y2="330.25" style="stroke:#EEE;stroke-width:3;"/><text x="281.358" y="317.175" fill="#EEE" font-size="30" textLength="48.296" font-weight="700">(4)</text><text x="341.654" y="317.175" fill="#EEE" font-size="30" textLength="297.671" font-weight="700">StorkObservation</text><text x="894.192" y="384.097" fill="#EEE" font-size="30"> </text><polygon points="1153.047,454.094,1163.047,458.094,1153.047,462.094,1157.047,458.094" fill="#EEE" style="stroke:#EEE;stroke-width:1;stroke-linejoin:miter;stroke-miterlimit:10;"/><line x1="76.437" y1="458.094" x2="1159.047" y2="458.094" style="stroke:#EEE;stroke-width:3;"/><text x="152.884" y="445.019" fill="#EEE" font-size="30" textLength="48.296" font-weight="700">(5)</text><text x="213.18" y="445.019" fill="#EEE" font-size="30" textLength="875.42" font-weight="700">onServiceDiscoverySuccess(List&lt;ServiceInstance>)</text><line x1="1165.047" y1="619.781" x2="1207.047" y2="619.781" style="stroke:#EEE;stroke-width:3;"/><line x1="1207.047" y1="619.781" x2="1207.047" y2="632.781" style="stroke:#EEE;stroke-width:3;"/><line x1="1166.047" y1="632.781" x2="1207.047" y2="632.781" style="stroke:#EEE;stroke-width:3;"/><polygon points="1176.047,628.781,1166.047,632.781,1176.047,636.781,1172.047,632.781" fill="#EEE" style="stroke:#EEE;stroke-width:1;stroke-linejoin:miter;stroke-miterlimit:10;"/><text x="1176.047" y="554.323" fill="#EEE" font-size="30" textLength="48.296" font-weight="700">(6)</text><text x="1272.708" y="501.94" fill="#EEE" font-size="30" textLength="365.435" font-weight="700">Registers end service</text><text x="1325.259" y="536.862" fill="#EEE" font-size="30" textLength="260.332" font-weight="700">discovery time.</text><text x="1236.343" y="571.784" fill="#EEE" font-size="30" textLength="438.164" font-weight="700">Registers instances count</text><text x="1450.203" y="606.706" fill="#EEE" font-size="30" font-weight="700"> </text><text x="894.192" y="686.628" fill="#EEE" font-size="30"> </text><polygon points="1153.047,756.625,1163.047,760.625,1153.047,764.625,1157.047,760.625" fill="#EEE" style="stroke:#EEE;stroke-width:1;stroke-linejoin:miter;stroke-miterlimit:10;"/><line x1="76.437" y1="760.625" x2="1159.047" y2="760.625" style="stroke:#EEE;stroke-width:3;"/><text x="263.15" y="747.55" fill="#EEE" font-size="30" textLength="48.296" font-weight="700">(7)</text><text x="323.446" y="747.55" fill="#EEE" font-size="30" textLength="654.888" font-weight="700">onServiceDiscoveryFailure(Throwable)</text><line x1="1165.047" y1="922.313" x2="1207.047" y2="922.313" style="stroke:#EEE;stroke-width:3;"/><line x1="1207.047" y1="922.313" x2="1207.047" y2="935.313" style="stroke:#EEE;stroke-width:3;"/><line x1="1166.047" y1="935.313" x2="1207.047" y2="935.313" style="stroke:#EEE;stroke-width:3;"/><polygon points="1176.047,931.313,1166.047,935.313,1176.047,939.313,1172.047,935.313" fill="#EEE" style="stroke:#EEE;stroke-width:1;stroke-linejoin:miter;stroke-miterlimit:10;"/><text x="1176.047" y="856.854" fill="#EEE" font-size="30" textLength="48.296" font-weight="700">(8)</text><text x="1248.245" y="804.472" fill="#EEE" font-size="30" textLength="365.435" font-weight="700">Registers end service</text><text x="1300.796" y="839.394" fill="#EEE" font-size="30" textLength="260.332" font-weight="700">discovery time.</text><text x="1236.343" y="874.315" fill="#EEE" font-size="30" textLength="389.238" font-weight="700">Registers failure cause</text><text x="1425.74" y="909.237" fill="#EEE" font-size="30" font-weight="700"> </text><text x="894.192" y="989.159" fill="#EEE" font-size="30"> </text><polygon points="1153.047,1059.156,1163.047,1063.156,1153.047,1067.156,1157.047,1063.156" fill="#EEE" style="stroke:#EEE;stroke-width:1;stroke-linejoin:miter;stroke-miterlimit:10;"/><line x1="76.437" y1="1063.156" x2="1159.047" y2="1063.156" style="stroke:#EEE;stroke-width:3;"/><text x="259.664" y="1050.081" fill="#EEE" font-size="30" textLength="48.296" font-weight="700">(9)</text><text x="319.96" y="1050.081" fill="#EEE" font-size="30" textLength="661.86" font-weight="700">onServiceSelectionSuccess(instanceId)</text><line x1="1165.047" y1="1259.766" x2="1207.047" y2="1259.766" style="stroke:#EEE;stroke-width:3;"/><line x1="1207.047" y1="1259.766" x2="1207.047" y2="1272.766" style="stroke:#EEE;stroke-width:3;"/><line x1="1166.047" y1="1272.766" x2="1207.047" y2="1272.766" style="stroke:#EEE;stroke-width:3;"/><polygon points="1176.047,1268.766,1166.047,1272.766,1176.047,1276.766,1172.047,1272.766" fill="#EEE" style="stroke:#EEE;stroke-width:1;stroke-linejoin:miter;stroke-miterlimit:10;"/><text x="1176.047" y="1176.847" fill="#EEE" font-size="30" textLength="69.17" font-weight="700">(10)</text><text x="1295.435" y="1107.003" fill="#EEE" font-size="30" textLength="365.435" font-weight="700">Registers end service</text><text x="1352.512" y="1141.925" fill="#EEE" font-size="30" textLength="251.279" font-weight="700">selection time.</text><text x="1299.844" y="1176.847" fill="#EEE" font-size="30" textLength="356.616" font-weight="700">Registers instance id</text><text x="1257.217" y="1211.769" fill="#EEE" font-size="30" textLength="441.87" font-weight="700">Registers overall duration</text><text x="1472.93" y="1246.69" fill="#EEE" font-size="30" font-weight="700"> </text><polygon points="1709.483,1325.688,1719.483,1329.688,1709.483,1333.688,1713.483,1329.688" fill="#EEE" style="stroke:#EEE;stroke-width:1;stroke-linejoin:miter;stroke-miterlimit:10;"/><line x1="1165.047" y1="1329.688" x2="1715.483" y2="1329.688" style="stroke:#EEE;stroke-width:3;"/><text x="1278.828" y="1316.612" fill="#EEE" font-size="30" textLength="69.17" font-weight="700">(11)</text><text x="1359.998" y="1316.612" fill="#EEE" font-size="30" textLength="247.705" font-weight="700">complete(this)</text><text x="894.192" y="1383.534" fill="#EEE" font-size="30"> </text><polygon points="1153.047,1453.531,1163.047,1457.531,1153.047,1461.531,1157.047,1457.531" fill="#EEE" style="stroke:#EEE;stroke-width:1;stroke-linejoin:miter;stroke-miterlimit:10;"/><line x1="76.437" y1="1457.531" x2="1159.047" y2="1457.531" style="stroke:#EEE;stroke-width:3;"/><text x="250.223" y="1444.456" fill="#EEE" font-size="30" textLength="69.17" font-weight="700">(12)</text><text x="331.393" y="1444.456" fill="#EEE" font-size="30" textLength="659.868" font-weight="700">onServiceSelectionFailure(Throwable))</text><line x1="1165.047" y1="1584.297" x2="1207.047" y2="1584.297" style="stroke:#EEE;stroke-width:3;"/><line x1="1207.047" y1="1584.297" x2="1207.047" y2="1597.297" style="stroke:#EEE;stroke-width:3;"/><line x1="1166.047" y1="1597.297" x2="1207.047" y2="1597.297" style="stroke:#EEE;stroke-width:3;"/><polygon points="1176.047,1593.297,1166.047,1597.297,1176.047,1601.297,1172.047,1597.297" fill="#EEE" style="stroke:#EEE;stroke-width:1;stroke-linejoin:miter;stroke-miterlimit:10;"/><text x="1176.047" y="1536.3" fill="#EEE" font-size="30" textLength="69.17" font-weight="700">(13)</text><text x="1257.217" y="1501.378" fill="#EEE" font-size="30" textLength="453.267" font-weight="700">Registers overall duration.</text><text x="1289.231" y="1536.3" fill="#EEE" font-size="30" textLength="389.238" font-weight="700">Registers failure cause</text><text x="1478.628" y="1571.222" fill="#EEE" font-size="30" font-weight="700"> </text><polygon points="1709.483,1650.219,1719.483,1654.219,1709.483,1658.219,1713.483,1654.219" fill="#EEE" style="stroke:#EEE;stroke-width:1;stroke-linejoin:miter;stroke-miterlimit:10;"/><line x1="1165.047" y1="1654.219" x2="1715.483" y2="1654.219" style="stroke:#EEE;stroke-width:3;"/><text x="1278.828" y="1641.144" fill="#EEE" font-size="30" textLength="69.17" font-weight="700">(14)</text><text x="1359.998" y="1641.144" fill="#EEE" font-size="30" textLength="247.705" font-weight="700">complete(this)</text><?plantuml-src jLPhInj15Fs-l-9MFrJ1Ye-YLaHOOtoW9f88fI38PEOc6JAPIMTc5LlwttkpsPZPxAxQr2m4mjnppxddplEJmAxK22Vd3pVnPUEXrhnkjY3zLhVZlUs3MlHf1cdNQyt6QTpwaU5MzxRtzlSEGiXjNBkAp-ilHAlxR6VhMtS6QRPEwwrG1rRhwVS2EMisxdA08YHkjPhVyvWf9FeCKdEL20JVH-YXHiiKk87K8sRPq47NMEWOtzy09Njz3qmB4CmEADCRC8zedwpq24_IzoSSyX4rEFHUwfwRjt9tSLcxQjJRRTYDNbIWm_YWPqsYHSqe4lIMQKSXr3uAO5mnvywCzctv2s5tAupTCY584Bu6Owq9eoLJkV5sdmdpD4PtcN8OqfnYboNAm-zeh3EfPjRYA1J_KoYDiaxcdEIMIXHRQvuAf2V62hJlrqfPIAiqevp6FokQ0gD4DUk8AcSzh7B-kh7GGhXeIMAce8tu5_hSvdYV0ZV3aT6qQjwSYKgwqkec_Kk6QYVVCy4ywp277omtjx9C8fOgO9H2xgNHxiDbPYer0bYZbgXmCgPazdc94dNjfL-cWDGURPTnNA966tycg3dUCkibboEc_OJihY_vG2ETO-7Px38uLHHcl5fSWRgapW0pEwAqiKEcvcC5EzUoYzTqgrIIlm0ME8xJqKhcD5fQL1e9UnXpR-mR5QIGIgrnj6e3HoLpT4F2T8R7T5Lhu3XUJ15BlD79i4DtuCfHvtXjQts5SaUp3jE2i8-IOswisN4qoiQdGcroFXYRJwA1GO0g1klq3l0Nz5vGL4MKYS2Nur9kE0HkaNbSMt4JP8CDSMK3d03_F4Bwuz8_wr5fEj7ELqIKKZjFzKZYTL4XNf9p22tiIKTzSq2freENGwoMp4mT5jiHRMvk0lropajAD3gBdqh7ny-fvtR2EStZsZNLSPG5BrCZ78_NtsK3GXz8BxQif_TQJ5LIOvltUeQJcOQZ6o7H_bulRk6CIPLONBlhqvPW7OLBBBixqGBE4eSB5Dt6xFQRzdtQXqlnlrMxANLriq6AS7ZiaIa58h4fD_cfB27SNuVfqqSXxH_VbsvzyIuKfsw1BipRU7N25ZBu5m00?></g></svg>