<svg xmlns="http://www.w3.org/2000/svg" xmlns:xlink="http://www.w3.org/1999/xlink" version="1.1" data-diagram-type="SEQUENCE" style="width:2277px;height:588px;" width="2277px" height="588px" viewBox="0 0 2277 588" zoomAndPan="magnify" preserveAspectRatio="none" contentStyleType="text/css"><?plantuml 1.2026.7beta6?><defs/><g font-family="sans-serif" lengthAdjust="spacing"><rect x="8" y="8" width="2256.015" height="16.641" fill="#FFC" style="stroke:#FD8;stroke-width:3;" rx="2.5" ry="2.5"/><text x="15" y="18.641" fill="#000" font-size="10" textLength="295.005" font-family="monospace">Please use CSS style instead of skinparam padding</text><g><title>Application</title><rect x="101.311" y="89.563" width="8" height="235.688" fill="#000" fill-opacity="0"/><line x1="104.811" y1="89.563" x2="104.811" y2="325.25" style="stroke:#444;stroke-width:0.5;stroke-dasharray:5,5;"/></g><line x1="104.811" y1="325.25" x2="104.811" y2="396.172" style="stroke:#444;stroke-width:0.5;stroke-dasharray:1,4;"/><g><title>Application</title><rect x="101.311" y="396.172" width="8" height="123.844" fill="#000" fill-opacity="0"/><line x1="104.811" y1="396.172" x2="104.811" y2="520.016" style="stroke:#444;stroke-width:0.5;stroke-dasharray:5,5;"/></g><g><title>ObservableStorkInfrastructure</title><rect x="714.374" y="89.563" width="8" height="235.688" fill="#000" fill-opacity="0"/><line x1="717.874" y1="89.563" x2="717.874" y2="325.25" style="stroke:#444;stroke-width:0.5;stroke-dasharray:5,5;"/></g><line x1="717.874" y1="325.25" x2="717.874" y2="396.172" style="stroke:#444;stroke-width:0.5;stroke-dasharray:1,4;"/><g><title>ObservableStorkInfrastructure</title><rect x="714.374" y="396.172" width="8" height="123.844" fill="#000" fill-opacity="0"/><line x1="717.874" y1="396.172" x2="717.874" y2="520.016" style="stroke:#444;stroke-width:0.5;stroke-dasharray:5,5;"/></g><g><title>ObservationCollector</title><rect x="1164.106" y="89.563" width="8" height="235.688" fill="#000" fill-opacity="0"/><line x1="1167.606" y1="89.563" x2="1167.606" y2="325.25" style="stroke:#444;stroke-width:0.5;stroke-dasharray:5,5;"/></g><line x1="1167.606" y1="325.25" x2="1167.606" y2="396.172" style="stroke:#444;stroke-width:0.5;stroke-dasharray:1,4;"/><g><title>ObservationCollector</title><rect x="1164.106" y="396.172" width="8" height="123.844" fill="#000" fill-opacity="0"/><line x1="1167.606" y1="396.172" x2="1167.606" y2="520.016" style="stroke:#444;stroke-width:0.5;stroke-dasharray:5,5;"/></g><g><title>Stork</title><rect x="1393.567" y="89.563" width="8" height="235.688" fill="#000" fill-opacity="0"/><line x1="1397.067" y1="89.563" x2="1397.067" y2="325.25" style="stroke:#444;stroke-width:0.5;stroke-dasharray:5,5;"/></g><line x1="1397.067" y1="325.25" x2="1397.067" y2="396.172" style="stroke:#444;stroke-width:0.5;stroke-dasharray:1,4;"/><g><title>Stork</title><rect x="1393.567" y="396.172" width="8" height="123.844" fill="#000" fill-opacity="0"/><line x1="1397.067" y1="396.172" x2="1397.067" y2="520.016" style="stroke:#444;stroke-width:0.5;stroke-dasharray:5,5;"/></g><g><title>Service</title><rect x="2196.078" y="89.563" width="8" height="235.688" fill="#000" fill-opacity="0"/><line x1="2199.578" y1="89.563" x2="2199.578" y2="325.25" style="stroke:#444;stroke-width:0.5;stroke-dasharray:5,5;"/></g><line x1="2199.578" y1="325.25" x2="2199.578" y2="396.172" style="stroke:#444;stroke-width:0.5;stroke-dasharray:1,4;"/><g><title>Service</title><rect x="2196.078" y="396.172" width="8" height="123.844" fill="#000" fill-opacity="0"/><line x1="2199.578" y1="396.172" x2="2199.578" y2="520.016" style="stroke:#444;stroke-width:0.5;stroke-dasharray:5,5;"/></g><rect x="10" y="31.641" width="189.622" height="56.922" fill="#F0F8FF" style="stroke:#444;stroke-width:3;" rx="2" ry="2"/><text x="21" y="70.487" fill="#444" font-size="30" textLength="167.622">Application</text><rect x="478.944" y="31.641" width="477.859" height="56.922" fill="#F0F8FF" style="stroke:#444;stroke-width:3;" rx="2" ry="2"/><text x="489.944" y="70.487" fill="#444" font-size="30" textLength="455.859">ObservableStorkInfrastructure</text><rect x="998.579" y="31.641" width="338.055" height="56.922" fill="#F0F8FF" style="stroke:#444;stroke-width:3;" rx="2" ry="2"/><text x="1009.579" y="70.487" fill="#444" font-size="30" textLength="316.055">ObservationCollector</text><rect x="1346.633" y="31.641" width="100.867" height="56.922" fill="#F0F8FF" style="stroke:#444;stroke-width:3;" rx="2" ry="2"/><text x="1357.633" y="70.487" fill="#444" font-size="30" textLength="78.867">Stork</text><rect x="2133.141" y="31.641" width="132.874" height="56.922" fill="#F0F8FF" style="stroke:#444;stroke-width:3;" rx="2" ry="2"/><text x="2144.141" y="70.487" fill="#444" font-size="30" textLength="110.874">Service</text><rect x="10" y="520.016" width="189.622" height="56.922" fill="#F0F8FF" style="stroke:#444;stroke-width:3;" rx="2" ry="2"/><text x="21" y="558.862" fill="#444" font-size="30" textLength="167.622">Application</text><rect x="478.944" y="520.016" width="477.859" height="56.922" fill="#F0F8FF" style="stroke:#444;stroke-width:3;" rx="2" ry="2"/><text x="489.944" y="558.862" fill="#444" font-size="30" textLength="455.859">ObservableStorkInfrastructure</text><rect x="998.579" y="520.016" width="338.055" height="56.922" fill="#F0F8FF" style="stroke:#444;stroke-width:3;" rx="2" ry="2"/><text x="1009.579" y="558.862" fill="#444" font-size="30" textLength="316.055">ObservationCollector</text><rect x="1346.633" y="520.016" width="100.867" height="56.922" fill="#F0F8FF" style="stroke:#444;stroke-width:3;" rx="2" ry="2"/><text x="1357.633" y="558.862" fill="#444" font-size="30" textLength="78.867">Stork</text><rect x="2133.141" y="520.016" width="132.874" height="56.922" fill="#F0F8FF" style="stroke:#444;stroke-width:3;" rx="2" ry="2"/><text x="2144.141" y="558.862" fill="#444" font-size="30" textLength="110.874">Service</text><polygon points="705.874,142.484,715.874,146.484,705.874,150.484,709.874,146.484" fill="#444" style="stroke:#444;stroke-width:1;stroke-linejoin:miter;stroke-miterlimit:10;"/><line x1="104.811" y1="146.484" x2="711.874" y2="146.484" style="stroke:#444;stroke-width:3;"/><text x="279.769" y="133.409" fill="#444" font-size="30" textLength="48.296" font-weight="700">(1)</text><text x="340.064" y="133.409" fill="#444" font-size="30" textLength="202.852" font-weight="700">instantiates</text><polygon points="1155.606,199.406,1165.606,203.406,1155.606,207.406,1159.606,203.406" fill="#444" style="stroke:#444;stroke-width:1;stroke-linejoin:miter;stroke-miterlimit:10;"/><line x1="717.874" y1="203.406" x2="1161.606" y2="203.406" style="stroke:#444;stroke-width:3;"/><text x="811.166" y="190.331" fill="#444" font-size="30" textLength="48.296" font-weight="700">(2)</text><text x="871.462" y="190.331" fill="#444" font-size="30" textLength="202.852" font-weight="700">instantiates</text><polygon points="728.874,256.328,718.874,260.328,728.874,264.328,724.874,260.328" fill="#444" style="stroke:#444;stroke-width:1;stroke-linejoin:miter;stroke-miterlimit:10;"/><line x1="722.874" y1="260.328" x2="1166.606" y2="260.328" style="stroke:#444;stroke-width:3;"/><text x="733.874" y="247.253" fill="#444" font-size="30" textLength="48.296" font-weight="700">(3)</text><text x="794.169" y="247.253" fill="#444" font-size="30" textLength="357.437" font-weight="700">ObservationCollector</text><polygon points="115.811,313.25,105.811,317.25,115.811,321.25,111.811,317.25" fill="#444" style="stroke:#444;stroke-width:1;stroke-linejoin:miter;stroke-miterlimit:10;"/><line x1="109.811" y1="317.25" x2="716.874" y2="317.25" style="stroke:#444;stroke-width:3;"/><text x="120.811" y="304.175" fill="#444" font-size="30" textLength="48.296" font-weight="700">(4)</text><text x="181.107" y="304.175" fill="#444" font-size="30" textLength="520.767" font-weight="700">ObservableStorkInfrastructure</text><text x="1147.426" y="371.097" fill="#444" font-size="30"> </text><polygon points="1385.067,441.094,1395.067,445.094,1385.067,449.094,1389.067,445.094" fill="#444" style="stroke:#444;stroke-width:1;stroke-linejoin:miter;stroke-miterlimit:10;"/><line x1="104.811" y1="445.094" x2="1391.067" y2="445.094" style="stroke:#444;stroke-width:3;"/><text x="422.212" y="432.019" fill="#444" font-size="30" textLength="48.296" font-weight="700">(5)</text><text x="482.508" y="432.019" fill="#444" font-size="30" textLength="597.158" font-weight="700">initialize(observableInfrastructure)</text><polygon points="2187.578,498.016,2197.578,502.016,2187.578,506.016,2191.578,502.016" fill="#444" style="stroke:#444;stroke-width:1;stroke-linejoin:miter;stroke-miterlimit:10;"/><line x1="1397.067" y1="502.016" x2="2193.578" y2="502.016" style="stroke:#444;stroke-width:3;"/><text x="1413.067" y="488.94" fill="#444" font-size="30" textLength="48.296" font-weight="700">(6)</text><text x="1473.363" y="488.94" fill="#444" font-size="30" textLength="710.215" font-weight="700">instantiates (..., ObservationCollector, ...)</text><?plantuml-src jLPTJzim57tthp3mC90OOeoNeGafIGj3G8CIf6bFo4bkMgkktTaE5PlsttUJeCPfavPDD59Ux7FFnurpaxqCSYw1-jTFzzxDw2a8xyA8LfSdU0g-A83iDQ1u68IZWHVzU4KU-ET-u0zTo8CNt7hNmoNL0K1ozkLJ0mcZmJ1obUZ1UNKj8LVXwB45M8TuKHH-RsC6J4-lDRmGGZvGBbDHP43j1EWO96Wcg9boEMUQpGpDbQQ9ifDZAlXuOYcJ6Ssm7YkjekePz49p2tJ1xQJcuCyWgG5hkHoRrJ2Ftsw2sz4mZkbdibIX2KkdOwqAcGLAeA3LJ1hS0cc90qi5C-PAIHlpNq0_dxfx3opBK92UEsjHpQWnL6izdh1CBKfqpeG1bsO0EIk4fRz9gLExQPfCNF4_QzQmobz9qZeknDDQBTP8VQKpq6_NgbXGgxEYcyQ-27m4IcJzh7DqpiRGbtnpC3U2UsnHeb6GAliN-jRhyJQ5LCtcIkAfsVeaUkawtTNzAsRYhDspZ5cMC0FlBBToibIHxLH02G6fvKgQTvTfL084Q2LsgE2Nb4o_x51YA2stknJWqeBEMGexr8ZXPm4oXGUcBK_vd4bRaprEU3gLW7FCdStc5OwEt8gDvjQeEtmwc6P4IQLdJApkhSMvupdSuLUbbtm9-8znNAtsCbUxdQQg7RU7NcgLtkAWWlHgbRjzBp3fU4RtA8mp77z8nfAcK1ucmWghP35By1ku_pMvF3mzsiVQUTDXwitd-0V3oWdGMWyJ0_gP9G9Yz36zaRbcnkeYjOM6BcJ94DJJHEaMe29ehs01_ZOHugZJZvURHUa5lY76OZrd5WpP36xOMiPwIDgORKukkZDlDUIalTZIO79oSaBnNcjH1QvIS8mWy6D-g9PCRP8ZKeFBghhXA-df8IeSTuOvBiMF_W80?></g></svg>