<svg xmlns="http://www.w3.org/2000/svg" xmlns:xlink="http://www.w3.org/1999/xlink" version="1.1" data-diagram-type="SEQUENCE" style="width:2169px;height:944px;" width="2169px" height="944px" viewBox="0 0 2169 944" zoomAndPan="magnify" preserveAspectRatio="none" contentStyleType="text/css"><?plantuml 1.2026.7beta6?><defs/><g font-family="sans-serif" lengthAdjust="spacing"><rect x="8" y="8" width="2148.84" height="16.641" fill="#FFC" style="stroke:#FD8;stroke-width:3;" rx="2.5" ry="2.5"/><text x="15" y="18.641" fill="#000" font-size="10" textLength="295.005" font-family="monospace">Please use CSS style instead of skinparam padding</text><g><title>Application</title><rect x="101.311" y="89.563" width="8" height="178.766" fill="#000" fill-opacity="0"/><line x1="104.811" y1="89.563" x2="104.811" y2="268.328" style="stroke:#444;stroke-width:0.5;stroke-dasharray:5,5;"/></g><line x1="104.811" y1="268.328" x2="104.811" y2="339.25" style="stroke:#444;stroke-width:0.5;stroke-dasharray:1,4;"/><g><title>Application</title><rect x="101.311" y="339.25" width="8" height="113.844" fill="#000" fill-opacity="0"/><line x1="104.811" y1="339.25" x2="104.811" y2="453.094" style="stroke:#444;stroke-width:0.5;stroke-dasharray:5,5;"/></g><line x1="104.811" y1="453.094" x2="104.811" y2="524.016" style="stroke:#444;stroke-width:0.5;stroke-dasharray:1,4;"/><g><title>Application</title><rect x="101.311" y="524.016" width="8" height="351.531" fill="#000" fill-opacity="0"/><line x1="104.811" y1="524.016" x2="104.811" y2="875.547" style="stroke:#444;stroke-width:0.5;stroke-dasharray:5,5;"/></g><g><title>Stork</title><rect x="526.375" y="89.563" width="8" height="178.766" fill="#000" fill-opacity="0"/><line x1="529.875" y1="89.563" x2="529.875" y2="268.328" style="stroke:#444;stroke-width:0.5;stroke-dasharray:5,5;"/></g><line x1="529.875" y1="268.328" x2="529.875" y2="339.25" style="stroke:#444;stroke-width:0.5;stroke-dasharray:1,4;"/><g><title>Stork</title><rect x="526.375" y="339.25" width="8" height="113.844" fill="#000" fill-opacity="0"/><line x1="529.875" y1="339.25" x2="529.875" y2="453.094" style="stroke:#444;stroke-width:0.5;stroke-dasharray:5,5;"/></g><line x1="529.875" y1="453.094" x2="529.875" y2="524.016" style="stroke:#444;stroke-width:0.5;stroke-dasharray:1,4;"/><g><title>Stork</title><rect x="526.375" y="524.016" width="8" height="351.531" fill="#000" fill-opacity="0"/><line x1="529.875" y1="524.016" x2="529.875" y2="875.547" style="stroke:#444;stroke-width:0.5;stroke-dasharray:5,5;"/></g><g><title>ConfigProvider</title><rect x="986.494" y="89.563" width="8" height="178.766" fill="#000" fill-opacity="0"/><line x1="989.994" y1="89.563" x2="989.994" y2="268.328" style="stroke:#444;stroke-width:0.5;stroke-dasharray:5,5;"/></g><line x1="989.994" y1="268.328" x2="989.994" y2="339.25" style="stroke:#444;stroke-width:0.5;stroke-dasharray:1,4;"/><g><title>ConfigProvider</title><rect x="986.494" y="339.25" width="8" height="113.844" fill="#000" fill-opacity="0"/><line x1="989.994" y1="339.25" x2="989.994" y2="453.094" style="stroke:#444;stroke-width:0.5;stroke-dasharray:5,5;"/></g><line x1="989.994" y1="453.094" x2="989.994" y2="524.016" style="stroke:#444;stroke-width:0.5;stroke-dasharray:1,4;"/><g><title>ConfigProvider</title><rect x="986.494" y="524.016" width="8" height="351.531" fill="#000" fill-opacity="0"/><line x1="989.994" y1="524.016" x2="989.994" y2="875.547" style="stroke:#444;stroke-width:0.5;stroke-dasharray:5,5;"/></g><g><title>Service</title><rect x="1184.409" y="89.563" width="8" height="178.766" fill="#000" fill-opacity="0"/><line x1="1187.909" y1="89.563" x2="1187.909" y2="268.328" style="stroke:#444;stroke-width:0.5;stroke-dasharray:5,5;"/></g><line x1="1187.909" y1="268.328" x2="1187.909" y2="339.25" style="stroke:#444;stroke-width:0.5;stroke-dasharray:1,4;"/><g><title>Service</title><rect x="1184.409" y="339.25" width="8" height="113.844" fill="#000" fill-opacity="0"/><line x1="1187.909" y1="339.25" x2="1187.909" y2="453.094" style="stroke:#444;stroke-width:0.5;stroke-dasharray:5,5;"/></g><line x1="1187.909" y1="453.094" x2="1187.909" y2="524.016" style="stroke:#444;stroke-width:0.5;stroke-dasharray:1,4;"/><g><title>Service</title><rect x="1184.409" y="524.016" width="8" height="351.531" fill="#000" fill-opacity="0"/><line x1="1187.909" y1="524.016" x2="1187.909" y2="875.547" style="stroke:#444;stroke-width:0.5;stroke-dasharray:5,5;"/></g><g><title>Service Discovery</title><rect x="1764.015" y="89.563" width="8" height="178.766" fill="#000" fill-opacity="0"/><line x1="1767.515" y1="89.563" x2="1767.515" y2="268.328" style="stroke:#444;stroke-width:0.5;stroke-dasharray:5,5;"/></g><line x1="1767.515" y1="268.328" x2="1767.515" y2="339.25" style="stroke:#444;stroke-width:0.5;stroke-dasharray:1,4;"/><g><title>Service Discovery</title><rect x="1764.015" y="339.25" width="8" height="113.844" fill="#000" fill-opacity="0"/><line x1="1767.515" y1="339.25" x2="1767.515" y2="453.094" style="stroke:#444;stroke-width:0.5;stroke-dasharray:5,5;"/></g><line x1="1767.515" y1="453.094" x2="1767.515" y2="524.016" style="stroke:#444;stroke-width:0.5;stroke-dasharray:1,4;"/><g><title>Service Discovery</title><rect x="1764.015" y="524.016" width="8" height="351.531" fill="#000" fill-opacity="0"/><line x1="1767.515" y1="524.016" x2="1767.515" y2="875.547" style="stroke:#444;stroke-width:0.5;stroke-dasharray:5,5;"/></g><g><title>Load Balancer</title><rect x="2037.333" y="89.563" width="8" height="178.766" fill="#000" fill-opacity="0"/><line x1="2040.833" y1="89.563" x2="2040.833" y2="268.328" style="stroke:#444;stroke-width:0.5;stroke-dasharray:5,5;"/></g><line x1="2040.833" y1="268.328" x2="2040.833" y2="339.25" style="stroke:#444;stroke-width:0.5;stroke-dasharray:1,4;"/><g><title>Load Balancer</title><rect x="2037.333" y="339.25" width="8" height="113.844" fill="#000" fill-opacity="0"/><line x1="2040.833" y1="339.25" x2="2040.833" y2="453.094" style="stroke:#444;stroke-width:0.5;stroke-dasharray:5,5;"/></g><line x1="2040.833" y1="453.094" x2="2040.833" y2="524.016" style="stroke:#444;stroke-width:0.5;stroke-dasharray:1,4;"/><g><title>Load Balancer</title><rect x="2037.333" y="524.016" width="8" height="351.531" fill="#000" fill-opacity="0"/><line x1="2040.833" y1="524.016" x2="2040.833" y2="875.547" style="stroke:#444;stroke-width:0.5;stroke-dasharray:5,5;"/></g><rect x="10" y="31.641" width="189.622" height="56.922" fill="#F0F8FF" style="stroke:#444;stroke-width:3;" rx="2" ry="2"/><text x="21" y="70.487" fill="#444" font-size="30" textLength="167.622">Application</text><rect x="479.442" y="31.641" width="100.867" height="56.922" fill="#F0F8FF" style="stroke:#444;stroke-width:3;" rx="2" ry="2"/><text x="490.442" y="70.487" fill="#444" font-size="30" textLength="78.867">Stork</text><rect x="868.515" y="31.641" width="242.957" height="56.922" fill="#F0F8FF" style="stroke:#444;stroke-width:3;" rx="2" ry="2"/><text x="879.515" y="70.487" fill="#444" font-size="30" textLength="220.957">ConfigProvider</text><rect x="1121.472" y="31.641" width="132.874" height="56.922" fill="#F0F8FF" style="stroke:#444;stroke-width:3;" rx="2" ry="2"/><text x="1132.472" y="70.487" fill="#444" font-size="30" textLength="110.874">Service</text><rect x="1622.203" y="31.641" width="290.623" height="56.922" fill="#F0F8FF" style="stroke:#444;stroke-width:3;" rx="2" ry="2"/><text x="1633.203" y="70.487" fill="#444" font-size="30" textLength="268.623">Service Discovery</text><rect x="1922.826" y="31.641" width="236.014" height="56.922" fill="#F0F8FF" style="stroke:#444;stroke-width:3;" rx="2" ry="2"/><text x="1933.826" y="70.487" fill="#444" font-size="30" textLength="214.014">Load Balancer</text><rect x="10" y="875.547" width="189.622" height="56.922" fill="#F0F8FF" style="stroke:#444;stroke-width:3;" rx="2" ry="2"/><text x="21" y="914.394" fill="#444" font-size="30" textLength="167.622">Application</text><rect x="479.442" y="875.547" width="100.867" height="56.922" fill="#F0F8FF" style="stroke:#444;stroke-width:3;" rx="2" ry="2"/><text x="490.442" y="914.394" fill="#444" font-size="30" textLength="78.867">Stork</text><rect x="868.515" y="875.547" width="242.957" height="56.922" fill="#F0F8FF" style="stroke:#444;stroke-width:3;" rx="2" ry="2"/><text x="879.515" y="914.394" fill="#444" font-size="30" textLength="220.957">ConfigProvider</text><rect x="1121.472" y="875.547" width="132.874" height="56.922" fill="#F0F8FF" style="stroke:#444;stroke-width:3;" rx="2" ry="2"/><text x="1132.472" y="914.394" fill="#444" font-size="30" textLength="110.874">Service</text><rect x="1622.203" y="875.547" width="290.623" height="56.922" fill="#F0F8FF" style="stroke:#444;stroke-width:3;" rx="2" ry="2"/><text x="1633.203" y="914.394" fill="#444" font-size="30" textLength="268.623">Service Discovery</text><rect x="1922.826" y="875.547" width="236.014" height="56.922" fill="#F0F8FF" style="stroke:#444;stroke-width:3;" rx="2" ry="2"/><text x="1933.826" y="914.394" fill="#444" font-size="30" textLength="214.014">Load Balancer</text><polygon points="517.875,142.484,527.875,146.484,517.875,150.484,521.875,146.484" fill="#444" style="stroke:#444;stroke-width:1;stroke-linejoin:miter;stroke-miterlimit:10;"/><line x1="104.811" y1="146.484" x2="523.875" y2="146.484" style="stroke:#444;stroke-width:3;"/><text x="200.901" y="133.409" fill="#444" font-size="30" textLength="48.296" font-weight="700">(1)</text><text x="261.197" y="133.409" fill="#444" font-size="30" textLength="172.588" font-weight="700">initialize()</text><polygon points="977.994,199.406,987.994,203.406,977.994,207.406,981.994,203.406" fill="#444" style="stroke:#444;stroke-width:1;stroke-linejoin:miter;stroke-miterlimit:10;"/><line x1="529.875" y1="203.406" x2="983.994" y2="203.406" style="stroke:#444;stroke-width:3;"/><text x="633.598" y="190.331" fill="#444" font-size="30" textLength="48.296" font-weight="700">(2)</text><text x="693.894" y="190.331" fill="#444" font-size="30" textLength="192.378" font-weight="700">getConfig()</text><polygon points="540.875,256.328,530.875,260.328,540.875,264.328,536.875,260.328" fill="#444" style="stroke:#444;stroke-width:1;stroke-linejoin:miter;stroke-miterlimit:10;"/><line x1="534.875" y1="260.328" x2="988.994" y2="260.328" style="stroke:#444;stroke-width:3;"/><text x="545.875" y="247.253" fill="#444" font-size="30" textLength="48.296" font-weight="700">(3)</text><text x="606.171" y="247.253" fill="#444" font-size="30" textLength="367.822" font-weight="700">: List&lt;ServiceConfig></text><text x="1068.054" y="314.175" fill="#444" font-size="30"> </text><polygon points="517.875,384.172,527.875,388.172,517.875,392.172,521.875,388.172" fill="#444" style="stroke:#444;stroke-width:1;stroke-linejoin:miter;stroke-miterlimit:10;"/><line x1="104.811" y1="388.172" x2="523.875" y2="388.172" style="stroke:#444;stroke-width:3;"/><text x="120.811" y="375.097" fill="#444" font-size="30" textLength="48.296" font-weight="700">(4)</text><text x="181.107" y="375.097" fill="#444" font-size="30" textLength="332.769" font-weight="700">getService("name")</text><polygon points="115.811,441.094,105.811,445.094,115.811,449.094,111.811,445.094" fill="#444" style="stroke:#444;stroke-width:1;stroke-linejoin:miter;stroke-miterlimit:10;"/><line x1="109.811" y1="445.094" x2="528.875" y2="445.094" style="stroke:#444;stroke-width:3;"/><text x="224.837" y="432.019" fill="#444" font-size="30" textLength="48.296" font-weight="700">(5)</text><text x="285.133" y="432.019" fill="#444" font-size="30" textLength="124.717" font-weight="700">Service</text><text x="1063.286" y="498.94" fill="#444" font-size="30" textLength="19.072">  </text><polygon points="1175.909,568.938,1185.909,572.938,1175.909,576.938,1179.909,572.938" fill="#444" style="stroke:#444;stroke-width:1;stroke-linejoin:miter;stroke-miterlimit:10;"/><line x1="104.811" y1="572.938" x2="1181.909" y2="572.938" style="stroke:#444;stroke-width:3;"/><text x="417.44" y="559.862" fill="#444" font-size="30" textLength="48.296" font-weight="700">(6)</text><text x="477.736" y="559.862" fill="#444" font-size="30" textLength="397.544" font-weight="700">selectServiceInstance()</text><polygon points="1755.515,625.859,1765.515,629.859,1755.515,633.859,1759.515,629.859" fill="#444" style="stroke:#444;stroke-width:1;stroke-linejoin:miter;stroke-miterlimit:10;"/><line x1="1187.909" y1="629.859" x2="1761.515" y2="629.859" style="stroke:#444;stroke-width:3;"/><text x="1262.261" y="616.784" fill="#444" font-size="30" textLength="48.296" font-weight="700">(7)</text><text x="1322.557" y="616.784" fill="#444" font-size="30" textLength="370.605" font-weight="700">getServiceInstances()</text><polygon points="1198.909,682.781,1188.909,686.781,1198.909,690.781,1194.909,686.781" fill="#444" style="stroke:#444;stroke-width:1;stroke-linejoin:miter;stroke-miterlimit:10;"/><line x1="1192.909" y1="686.781" x2="1766.515" y2="686.781" style="stroke:#444;stroke-width:3;stroke-dasharray:2,2;"/><text x="1203.909" y="673.706" fill="#444" font-size="30" textLength="48.296" font-weight="700">(8)</text><text x="1264.205" y="673.706" fill="#444" font-size="30" textLength="487.31" font-weight="700">Uni&lt;List&lt;ServiceInstance>></text><polygon points="2028.833,739.703,2038.833,743.703,2028.833,747.703,2032.833,743.703" fill="#444" style="stroke:#444;stroke-width:1;stroke-linejoin:miter;stroke-miterlimit:10;"/><line x1="1187.909" y1="743.703" x2="2034.833" y2="743.703" style="stroke:#444;stroke-width:3;"/><text x="1385.451" y="730.628" fill="#444" font-size="30" textLength="48.296" font-weight="700">(9)</text><text x="1445.747" y="730.628" fill="#444" font-size="30" textLength="397.544" font-weight="700">selectServiceInstance()</text><polygon points="1198.909,796.625,1188.909,800.625,1198.909,804.625,1194.909,800.625" fill="#444" style="stroke:#444;stroke-width:1;stroke-linejoin:miter;stroke-miterlimit:10;"/><line x1="1192.909" y1="800.625" x2="2039.833" y2="800.625" style="stroke:#444;stroke-width:3;stroke-dasharray:2,2;"/><text x="1386.066" y="787.55" fill="#444" font-size="30" textLength="69.17" font-weight="700">(10)</text><text x="1467.236" y="787.55" fill="#444" font-size="30" textLength="375.439" font-weight="700">Uni&lt;ServiceInstance></text><polygon points="115.811,853.547,105.811,857.547,115.811,861.547,111.811,857.547" fill="#444" style="stroke:#444;stroke-width:1;stroke-linejoin:miter;stroke-miterlimit:10;"/><line x1="109.811" y1="857.547" x2="1186.909" y2="857.547" style="stroke:#444;stroke-width:3;stroke-dasharray:2,2;"/><text x="418.055" y="844.472" fill="#444" font-size="30" textLength="69.17" font-weight="700">(11)</text><text x="499.225" y="844.472" fill="#444" font-size="30" textLength="375.439" font-weight="700">Uni&lt;ServiceInstance></text><?plantuml-src jLPTRzem57tFht3fmrffL5tNbw4AAG7QLQM0eDEqfyeabs1XR6OxHMpQVz_DHuaDITjD9H8Ft7lkEUTUEuwF8fWn0IIuURptRmUFdM5_E2RPutCMGi0Jy8vAqAJN6Gww_lX7WJmEBeDEqBCX8xzpvz_qjbJ70DEBBvzAo73SxOrj9N9ycJrRoFLmyE00zY7-U3pyxcAwL2rk56myp_j0c0Xv4W4nSo0n252K4xrWOaKLNMeoaufCfPb_99p5SqEeY4Y4zLXf995FeDQA6I1hPkOv1ti2GJGOmqIiTvjv-7hRkHlq9XFosTkga2aD5x6IYOWwagEWKLHeJ84mdWKBETNwMWepOR-0V3wtSoCQHIX8BgtOE6TKs9GJdynf9DSfUaQv1fkc2pEQS4D-UwbExgOSicUB_zcpXbN1JYVETl5yfUHwZpIGAWBrTgsC1RKgAwffp8RZ4aWUrREkq3cDeQxpbnkpMx2tBKgK2a96_qBll1vlKmZbSYK5xffNLwAMhj9TFhzaoI_ScKNKq2dLyCvoEpjB9j511IJd41ecXNvtcLAbWm0b-G4LWfIIgiq19Nh2C7D80IOCg1aDuO0Q4_YPW0XXH9LX8LjHONAoXpaB5mBm7BFFPbt0qP5TyQAvFUeAdnQcFAA4L4lATtDxxVJP3FhuLQabtmB-upZEehNCMRRIL9QnP-Y7HgfN76IGMgqqM_S2UnLhT8_2U8RZXIGM98HqCtaqCL8aoob-0njNq_R9-Ma3QrVbX8c_Mk4DXgOdW1EVeFh2YU1BF6FnICadXevTCAWdl0OviKOH95scm_Igi6cu-Rwa4Gaef-XTeItB2McsSmEaXMy5Cuno_6gTd7fv4BEk6OJ5OF8OedQI5bcBz9asLuMr7DVslBEpCuA_MWz8NfISD0HTGiDoOfMqjeF867FAFSvYB2rSkFJeBVxV2ctIIQHD5WW4LmpHiVDSfR6i2jjiEehV1Bko1_1StcuxekxAlE1q5raXjwjK2ZNTuTNW_m80?></g></svg>