<svg xmlns="http://www.w3.org/2000/svg" xmlns:xlink="http://www.w3.org/1999/xlink" version="1.1" data-diagram-type="SEQUENCE" style="width:1907px;height:574px;" width="1907px" height="574px" viewBox="0 0 1907 574" zoomAndPan="magnify" preserveAspectRatio="none" contentStyleType="text/css"><?plantuml 1.2026.7beta6?><defs/><g font-family="sans-serif" lengthAdjust="spacing"><rect x="8" y="8" width="1886.33" height="16.641" fill="#FFC" style="stroke:#FD8;stroke-width:3;" rx="2.5" ry="2.5"/><text x="15" y="18.641" fill="#000" font-size="10" textLength="295.005" font-family="monospace">Please use CSS style instead of skinparam padding</text><g><title>Application</title><rect x="101.311" y="89.563" width="8" height="416.453" fill="#000" fill-opacity="0"/><line x1="104.811" y1="89.563" x2="104.811" y2="506.016" style="stroke:#444;stroke-width:0.5;stroke-dasharray:5,5;"/></g><g><title>Stork</title><rect x="968.14" y="89.563" width="8" height="416.453" fill="#000" fill-opacity="0"/><line x1="971.64" y1="89.563" x2="971.64" y2="506.016" style="stroke:#444;stroke-width:0.5;stroke-dasharray:5,5;"/></g><g><title>DNS Server</title><rect x="1795.58" y="89.563" width="8" height="416.453" fill="#000" fill-opacity="0"/><line x1="1799.08" y1="89.563" x2="1799.08" y2="506.016" style="stroke:#444;stroke-width:0.5;stroke-dasharray:5,5;"/></g><rect x="10" y="31.641" width="189.622" height="56.922" fill="#F0F8FF" style="stroke:#444;stroke-width:3;" rx="2" ry="2"/><text x="21" y="70.487" fill="#444" font-size="30" textLength="167.622">Application</text><rect x="921.207" y="31.641" width="100.867" height="56.922" fill="#F0F8FF" style="stroke:#444;stroke-width:3;" rx="2" ry="2"/><text x="932.207" y="70.487" fill="#444" font-size="30" textLength="78.867">Stork</text><rect x="1701.83" y="31.641" width="194.5" height="56.922" fill="#F0F8FF" style="stroke:#444;stroke-width:3;" rx="2" ry="2"/><text x="1712.83" y="70.487" fill="#444" font-size="30" textLength="172.5">DNS Server</text><rect x="10" y="506.016" width="189.622" height="56.922" fill="#F0F8FF" style="stroke:#444;stroke-width:3;" rx="2" ry="2"/><text x="21" y="544.862" fill="#444" font-size="30" textLength="167.622">Application</text><rect x="921.207" y="506.016" width="100.867" height="56.922" fill="#F0F8FF" style="stroke:#444;stroke-width:3;" rx="2" ry="2"/><text x="932.207" y="544.862" fill="#444" font-size="30" textLength="78.867">Stork</text><rect x="1701.83" y="506.016" width="194.5" height="56.922" fill="#F0F8FF" style="stroke:#444;stroke-width:3;" rx="2" ry="2"/><text x="1712.83" y="544.862" fill="#444" font-size="30" textLength="172.5">DNS Server</text><polygon points="959.64,142.484,969.64,146.484,959.64,150.484,963.64,146.484" fill="#444" style="stroke:#444;stroke-width:1;stroke-linejoin:miter;stroke-miterlimit:10;"/><line x1="104.811" y1="146.484" x2="965.64" y2="146.484" style="stroke:#444;stroke-width:3;"/><text x="358.504" y="133.409" fill="#444" font-size="30" textLength="359.443" font-weight="700">get service instances</text><polygon points="1787.08,199.406,1797.08,203.406,1787.08,207.406,1791.08,203.406" fill="#444" style="stroke:#444;stroke-width:1;stroke-linejoin:miter;stroke-miterlimit:10;"/><line x1="971.64" y1="203.406" x2="1793.08" y2="203.406" style="stroke:#444;stroke-width:3;"/><text x="1130.682" y="190.331" fill="#444" font-size="30" textLength="509.355" font-weight="700">get SRV records for hostname</text><polygon points="982.64,256.328,972.64,260.328,982.64,264.328,978.64,260.328" fill="#444" style="stroke:#444;stroke-width:1;stroke-linejoin:miter;stroke-miterlimit:10;"/><line x1="976.64" y1="260.328" x2="1798.08" y2="260.328" style="stroke:#444;stroke-width:3;"/><text x="1228.688" y="247.253" fill="#444" font-size="30" textLength="313.345" font-weight="700">list of SRV records</text><polygon points="115.811,313.25,105.811,317.25,115.811,321.25,111.811,317.25" fill="#444" style="stroke:#444;stroke-width:1;stroke-linejoin:miter;stroke-miterlimit:10;"/><line x1="109.811" y1="317.25" x2="970.64" y2="317.25" style="stroke:#444;stroke-width:3;"/><text x="120.811" y="304.175" fill="#444" font-size="30" textLength="834.829" font-weight="700">list of SRV record targets if no resolution desired</text><polygon points="1787.08,370.172,1797.08,374.172,1787.08,378.172,1791.08,374.172" fill="#444" style="stroke:#444;stroke-width:1;stroke-linejoin:miter;stroke-miterlimit:10;"/><line x1="971.64" y1="374.172" x2="1793.08" y2="374.172" style="stroke:#444;stroke-width:3;"/><text x="987.64" y="361.097" fill="#444" font-size="30" textLength="795.439" font-weight="700">get A/AAAA records for each SRV record target</text><polygon points="982.64,427.094,972.64,431.094,982.64,435.094,978.64,431.094" fill="#444" style="stroke:#444;stroke-width:1;stroke-linejoin:miter;stroke-miterlimit:10;"/><line x1="976.64" y1="431.094" x2="1798.08" y2="431.094" style="stroke:#444;stroke-width:3;"/><text x="1268.18" y="418.019" fill="#444" font-size="30" textLength="234.36" font-weight="700">list of A/AAAA</text><polygon points="115.811,484.016,105.811,488.016,115.811,492.016,111.811,488.016" fill="#444" style="stroke:#444;stroke-width:1;stroke-linejoin:miter;stroke-miterlimit:10;"/><line x1="109.811" y1="488.016" x2="970.64" y2="488.016" style="stroke:#444;stroke-width:3;"/><text x="341.058" y="474.94" fill="#444" font-size="30" textLength="394.336" font-weight="700">list of ServiceInstances</text><?plantuml-src jLR1Kjim4BthAmGSUccdBN1f3vsndK0P865iffsU64LQnveeKYh9P2ZJV-_6fh6Ss8HsY8_Qj--zNQra7GZ8fGOQdzzTHnUZksHyDKvfzKLASeXL2UIW0MN3P3mQHEcF9-HHV1edyJ24t4J9PNG-N5CT0KoEFtri8EDqC4n39NfqMdrhoDbuTDi2R4EYD1r_RsC6pCxEBJmGGjvGgRag1L1V09s21iiKTJEf5yookQEviNHYVF6MAZajF6LQK87vcEaDDVTWbrPwe4lfYvf3teEc3hoNUkesYxdzUf5SZePPHa_8MeLE69zDhIcrI8n2GM-PTXW2xKa0uuevTsQqp-Gle2SVmjWD4m85wMcmbjQC5ejghMS54sQvGkTCEGXf1f2pKddwI5OwjPkcoIGK_xrb3RFYZKfQuq8YQyroYpGsLe1zkLR5WbgT6Tqq_a7X5XWb-baNw9nDeQ_ovmiBImZ75YKQ1Mt4lz2tZiVB5BYPBup6gTcv4xrqdUxg_fLpTTpkcM2UJPY3LvRRc2nJYhqA6AM0UscqUtMPHYL1W3LgZmhnYfBPXprA3BMNVfy2KdkmEUEmHuqCVfQWETmmwoMN2wPzJNPRI3xJWFTOU3Ux9pWw2ZEUDRT5tU4pm3HNb3PspjHcRAkSAvd35VvLUidNWF-uZglLNkOgsccgYeGzZBWtTeU32jAhjOhs7M3IiKVNA8ntE3v8fffoM0qJuXPDDscqME1hXQrEUsizGwLPQ-LmCCfmLYp-uGy92VBekoyrd7x61uD7SNkF3o2SNUSPcd2aZY8iv7X2P-atQe5ZoVNReZ3EQpO7qi864aewJqqU9ZO2eQqkAFNCeggZCiVPmaLdL5cX1JXfGJphDNeVuTUo2umNs_mxpTTCEttNdRpusyW_?></g></svg>