<svg xmlns="http://www.w3.org/2000/svg" xmlns:xlink="http://www.w3.org/1999/xlink" version="1.1" data-diagram-type="CLASS" style="width:1984px;height:609px;" width="1984px" height="609px" viewBox="0 0 1984 609" zoomAndPan="magnify" preserveAspectRatio="none" contentStyleType="text/css"><?plantuml 1.2026.7beta6?><defs/><g font-family="sans-serif" lengthAdjust="spacing"><rect x="3" y="3" width="1968.161" height="16.641" fill="#FFC" style="stroke:#FD8;stroke-width:3;" rx="2.5" ry="2.5"/><text x="10" y="13.641" fill="#000" font-size="10" textLength="295.005" font-family="monospace">Please use CSS style instead of skinparam padding</text><!--class Stork--><g class="entity" data-qualified-name="Stork" id="ent0001" data-source-line="111"><rect x="605.24" y="28.641" width="249.364" height="95.844" fill="#1A618C" style="stroke:#EEE;stroke-width:0.5;" rx="2" ry="2"/><ellipse cx="625.24" cy="76.563" rx="16" ry="16" fill="#ADD1B2" style="stroke:#181818;stroke-width:1;"/><path d="M630.568,86.188 Q629.553,86.703 628.412,86.969 Q627.287,87.234 626.053,87.234 Q621.631,87.234 619.303,84.328 Q616.974,81.406 616.974,75.906 Q616.974,70.375 619.303,67.469 Q621.631,64.547 626.053,64.547 Q627.287,64.547 628.428,64.813 Q629.584,65.078 630.568,65.594 L630.568,70.406 Q629.459,69.375 628.412,68.906 Q627.365,68.422 626.256,68.422 Q623.881,68.422 622.662,70.313 Q621.459,72.188 621.459,75.906 Q621.459,79.594 622.662,81.484 Q623.881,83.359 626.256,83.359 Q627.365,83.359 628.412,82.891 Q629.459,82.406 630.568,81.375 L630.568,86.188 Z " fill="#EEE"/><text x="646.24" y="65.487" fill="#EEE" font-size="30" textLength="203.364" font-style="italic">«entry-point»</text><text x="708.489" y="108.409" fill="#EEE" font-size="30" textLength="78.867">Stork</text></g><!--class ServiceDiscovery--><g class="entity" data-qualified-name="ServiceDiscovery" id="ent0002" data-source-line="112"><rect x="204.38" y="385.321" width="309.087" height="52.922" fill="#1A618C" style="stroke:#EEE;stroke-width:0.5;" rx="2" ry="2"/><ellipse cx="224.38" cy="411.782" rx="16" ry="16" fill="#B4A7E5" style="stroke:#181818;stroke-width:1;"/><path d="M217.896,403.719 L217.896,399.907 L230.927,399.907 L230.927,403.719 L226.568,403.719 L226.568,417.969 L230.927,417.969 L230.927,421.782 L217.896,421.782 L217.896,417.969 L222.255,417.969 L222.255,403.719 L217.896,403.719 Z " fill="#EEE"/><text x="247.38" y="422.167" fill="#EEE" font-size="30" textLength="259.087" font-style="italic">ServiceDiscovery</text></g><!--class ServiceInstance--><g class="entity" data-qualified-name="ServiceInstance" id="ent0003" data-source-line="113"><rect x="585.68" y="385.321" width="288.477" height="52.922" fill="#1A618C" style="stroke:#EEE;stroke-width:0.5;" rx="2" ry="2"/><ellipse cx="605.68" cy="411.782" rx="16" ry="16" fill="#B4A7E5" style="stroke:#181818;stroke-width:1;"/><path d="M599.196,403.719 L599.196,399.907 L612.227,399.907 L612.227,403.719 L607.868,403.719 L607.868,417.969 L612.227,417.969 L612.227,421.782 L599.196,421.782 L599.196,417.969 L603.555,417.969 L603.555,403.719 L599.196,403.719 Z " fill="#EEE"/><text x="628.68" y="422.167" fill="#EEE" font-size="30" textLength="238.477" font-style="italic">ServiceInstance</text></g><!--class LoadBalancer--><g class="entity" data-qualified-name="LoadBalancer" id="ent0004" data-source-line="114"><rect x="1224.68" y="385.321" width="254.478" height="52.922" fill="#1A618C" style="stroke:#EEE;stroke-width:0.5;" rx="2" ry="2"/><ellipse cx="1244.68" cy="411.782" rx="16" ry="16" fill="#B4A7E5" style="stroke:#181818;stroke-width:1;"/><path d="M1238.196,403.719 L1238.196,399.907 L1251.227,399.907 L1251.227,403.719 L1246.868,403.719 L1246.868,417.969 L1251.227,417.969 L1251.227,421.782 L1238.196,421.782 L1238.196,417.969 L1242.555,417.969 L1242.555,403.719 L1238.196,403.719 Z " fill="#EEE"/><text x="1267.68" y="422.167" fill="#EEE" font-size="30" textLength="204.478" font-style="italic">LoadBalancer</text></g><!--class Service--><g class="entity" data-qualified-name="Service" id="ent0005" data-source-line="115"><rect x="636.51" y="185.481" width="186.83" height="95.844" fill="#1A618C" style="stroke:#EEE;stroke-width:0.5;" rx="2" ry="2"/><ellipse cx="656.51" cy="233.403" rx="16" ry="16" fill="#ADD1B2" style="stroke:#181818;stroke-width:1;"/><path d="M661.838,243.028 Q660.823,243.543 659.682,243.809 Q658.557,244.074 657.323,244.074 Q652.901,244.074 650.573,241.168 Q648.244,238.246 648.244,232.746 Q648.244,227.215 650.573,224.309 Q652.901,221.387 657.323,221.387 Q658.557,221.387 659.698,221.653 Q660.854,221.918 661.838,222.434 L661.838,227.246 Q660.729,226.215 659.682,225.746 Q658.635,225.262 657.526,225.262 Q655.151,225.262 653.932,227.153 Q652.729,229.028 652.729,232.746 Q652.729,236.434 653.932,238.324 Q655.151,240.199 657.526,240.199 Q658.635,240.199 659.682,239.731 Q660.729,239.246 661.838,238.215 L661.838,243.028 Z " fill="#EEE"/><text x="677.51" y="222.327" fill="#EEE" font-size="30" textLength="140.83" font-style="italic">«named»</text><text x="692.488" y="265.249" fill="#EEE" font-size="30" textLength="110.874">Service</text></g><!--class Kubernetes--><g class="entity" data-qualified-name="Kubernetes" id="ent0010" data-source-line="123"><rect x="7" y="520.711" width="221.841" height="52.922" fill="#1A618C" style="stroke:#EEE;stroke-width:0.5;" rx="2" ry="2"/><ellipse cx="27" cy="547.172" rx="16" ry="16" fill="#ADD1B2" style="stroke:#181818;stroke-width:1;"/><path d="M32.328,556.797 Q31.313,557.312 30.172,557.578 Q29.047,557.843 27.813,557.843 Q23.391,557.843 21.063,554.937 Q18.734,552.015 18.734,546.515 Q18.734,540.984 21.063,538.078 Q23.391,535.156 27.813,535.156 Q29.047,535.156 30.188,535.422 Q31.344,535.687 32.328,536.203 L32.328,541.015 Q31.219,539.984 30.172,539.515 Q29.125,539.031 28.016,539.031 Q25.641,539.031 24.422,540.922 Q23.219,542.797 23.219,546.515 Q23.219,550.203 24.422,552.093 Q25.641,553.968 28.016,553.968 Q29.125,553.968 30.172,553.5 Q31.219,553.015 32.328,551.984 L32.328,556.797 Z " fill="#EEE"/><text x="50" y="557.557" fill="#EEE" font-size="30" textLength="171.841">Kubernetes</text></g><!--class Consul--><g class="entity" data-qualified-name="Consul" id="ent0012" data-source-line="124"><rect x="264.27" y="520.711" width="151.294" height="52.922" fill="#1A618C" style="stroke:#EEE;stroke-width:0.5;" rx="2" ry="2"/><ellipse cx="284.27" cy="547.172" rx="16" ry="16" fill="#ADD1B2" style="stroke:#181818;stroke-width:1;"/><path d="M289.598,556.797 Q288.583,557.312 287.442,557.578 Q286.317,557.843 285.083,557.843 Q280.661,557.843 278.333,554.937 Q276.004,552.015 276.004,546.515 Q276.004,540.984 278.333,538.078 Q280.661,535.156 285.083,535.156 Q286.317,535.156 287.458,535.422 Q288.614,535.687 289.598,536.203 L289.598,541.015 Q288.489,539.984 287.442,539.515 Q286.395,539.031 285.286,539.031 Q282.911,539.031 281.692,540.922 Q280.489,542.797 280.489,546.515 Q280.489,550.203 281.692,552.093 Q282.911,553.968 285.286,553.968 Q286.395,553.968 287.442,553.5 Q288.489,553.015 289.598,551.984 L289.598,556.797 Z " fill="#EEE"/><text x="307.27" y="557.557" fill="#EEE" font-size="30" textLength="101.294">Consul</text></g><!--class Custom Service Discovery--><g class="entity" data-qualified-name="Custom Service Discovery" id="ent0014" data-source-line="125"><rect x="450.38" y="520.711" width="443.091" height="52.922" fill="#1A618C" style="stroke:#EEE;stroke-width:0.5;" rx="2" ry="2"/><ellipse cx="470.38" cy="547.172" rx="16" ry="16" fill="#ADD1B2" style="stroke:#181818;stroke-width:1;"/><path d="M475.708,556.797 Q474.693,557.312 473.552,557.578 Q472.427,557.843 471.193,557.843 Q466.771,557.843 464.443,554.937 Q462.114,552.015 462.114,546.515 Q462.114,540.984 464.443,538.078 Q466.771,535.156 471.193,535.156 Q472.427,535.156 473.568,535.422 Q474.724,535.687 475.708,536.203 L475.708,541.015 Q474.599,539.984 473.552,539.515 Q472.505,539.031 471.396,539.031 Q469.021,539.031 467.802,540.922 Q466.599,542.797 466.599,546.515 Q466.599,550.203 467.802,552.093 Q469.021,553.968 471.396,553.968 Q472.505,553.968 473.552,553.5 Q474.599,553.015 475.708,551.984 L475.708,556.797 Z " fill="#EEE"/><text x="493.38" y="557.557" fill="#EEE" font-size="30" textLength="393.091">Custom Service Discovery</text></g><!--class RoundRobin--><g class="entity" data-qualified-name="RoundRobin" id="ent0016" data-source-line="127"><rect x="927.99" y="499.251" width="231.86" height="95.844" fill="#1A618C" style="stroke:#EEE;stroke-width:0.5;" rx="2" ry="2"/><ellipse cx="947.99" cy="547.173" rx="16" ry="16" fill="#ADD1B2" style="stroke:#181818;stroke-width:1;"/><path d="M953.318,556.798 Q952.303,557.313 951.162,557.579 Q950.037,557.844 948.803,557.844 Q944.381,557.844 942.053,554.938 Q939.724,552.016 939.724,546.516 Q939.724,540.985 942.053,538.079 Q944.381,535.157 948.803,535.157 Q950.037,535.157 951.178,535.423 Q952.334,535.688 953.318,536.204 L953.318,541.016 Q952.209,539.985 951.162,539.516 Q950.115,539.032 949.006,539.032 Q946.631,539.032 945.412,540.923 Q944.209,542.798 944.209,546.516 Q944.209,550.204 945.412,552.094 Q946.631,553.969 949.006,553.969 Q950.115,553.969 951.162,553.501 Q952.209,553.016 953.318,551.985 L953.318,556.798 Z " fill="#EEE"/><text x="990.787" y="536.097" fill="#EEE" font-size="30" textLength="142.266" font-style="italic">«default»</text><text x="970.99" y="579.019" fill="#EEE" font-size="30" textLength="181.86">RoundRobin</text></g><!--class LeastResponseTime--><g class="entity" data-qualified-name="LeastResponseTime" id="ent0018" data-source-line="128"><rect x="1194.56" y="520.711" width="350.718" height="52.922" fill="#1A618C" style="stroke:#EEE;stroke-width:0.5;" rx="2" ry="2"/><ellipse cx="1214.56" cy="547.172" rx="16" ry="16" fill="#ADD1B2" style="stroke:#181818;stroke-width:1;"/><path d="M1219.888,556.797 Q1218.873,557.312 1217.732,557.578 Q1216.607,557.843 1215.373,557.843 Q1210.951,557.843 1208.623,554.937 Q1206.294,552.015 1206.294,546.515 Q1206.294,540.984 1208.623,538.078 Q1210.951,535.156 1215.373,535.156 Q1216.607,535.156 1217.748,535.422 Q1218.904,535.687 1219.888,536.203 L1219.888,541.015 Q1218.779,539.984 1217.732,539.515 Q1216.685,539.031 1215.576,539.031 Q1213.201,539.031 1211.982,540.922 Q1210.779,542.797 1210.779,546.515 Q1210.779,550.203 1211.982,552.093 Q1213.201,553.968 1215.576,553.968 Q1216.685,553.968 1217.732,553.5 Q1218.779,553.015 1219.888,551.984 L1219.888,556.797 Z " fill="#EEE"/><text x="1237.56" y="557.557" fill="#EEE" font-size="30" textLength="300.718">LeastResponseTime</text></g><!--class Custom Load Balancer--><g class="entity" data-qualified-name="Custom Load Balancer" id="ent0020" data-source-line="129"><rect x="1580.68" y="520.711" width="388.481" height="52.922" fill="#1A618C" style="stroke:#EEE;stroke-width:0.5;" rx="2" ry="2"/><ellipse cx="1600.68" cy="547.172" rx="16" ry="16" fill="#ADD1B2" style="stroke:#181818;stroke-width:1;"/><path d="M1606.008,556.797 Q1604.993,557.312 1603.852,557.578 Q1602.727,557.843 1601.493,557.843 Q1597.071,557.843 1594.743,554.937 Q1592.414,552.015 1592.414,546.515 Q1592.414,540.984 1594.743,538.078 Q1597.071,535.156 1601.493,535.156 Q1602.727,535.156 1603.868,535.422 Q1605.024,535.687 1606.008,536.203 L1606.008,541.015 Q1604.899,539.984 1603.852,539.515 Q1602.805,539.031 1601.696,539.031 Q1599.321,539.031 1598.102,540.922 Q1596.899,542.797 1596.899,546.515 Q1596.899,550.203 1598.102,552.093 Q1599.321,553.968 1601.696,553.968 Q1602.805,553.968 1603.852,553.5 Q1604.899,553.015 1606.008,551.984 L1606.008,556.797 Z " fill="#EEE"/><text x="1623.68" y="557.557" fill="#EEE" font-size="30" textLength="338.481">Custom Load Balancer</text></g><!--link Stork to Service--><g class="link" data-entity-1="ent0001" data-entity-2="ent0005" id="lnk6" data-source-line="117" data-link-type="association"><path d="M729.92,124.861 C729.92,143.981 729.92,166.011 729.92,185.131" style="stroke:#EEE;stroke-width:3;" fill="none" id="Stork-Service" codeLine="117"/><text x="709.56" y="166.591" fill="#EEE" font-size="30" font-weight="700">*</text></g><!--link Service to ServiceDiscovery--><g class="link" data-entity-1="ent0005" data-entity-2="ent0002" id="lnk7" data-source-line="118" data-link-type="association"><path d="M636.3,278.911 C565.89,312.391 471.86,357.091 413.36,384.901" style="stroke:#EEE;stroke-width:3;" fill="none" id="Service-ServiceDiscovery" codeLine="118"/></g><!--link Service to LoadBalancer--><g class="link" data-entity-1="ent0005" data-entity-2="ent0004" id="lnk8" data-source-line="119" data-link-type="association"><path d="M823.76,247.451 C903.19,259.801 1019.48,281.001 1117.92,311.321 C1182.25,331.141 1252.98,362.641 1299.65,384.881" style="stroke:#EEE;stroke-width:3;" fill="none" id="Service-LoadBalancer" codeLine="119"/></g><!--link Service to ServiceInstance--><g class="link" data-entity-1="ent0005" data-entity-2="ent0003" id="lnk9" data-source-line="121" data-link-type="association"><path d="M729.92,281.671 C729.92,314.941 729.92,358.181 729.92,385.221" style="stroke:#EEE;stroke-width:3;stroke-dasharray:1,3;" fill="none" id="Service-ServiceInstance" codeLine="121"/><text x="734.92" y="344.167" fill="#EEE" font-size="30" textLength="370.122" font-weight="700">selectServiceInstance</text></g><!--reverse link ServiceDiscovery to Kubernetes--><g class="link" data-entity-1="ent0002" data-entity-2="ent0010" id="lnk11" data-source-line="123" data-link-type="extension"><path d="M296.421,447.377 C253.851,470.937 207.07,496.831 164.54,520.361" style="stroke:#EEE;stroke-width:3;stroke-dasharray:7,7;" fill="none" id="ServiceDiscovery-backto-Kubernetes"/><polygon points="312.17,438.661,293.516,442.127,299.326,452.626,312.17,438.661" fill="none" style="stroke:#EEE;stroke-width:3;stroke-linejoin:miter;stroke-miterlimit:10;"/></g><!--reverse link ServiceDiscovery to Consul--><g class="link" data-entity-1="ent0002" data-entity-2="ent0012" id="lnk13" data-source-line="124" data-link-type="extension"><path d="M352.718,456.32 C349.348,479.94 346.93,496.941 343.57,520.531" style="stroke:#EEE;stroke-width:3;stroke-dasharray:7,7;" fill="none" id="ServiceDiscovery-backto-Consul"/><polygon points="355.26,438.501,346.778,455.473,358.657,457.168,355.26,438.501" fill="none" style="stroke:#EEE;stroke-width:3;stroke-linejoin:miter;stroke-miterlimit:10;"/></g><!--reverse link ServiceDiscovery to Custom Service Discovery--><g class="link" data-entity-1="ent0002" data-entity-2="ent0014" id="lnk15" data-source-line="125" data-link-type="extension"><path d="M436.199,445.716 C491.399,469.236 555.87,496.711 611.1,520.251" style="stroke:#EEE;stroke-width:3;stroke-dasharray:7,7;" fill="none" id="ServiceDiscovery-backto-Custom Service Discovery"/><polygon points="419.64,438.661,433.848,451.236,438.551,440.197,419.64,438.661" fill="none" style="stroke:#EEE;stroke-width:3;stroke-linejoin:miter;stroke-miterlimit:10;"/></g><!--reverse link LoadBalancer to RoundRobin--><g class="link" data-entity-1="ent0004" data-entity-2="ent0016" id="lnk17" data-source-line="127" data-link-type="extension"><path d="M1275.653,445.815 C1236.293,462.865 1200.1,478.531 1153.38,498.771" style="stroke:#EEE;stroke-width:3;stroke-dasharray:7,7;" fill="none" id="LoadBalancer-backto-RoundRobin"/><polygon points="1292.17,438.661,1273.268,440.31,1278.038,451.321,1292.17,438.661" fill="none" style="stroke:#EEE;stroke-width:3;stroke-linejoin:miter;stroke-miterlimit:10;"/></g><!--reverse link LoadBalancer to LeastResponseTime--><g class="link" data-entity-1="ent0004" data-entity-2="ent0018" id="lnk19" data-source-line="128" data-link-type="extension"><path d="M1357.799,456.339 C1360.989,479.959 1363.28,496.941 1366.46,520.531" style="stroke:#EEE;stroke-width:3;stroke-dasharray:7,7;" fill="none" id="LoadBalancer-backto-LeastResponseTime"/><polygon points="1355.39,438.501,1351.853,457.142,1363.745,455.536,1355.39,438.501" fill="none" style="stroke:#EEE;stroke-width:3;stroke-linejoin:miter;stroke-miterlimit:10;"/></g><!--reverse link LoadBalancer to Custom Load Balancer--><g class="link" data-entity-1="ent0004" data-entity-2="ent0020" id="lnk21" data-source-line="129" data-link-type="extension"><path d="M1451.397,444.153 C1526.027,467.683 1618.27,496.771 1692.83,520.281" style="stroke:#EEE;stroke-width:3;stroke-dasharray:7,7;" fill="none" id="LoadBalancer-backto-Custom Load Balancer"/><polygon points="1434.23,438.741,1449.593,449.875,1453.201,438.431,1434.23,438.741" fill="none" style="stroke:#EEE;stroke-width:3;stroke-linejoin:miter;stroke-miterlimit:10;"/></g><?plantuml-src jLRlRzem4FsUlyA33vEcLUgFYNOJGWg1TbKPL0dID4rJPU8BiN1iPZj5RDh_FYS1uX3ITbF9Hz-xzzvTBkUy8H1H3gX_y_35lHq_U9FHn4VvqpvpEsTNdlEcX0H3Rp8UkFwt3QxTEUjSTgvioBthtRatmnrH-nAVdtwCIiZ47mnzMmUrX_cpWrnFnjCAe0vnVN_ojOhPGfotYFAGfGIGZW7DWOF43Aa5vKiiSQ9G92IQ2Hs_HupEOuqm9uXWkJ2PMY3n278bgGQqeZekEEWZSAH0QyhdQh-KwUTRxsuy309quUnKq0o7YxaKAIUUO4PGIyoL2G7NZWKB6LRgMd0Tq5-0Baxjs3qcn0YY3zQPNp1AKrJbF8Wn4QiC7M6cmAOPG8HJfj5l9zCft9GjTcpnFpLh9gk_LqbbL1nNIh6gaVQ5921VhfMp6As36OTfz9gPLo0OQMPT6kTu3asLFrsONO8zj4QYLE22_0jzvUDucK8eagNWPcgUVHEDT0VT5VrB4tPUxHd16i-mWbUMsviiaPAZ2WZ68DHKSFNgCgMAPm1Ii2Cgz3DABDT7b1XoJVKn1IZN82CSmX4r0lYP0W_X7ajDGxh4N1TaqvY62mvcZzcxMMtWnf6TyQIv6lK1dnQcN55So0Ip_LYjd16DO6HkbKRo7U0_rd5-siYSHm-QoYDs3zrG2_cCWnpIg9L5cpvW9wPcdIQGp40gfxX_0eDVe6xNR42vFbaACqwzdbCELG3oaOOme2hCRkvrFNJBbSRcRLkHaS2aZrbsAhSw1TWeSPm0CHfE8NroWbhlMjkuiyMPuvgq5QieM87lH6WDvCU-kKzcABELjUzvu-ukDItXe44XcYmP9AOTgcwW09kzf5Bs0c3BIvKMoQxsNRprPF8cE_yLySMCycwN5FyOlPwTUA3B8y1A-w3CbQPWIXDu1hzrc8NGDjPgIleB?></g></svg>