<svg xmlns="http://www.w3.org/2000/svg" xmlns:xlink="http://www.w3.org/1999/xlink" contentStyleType="text/css" data-diagram-type="CLASS" height="609px" preserveAspectRatio="none" style="width:1984px;height:609px;" version="1.1" viewBox="0 0 1984 609" width="1984px" zoomAndPan="magnify"><?plantuml 1.2026.5?><defs/><g><rect fill="#FFFFCC" height="16.6406" rx="2.5" ry="2.5" style="stroke:#FFDD88;stroke-width:3;" width="1968.1614" x="3" y="3"/><text fill="#000000" font-family="monospace" font-size="10" lengthAdjust="spacing" textLength="295.0049" x="10" y="13.6406">Please&#160;use&#160;CSS&#160;style&#160;instead&#160;of&#160;skinparam&#160;padding</text><!--class Stork--><g class="entity" data-qualified-name="Stork" data-source-line="111" id="ent0001"><rect fill="#1A618C" height="95.8438" rx="2" ry="2" style="stroke:#EEEEEE;stroke-width:0.5;" width="249.3643" x="605.24" y="28.6406"/><ellipse cx="625.24" cy="76.5625" fill="#ADD1B2" rx="16" ry="16" style="stroke:#181818;stroke-width:1;"/><path d="M630.5681,86.1875 Q629.5525,86.7031 628.4119,86.9688 Q627.2869,87.2344 626.0525,87.2344 Q621.6306,87.2344 619.3025,84.3281 Q616.9744,81.4063 616.9744,75.9063 Q616.9744,70.375 619.3025,67.4688 Q621.6306,64.5469 626.0525,64.5469 Q627.2869,64.5469 628.4275,64.8125 Q629.5838,65.0781 630.5681,65.5938 L630.5681,70.4063 Q629.4588,69.375 628.4119,68.9063 Q627.365,68.4219 626.2556,68.4219 Q623.8806,68.4219 622.6619,70.3125 Q621.4588,72.1875 621.4588,75.9063 Q621.4588,79.5938 622.6619,81.4844 Q623.8806,83.3594 626.2556,83.3594 Q627.365,83.3594 628.4119,82.8906 Q629.4588,82.4063 630.5681,81.375 L630.5681,86.1875 Z " fill="#EEEEEE"/><text fill="#EEEEEE" font-family="sans-serif" font-size="30" font-style="italic" lengthAdjust="spacing" textLength="203.3643" x="646.24" y="65.4873">&#171;entry-point&#187;</text><text fill="#EEEEEE" font-family="sans-serif" font-size="30" lengthAdjust="spacing" textLength="78.8672" x="708.4885" y="108.4092">Stork</text></g><!--class ServiceDiscovery--><g class="entity" data-qualified-name="ServiceDiscovery" data-source-line="112" id="ent0002"><rect fill="#1A618C" height="52.9219" rx="2" ry="2" style="stroke:#EEEEEE;stroke-width:0.5;" width="309.0869" x="204.38" y="385.3206"/><ellipse cx="224.38" cy="411.7816" fill="#B4A7E5" rx="16" ry="16" style="stroke:#181818;stroke-width:1;"/><path d="M217.8956,403.7191 L217.8956,399.9066 L230.9269,399.9066 L230.9269,403.7191 L226.5675,403.7191 L226.5675,417.9691 L230.9269,417.9691 L230.9269,421.7816 L217.8956,421.7816 L217.8956,417.9691 L222.255,417.9691 L222.255,403.7191 L217.8956,403.7191 Z " fill="#EEEEEE"/><text fill="#EEEEEE" font-family="sans-serif" font-size="30" font-style="italic" lengthAdjust="spacing" textLength="259.0869" x="247.38" y="422.1673">ServiceDiscovery</text></g><!--class ServiceInstance--><g class="entity" data-qualified-name="ServiceInstance" data-source-line="113" id="ent0003"><rect fill="#1A618C" height="52.9219" rx="2" ry="2" style="stroke:#EEEEEE;stroke-width:0.5;" width="288.4766" x="585.68" y="385.3206"/><ellipse cx="605.68" cy="411.7816" fill="#B4A7E5" rx="16" ry="16" style="stroke:#181818;stroke-width:1;"/><path d="M599.1956,403.7191 L599.1956,399.9066 L612.2269,399.9066 L612.2269,403.7191 L607.8675,403.7191 L607.8675,417.9691 L612.2269,417.9691 L612.2269,421.7816 L599.1956,421.7816 L599.1956,417.9691 L603.555,417.9691 L603.555,403.7191 L599.1956,403.7191 Z " fill="#EEEEEE"/><text fill="#EEEEEE" font-family="sans-serif" font-size="30" font-style="italic" lengthAdjust="spacing" textLength="238.4766" x="628.68" y="422.1673">ServiceInstance</text></g><!--class LoadBalancer--><g class="entity" data-qualified-name="LoadBalancer" data-source-line="114" id="ent0004"><rect fill="#1A618C" height="52.9219" rx="2" ry="2" style="stroke:#EEEEEE;stroke-width:0.5;" width="254.4775" x="1224.68" y="385.3206"/><ellipse cx="1244.68" cy="411.7816" fill="#B4A7E5" rx="16" ry="16" style="stroke:#181818;stroke-width:1;"/><path d="M1238.1956,403.7191 L1238.1956,399.9066 L1251.2269,399.9066 L1251.2269,403.7191 L1246.8675,403.7191 L1246.8675,417.9691 L1251.2269,417.9691 L1251.2269,421.7816 L1238.1956,421.7816 L1238.1956,417.9691 L1242.555,417.9691 L1242.555,403.7191 L1238.1956,403.7191 Z " fill="#EEEEEE"/><text fill="#EEEEEE" font-family="sans-serif" font-size="30" font-style="italic" lengthAdjust="spacing" textLength="204.4775" x="1267.68" y="422.1673">LoadBalancer</text></g><!--class Service--><g class="entity" data-qualified-name="Service" data-source-line="115" id="ent0005"><rect fill="#1A618C" height="95.8438" rx="2" ry="2" style="stroke:#EEEEEE;stroke-width:0.5;" width="186.8301" x="636.51" y="185.4806"/><ellipse cx="656.51" cy="233.4025" fill="#ADD1B2" rx="16" ry="16" style="stroke:#181818;stroke-width:1;"/><path d="M661.8381,243.0275 Q660.8225,243.5431 659.6819,243.8088 Q658.5569,244.0744 657.3225,244.0744 Q652.9006,244.0744 650.5725,241.1681 Q648.2444,238.2463 648.2444,232.7463 Q648.2444,227.215 650.5725,224.3088 Q652.9006,221.3869 657.3225,221.3869 Q658.5569,221.3869 659.6975,221.6525 Q660.8538,221.9181 661.8381,222.4338 L661.8381,227.2463 Q660.7288,226.215 659.6819,225.7463 Q658.635,225.2619 657.5256,225.2619 Q655.1506,225.2619 653.9319,227.1525 Q652.7288,229.0275 652.7288,232.7463 Q652.7288,236.4338 653.9319,238.3244 Q655.1506,240.1994 657.5256,240.1994 Q658.635,240.1994 659.6819,239.7306 Q660.7288,239.2463 661.8381,238.215 L661.8381,243.0275 Z " fill="#EEEEEE"/><text fill="#EEEEEE" font-family="sans-serif" font-size="30" font-style="italic" lengthAdjust="spacing" textLength="140.8301" x="677.51" y="222.3273">&#171;named&#187;</text><text fill="#EEEEEE" font-family="sans-serif" font-size="30" lengthAdjust="spacing" textLength="110.874" x="692.488" y="265.2492">Service</text></g><!--class Kubernetes--><g class="entity" data-qualified-name="Kubernetes" data-source-line="123" id="ent0010"><rect fill="#1A618C" height="52.9219" rx="2" ry="2" style="stroke:#EEEEEE;stroke-width:0.5;" width="221.8408" x="7" y="520.7106"/><ellipse cx="27" cy="547.1716" fill="#ADD1B2" rx="16" ry="16" style="stroke:#181818;stroke-width:1;"/><path d="M32.3281,556.7966 Q31.3125,557.3122 30.1719,557.5778 Q29.0469,557.8434 27.8125,557.8434 Q23.3906,557.8434 21.0625,554.9372 Q18.7344,552.0153 18.7344,546.5153 Q18.7344,540.9841 21.0625,538.0778 Q23.3906,535.1559 27.8125,535.1559 Q29.0469,535.1559 30.1875,535.4216 Q31.3438,535.6872 32.3281,536.2028 L32.3281,541.0153 Q31.2188,539.9841 30.1719,539.5153 Q29.125,539.0309 28.0156,539.0309 Q25.6406,539.0309 24.4219,540.9216 Q23.2188,542.7966 23.2188,546.5153 Q23.2188,550.2028 24.4219,552.0934 Q25.6406,553.9684 28.0156,553.9684 Q29.125,553.9684 30.1719,553.4997 Q31.2188,553.0153 32.3281,551.9841 L32.3281,556.7966 Z " fill="#EEEEEE"/><text fill="#EEEEEE" font-family="sans-serif" font-size="30" lengthAdjust="spacing" textLength="171.8408" x="50" y="557.5573">Kubernetes</text></g><!--class Consul--><g class="entity" data-qualified-name="Consul" data-source-line="124" id="ent0012"><rect fill="#1A618C" height="52.9219" rx="2" ry="2" style="stroke:#EEEEEE;stroke-width:0.5;" width="151.2939" x="264.27" y="520.7106"/><ellipse cx="284.27" cy="547.1716" fill="#ADD1B2" rx="16" ry="16" style="stroke:#181818;stroke-width:1;"/><path d="M289.5981,556.7966 Q288.5825,557.3122 287.4419,557.5778 Q286.3169,557.8434 285.0825,557.8434 Q280.6606,557.8434 278.3325,554.9372 Q276.0044,552.0153 276.0044,546.5153 Q276.0044,540.9841 278.3325,538.0778 Q280.6606,535.1559 285.0825,535.1559 Q286.3169,535.1559 287.4575,535.4216 Q288.6138,535.6872 289.5981,536.2028 L289.5981,541.0153 Q288.4888,539.9841 287.4419,539.5153 Q286.395,539.0309 285.2856,539.0309 Q282.9106,539.0309 281.6919,540.9216 Q280.4888,542.7966 280.4888,546.5153 Q280.4888,550.2028 281.6919,552.0934 Q282.9106,553.9684 285.2856,553.9684 Q286.395,553.9684 287.4419,553.4997 Q288.4888,553.0153 289.5981,551.9841 L289.5981,556.7966 Z " fill="#EEEEEE"/><text fill="#EEEEEE" font-family="sans-serif" font-size="30" lengthAdjust="spacing" textLength="101.2939" x="307.27" y="557.5573">Consul</text></g><!--class Custom Service Discovery--><g class="entity" data-qualified-name="Custom Service Discovery" data-source-line="125" id="ent0014"><rect fill="#1A618C" height="52.9219" rx="2" ry="2" style="stroke:#EEEEEE;stroke-width:0.5;" width="443.0908" x="450.38" y="520.7106"/><ellipse cx="470.38" cy="547.1716" fill="#ADD1B2" rx="16" ry="16" style="stroke:#181818;stroke-width:1;"/><path d="M475.7081,556.7966 Q474.6925,557.3122 473.5519,557.5778 Q472.4269,557.8434 471.1925,557.8434 Q466.7706,557.8434 464.4425,554.9372 Q462.1144,552.0153 462.1144,546.5153 Q462.1144,540.9841 464.4425,538.0778 Q466.7706,535.1559 471.1925,535.1559 Q472.4269,535.1559 473.5675,535.4216 Q474.7238,535.6872 475.7081,536.2028 L475.7081,541.0153 Q474.5988,539.9841 473.5519,539.5153 Q472.505,539.0309 471.3956,539.0309 Q469.0206,539.0309 467.8019,540.9216 Q466.5988,542.7966 466.5988,546.5153 Q466.5988,550.2028 467.8019,552.0934 Q469.0206,553.9684 471.3956,553.9684 Q472.505,553.9684 473.5519,553.4997 Q474.5988,553.0153 475.7081,551.9841 L475.7081,556.7966 Z " fill="#EEEEEE"/><text fill="#EEEEEE" font-family="sans-serif" font-size="30" lengthAdjust="spacing" textLength="393.0908" x="493.38" y="557.5573">Custom Service Discovery</text></g><!--class RoundRobin--><g class="entity" data-qualified-name="RoundRobin" data-source-line="127" id="ent0016"><rect fill="#1A618C" height="95.8438" rx="2" ry="2" style="stroke:#EEEEEE;stroke-width:0.5;" width="231.8604" x="927.99" y="499.2506"/><ellipse cx="947.99" cy="547.1725" fill="#ADD1B2" rx="16" ry="16" style="stroke:#181818;stroke-width:1;"/><path d="M953.3181,556.7975 Q952.3025,557.3131 951.1619,557.5788 Q950.0369,557.8444 948.8025,557.8444 Q944.3806,557.8444 942.0525,554.9381 Q939.7244,552.0163 939.7244,546.5163 Q939.7244,540.985 942.0525,538.0788 Q944.3806,535.1569 948.8025,535.1569 Q950.0369,535.1569 951.1775,535.4225 Q952.3338,535.6881 953.3181,536.2038 L953.3181,541.0163 Q952.2088,539.985 951.1619,539.5163 Q950.115,539.0319 949.0056,539.0319 Q946.6306,539.0319 945.4119,540.9225 Q944.2088,542.7975 944.2088,546.5163 Q944.2088,550.2038 945.4119,552.0944 Q946.6306,553.9694 949.0056,553.9694 Q950.115,553.9694 951.1619,553.5006 Q952.2088,553.0163 953.3181,551.985 L953.3181,556.7975 Z " fill="#EEEEEE"/><text fill="#EEEEEE" font-family="sans-serif" font-size="30" font-style="italic" lengthAdjust="spacing" textLength="142.2656" x="990.7874" y="536.0973">&#171;default&#187;</text><text fill="#EEEEEE" font-family="sans-serif" font-size="30" lengthAdjust="spacing" textLength="181.8604" x="970.99" y="579.0192">RoundRobin</text></g><!--class LeastResponseTime--><g class="entity" data-qualified-name="LeastResponseTime" data-source-line="128" id="ent0018"><rect fill="#1A618C" height="52.9219" rx="2" ry="2" style="stroke:#EEEEEE;stroke-width:0.5;" width="350.7178" x="1194.56" y="520.7106"/><ellipse cx="1214.56" cy="547.1716" fill="#ADD1B2" rx="16" ry="16" style="stroke:#181818;stroke-width:1;"/><path d="M1219.8881,556.7966 Q1218.8725,557.3122 1217.7319,557.5778 Q1216.6069,557.8434 1215.3725,557.8434 Q1210.9506,557.8434 1208.6225,554.9372 Q1206.2944,552.0153 1206.2944,546.5153 Q1206.2944,540.9841 1208.6225,538.0778 Q1210.9506,535.1559 1215.3725,535.1559 Q1216.6069,535.1559 1217.7475,535.4216 Q1218.9038,535.6872 1219.8881,536.2028 L1219.8881,541.0153 Q1218.7788,539.9841 1217.7319,539.5153 Q1216.685,539.0309 1215.5756,539.0309 Q1213.2006,539.0309 1211.9819,540.9216 Q1210.7788,542.7966 1210.7788,546.5153 Q1210.7788,550.2028 1211.9819,552.0934 Q1213.2006,553.9684 1215.5756,553.9684 Q1216.685,553.9684 1217.7319,553.4997 Q1218.7788,553.0153 1219.8881,551.9841 L1219.8881,556.7966 Z " fill="#EEEEEE"/><text fill="#EEEEEE" font-family="sans-serif" font-size="30" lengthAdjust="spacing" textLength="300.7178" x="1237.56" y="557.5573">LeastResponseTime</text></g><!--class Custom Load Balancer--><g class="entity" data-qualified-name="Custom Load Balancer" data-source-line="129" id="ent0020"><rect fill="#1A618C" height="52.9219" rx="2" ry="2" style="stroke:#EEEEEE;stroke-width:0.5;" width="388.4814" x="1580.68" y="520.7106"/><ellipse cx="1600.68" cy="547.1716" fill="#ADD1B2" rx="16" ry="16" style="stroke:#181818;stroke-width:1;"/><path d="M1606.0081,556.7966 Q1604.9925,557.3122 1603.8519,557.5778 Q1602.7269,557.8434 1601.4925,557.8434 Q1597.0706,557.8434 1594.7425,554.9372 Q1592.4144,552.0153 1592.4144,546.5153 Q1592.4144,540.9841 1594.7425,538.0778 Q1597.0706,535.1559 1601.4925,535.1559 Q1602.7269,535.1559 1603.8675,535.4216 Q1605.0238,535.6872 1606.0081,536.2028 L1606.0081,541.0153 Q1604.8988,539.9841 1603.8519,539.5153 Q1602.805,539.0309 1601.6956,539.0309 Q1599.3206,539.0309 1598.1019,540.9216 Q1596.8988,542.7966 1596.8988,546.5153 Q1596.8988,550.2028 1598.1019,552.0934 Q1599.3206,553.9684 1601.6956,553.9684 Q1602.805,553.9684 1603.8519,553.4997 Q1604.8988,553.0153 1606.0081,551.9841 L1606.0081,556.7966 Z " fill="#EEEEEE"/><text fill="#EEEEEE" font-family="sans-serif" font-size="30" lengthAdjust="spacing" textLength="338.4814" x="1623.68" y="557.5573">Custom Load Balancer</text></g><!--link Stork to Service--><g class="link" data-entity-1="ent0001" data-entity-2="ent0005" data-link-type="association" data-source-line="117" id="lnk6"><path codeLine="117" d="M729.92,124.8606 C729.92,143.9806 729.92,166.0106 729.92,185.1306" fill="none" id="Stork-Service" style="stroke:#EEEEEE;stroke-width:3;"/><text fill="#EEEEEE" font-family="sans-serif" font-size="30" font-weight="700" lengthAdjust="spacing" textLength="15.6885" x="709.5598" y="166.591">*</text></g><!--link Service to ServiceDiscovery--><g class="link" data-entity-1="ent0005" data-entity-2="ent0002" data-link-type="association" data-source-line="118" id="lnk7"><path codeLine="118" d="M636.3,278.9106 C565.89,312.3906 471.86,357.0906 413.36,384.9006" fill="none" id="Service-ServiceDiscovery" style="stroke:#EEEEEE;stroke-width:3;"/></g><!--link Service to LoadBalancer--><g class="link" data-entity-1="ent0005" data-entity-2="ent0004" data-link-type="association" data-source-line="119" id="lnk8"><path codeLine="119" d="M823.76,247.4506 C903.19,259.8006 1019.48,281.0006 1117.92,311.3206 C1182.25,331.1406 1252.98,362.6406 1299.65,384.8806" fill="none" id="Service-LoadBalancer" style="stroke:#EEEEEE;stroke-width:3;"/></g><!--link Service to ServiceInstance--><g class="link" data-entity-1="ent0005" data-entity-2="ent0003" data-link-type="association" data-source-line="121" id="lnk9"><path codeLine="121" d="M729.92,281.6706 C729.92,314.9406 729.92,358.1806 729.92,385.2206" fill="none" id="Service-ServiceInstance" style="stroke:#EEEEEE;stroke-width:3;stroke-dasharray:1,3;"/><text fill="#EEEEEE" font-family="sans-serif" font-size="30" font-weight="700" lengthAdjust="spacing" textLength="370.1221" x="734.92" y="344.1673">selectServiceInstance</text></g><!--reverse link ServiceDiscovery to Kubernetes--><g class="link" data-entity-1="ent0002" data-entity-2="ent0010" data-link-type="extension" data-source-line="123" id="lnk11"><path d="M296.4211,447.3767 C253.8511,470.9367 207.07,496.8306 164.54,520.3606" fill="none" id="ServiceDiscovery-backto-Kubernetes" style="stroke:#EEEEEE;stroke-width:3;stroke-dasharray:7,7;"/><polygon fill="none" points="312.17,438.6606,293.5157,442.1271,299.3264,452.6264,312.17,438.6606" style="stroke:#EEEEEE;stroke-width:3;stroke-linejoin:miter;stroke-miterlimit:10;"/></g><!--reverse link ServiceDiscovery to Consul--><g class="link" data-entity-1="ent0002" data-entity-2="ent0012" data-link-type="extension" data-source-line="124" id="lnk13"><path d="M352.7176,456.3202 C349.3476,479.9402 346.93,496.9406 343.57,520.5306" fill="none" id="ServiceDiscovery-backto-Consul" style="stroke:#EEEEEE;stroke-width:3;stroke-dasharray:7,7;"/><polygon fill="none" points="355.26,438.5006,346.7777,455.4727,358.6574,457.1676,355.26,438.5006" style="stroke:#EEEEEE;stroke-width:3;stroke-linejoin:miter;stroke-miterlimit:10;"/></g><!--reverse link ServiceDiscovery to Custom Service Discovery--><g class="link" data-entity-1="ent0002" data-entity-2="ent0014" data-link-type="extension" data-source-line="125" id="lnk15"><path d="M436.1995,445.7164 C491.3995,469.2364 555.87,496.7106 611.1,520.2506" fill="none" id="ServiceDiscovery-backto-Custom Service Discovery" style="stroke:#EEEEEE;stroke-width:3;stroke-dasharray:7,7;"/><polygon fill="none" points="419.64,438.6606,433.8475,451.2362,438.5514,440.1966,419.64,438.6606" style="stroke:#EEEEEE;stroke-width:3;stroke-linejoin:miter;stroke-miterlimit:10;"/></g><!--reverse link LoadBalancer to RoundRobin--><g class="link" data-entity-1="ent0004" data-entity-2="ent0016" data-link-type="extension" data-source-line="127" id="lnk17"><path d="M1275.6531,445.8154 C1236.2931,462.8654 1200.1,478.5306 1153.38,498.7706" fill="none" id="LoadBalancer-backto-RoundRobin" style="stroke:#EEEEEE;stroke-width:3;stroke-dasharray:7,7;"/><polygon fill="none" points="1292.17,438.6606,1273.2681,440.3098,1278.038,451.3211,1292.17,438.6606" style="stroke:#EEEEEE;stroke-width:3;stroke-linejoin:miter;stroke-miterlimit:10;"/></g><!--reverse link LoadBalancer to LeastResponseTime--><g class="link" data-entity-1="ent0004" data-entity-2="ent0018" data-link-type="extension" data-source-line="128" id="lnk19"><path d="M1357.7991,456.3387 C1360.9891,479.9587 1363.28,496.9406 1366.46,520.5306" fill="none" id="LoadBalancer-backto-LeastResponseTime" style="stroke:#EEEEEE;stroke-width:3;stroke-dasharray:7,7;"/><polygon fill="none" points="1355.39,438.5006,1351.8531,457.1417,1363.7451,455.5356,1355.39,438.5006" style="stroke:#EEEEEE;stroke-width:3;stroke-linejoin:miter;stroke-miterlimit:10;"/></g><!--reverse link LoadBalancer to Custom Load Balancer--><g class="link" data-entity-1="ent0004" data-entity-2="ent0020" data-link-type="extension" data-source-line="129" id="lnk21"><path d="M1451.397,444.1532 C1526.027,467.6832 1618.27,496.7706 1692.83,520.2806" fill="none" id="LoadBalancer-backto-Custom Load Balancer" style="stroke:#EEEEEE;stroke-width:3;stroke-dasharray:7,7;"/><polygon fill="none" points="1434.23,438.7406,1449.5928,449.8755,1453.2011,438.4309,1434.23,438.7406" style="stroke:#EEEEEE;stroke-width:3;stroke-linejoin:miter;stroke-miterlimit:10;"/></g><?plantuml-src jLRlRzem4FsUlyA33vEcLUgFYNOJGWg1TbKPL0dID4rJPU8BiN1iPZj5RDh_FYS1uX3ITbF9Hz-xzzvTBkUy8H1H3gX_y_35lHq_U9FHn4VvqpvpEsTNdlEcX0H3Rp8UkFwt3QxTEUjSTgvioBthtRatmnrH-nAVdtwCIiZ47mnzMmUrX_cpWrnFnjCAe0vnVN_ojOhPGfotYFAGfGIGZW7DWOF43Aa5vKiiSQ9G92IQ2Hs_HupEOuqm9uXWkJ2PMY3n278bgGQqeZekEEWZSAH0QyhdQh-KwUTRxsuy309quUnKq0o7YxaKAIUUO4PGIyoL2G7NZWKB6LRgMd0Tq5-0Baxjs3qcn0YY3zQPNp1AKrJbF8Wn4QiC7M6cmAOPG8HJfj5l9zCft9GjTcpnFpLh9gk_LqbbL1nNIh6gaVQ5921VhfMp6As36OTfz9gPLo0OQMPT6kTu3asLFrsONO8zj4QYLE22_0jzvUDucK8eagNWPcgUVHEDT0VT5VrB4tPUxHd16i-mWbUMsviiaPAZ2WZ68DHKSFNgCgMAPm1Ii2Cgz3DABDT7b1XoJVKn1IZN82CSmX4r0lYP0W_X7ajDGxh4N1TaqvY62mvcZzcxMMtWnf6TyQIv6lK1dnQcN55So0Ip_LYjd16DO6HkbKRo7U0_rd5-siYSHm-QoYDs3zrG2_cCWnpIg9L5cpvW9wPcdIQGp40gfxX_0eDVe6xNR42vFbaACqwzdbCELG3oaOOme2hCRkvrFNJBbSRcRLkHaS2aZrbsAhSw1TWeSPm0CHfE8NroWbhlMjkuiyMPuvgq5QieM87lH6WDvCU-kKzcABELjUzvu-ukDItXe44XcYmP9AOTgcwW09kzf5Bs0c3BIvKMoQxsNRprPF8cE_yLySMCycwN5FyOlPwTUA3B8y1A-w3CbQPWIXDu1hzrc8NGDjPgIleB?></g></svg>