<svg xmlns="http://www.w3.org/2000/svg" xmlns:xlink="http://www.w3.org/1999/xlink" contentStyleType="text/css" data-diagram-type="CLASS" height="579px" preserveAspectRatio="none" style="width:1976px;height:579px;" version="1.1" viewBox="0 0 1976 579" width="1976px" zoomAndPan="magnify"><defs/><g><!--class Stork--><g class="entity" data-entity="Stork" data-source-line="111" data-uid="ent0002" id="entity_Stork"><rect fill="#1A618C" height="95.8438" rx="2" ry="2" style="stroke:#EEEEEE;stroke-width:0.5;" width="249.3643" x="605.24" y="7"/><ellipse cx="625.24" cy="54.9219" fill="#ADD1B2" rx="16" ry="16" style="stroke:#181818;stroke-width:1;"/><path d="M630.5681,64.5469 Q629.5525,65.0625 628.4119,65.3281 Q627.2869,65.5938 626.0525,65.5938 Q621.6306,65.5938 619.3025,62.6875 Q616.9744,59.7656 616.9744,54.2656 Q616.9744,48.7344 619.3025,45.8281 Q621.6306,42.9063 626.0525,42.9063 Q627.2869,42.9063 628.4275,43.1719 Q629.5838,43.4375 630.5681,43.9531 L630.5681,48.7656 Q629.4588,47.7344 628.4119,47.2656 Q627.365,46.7813 626.2556,46.7813 Q623.8806,46.7813 622.6619,48.6719 Q621.4588,50.5469 621.4588,54.2656 Q621.4588,57.9531 622.6619,59.8438 Q623.8806,61.7188 626.2556,61.7188 Q627.365,61.7188 628.4119,61.25 Q629.4588,60.7656 630.5681,59.7344 L630.5681,64.5469 Z " fill="#EEEEEE"/><text fill="#EEEEEE" font-family="sans-serif" font-size="30" font-style="italic" lengthAdjust="spacing" textLength="203.3643" x="646.24" y="43.8467">&#171;entry-point&#187;</text><text fill="#EEEEEE" font-family="sans-serif" font-size="30" lengthAdjust="spacing" textLength="78.8672" x="708.4885" y="86.7686">Stork</text></g><!--class ServiceDiscovery--><g class="entity" data-entity="ServiceDiscovery" data-source-line="112" data-uid="ent0003" id="entity_ServiceDiscovery"><rect fill="#1A618C" height="52.9219" rx="2" ry="2" style="stroke:#EEEEEE;stroke-width:0.5;" width="309.0869" x="204.38" y="363.68"/><ellipse cx="224.38" cy="390.1409" fill="#B4A7E5" rx="16" ry="16" style="stroke:#181818;stroke-width:1;"/><path d="M217.8956,382.0784 L217.8956,378.2659 L230.9269,378.2659 L230.9269,382.0784 L226.5675,382.0784 L226.5675,396.3284 L230.9269,396.3284 L230.9269,400.1409 L217.8956,400.1409 L217.8956,396.3284 L222.255,396.3284 L222.255,382.0784 L217.8956,382.0784 Z " fill="#EEEEEE"/><text fill="#EEEEEE" font-family="sans-serif" font-size="30" font-style="italic" lengthAdjust="spacing" textLength="259.0869" x="247.38" y="400.5267">ServiceDiscovery</text></g><!--class ServiceInstance--><g class="entity" data-entity="ServiceInstance" data-source-line="113" data-uid="ent0004" id="entity_ServiceInstance"><rect fill="#1A618C" height="52.9219" rx="2" ry="2" style="stroke:#EEEEEE;stroke-width:0.5;" width="288.4766" x="585.68" y="363.68"/><ellipse cx="605.68" cy="390.1409" fill="#B4A7E5" rx="16" ry="16" style="stroke:#181818;stroke-width:1;"/><path d="M599.1956,382.0784 L599.1956,378.2659 L612.2269,378.2659 L612.2269,382.0784 L607.8675,382.0784 L607.8675,396.3284 L612.2269,396.3284 L612.2269,400.1409 L599.1956,400.1409 L599.1956,396.3284 L603.555,396.3284 L603.555,382.0784 L599.1956,382.0784 Z " fill="#EEEEEE"/><text fill="#EEEEEE" font-family="sans-serif" font-size="30" font-style="italic" lengthAdjust="spacing" textLength="238.4766" x="628.68" y="400.5267">ServiceInstance</text></g><!--class LoadBalancer--><g class="entity" data-entity="LoadBalancer" data-source-line="114" data-uid="ent0005" id="entity_LoadBalancer"><rect fill="#1A618C" height="52.9219" rx="2" ry="2" style="stroke:#EEEEEE;stroke-width:0.5;" width="254.4775" x="1224.68" y="363.68"/><ellipse cx="1244.68" cy="390.1409" fill="#B4A7E5" rx="16" ry="16" style="stroke:#181818;stroke-width:1;"/><path d="M1238.1956,382.0784 L1238.1956,378.2659 L1251.2269,378.2659 L1251.2269,382.0784 L1246.8675,382.0784 L1246.8675,396.3284 L1251.2269,396.3284 L1251.2269,400.1409 L1238.1956,400.1409 L1238.1956,396.3284 L1242.555,396.3284 L1242.555,382.0784 L1238.1956,382.0784 Z " fill="#EEEEEE"/><text fill="#EEEEEE" font-family="sans-serif" font-size="30" font-style="italic" lengthAdjust="spacing" textLength="204.4775" x="1267.68" y="400.5267">LoadBalancer</text></g><!--class Service--><g class="entity" data-entity="Service" data-source-line="115" data-uid="ent0006" id="entity_Service"><rect fill="#1A618C" height="95.8438" rx="2" ry="2" style="stroke:#EEEEEE;stroke-width:0.5;" width="186.8301" x="636.51" y="163.84"/><ellipse cx="656.51" cy="211.7619" fill="#ADD1B2" rx="16" ry="16" style="stroke:#181818;stroke-width:1;"/><path d="M661.8381,221.3869 Q660.8225,221.9025 659.6819,222.1681 Q658.5569,222.4338 657.3225,222.4338 Q652.9006,222.4338 650.5725,219.5275 Q648.2444,216.6056 648.2444,211.1056 Q648.2444,205.5744 650.5725,202.6681 Q652.9006,199.7463 657.3225,199.7463 Q658.5569,199.7463 659.6975,200.0119 Q660.8538,200.2775 661.8381,200.7931 L661.8381,205.6056 Q660.7288,204.5744 659.6819,204.1056 Q658.635,203.6213 657.5256,203.6213 Q655.1506,203.6213 653.9319,205.5119 Q652.7288,207.3869 652.7288,211.1056 Q652.7288,214.7931 653.9319,216.6838 Q655.1506,218.5588 657.5256,218.5588 Q658.635,218.5588 659.6819,218.09 Q660.7288,217.6056 661.8381,216.5744 L661.8381,221.3869 Z " fill="#EEEEEE"/><text fill="#EEEEEE" font-family="sans-serif" font-size="30" font-style="italic" lengthAdjust="spacing" textLength="140.8301" x="677.51" y="200.6867">&#171;named&#187;</text><text fill="#EEEEEE" font-family="sans-serif" font-size="30" lengthAdjust="spacing" textLength="110.874" x="692.488" y="243.6086">Service</text></g><!--class Kubernetes--><g class="entity" data-entity="Kubernetes" data-source-line="123" data-uid="ent0011" id="entity_Kubernetes"><rect fill="#1A618C" height="52.9219" rx="2" ry="2" style="stroke:#EEEEEE;stroke-width:0.5;" width="221.8408" x="7" y="499.07"/><ellipse cx="27" cy="525.5309" fill="#ADD1B2" rx="16" ry="16" style="stroke:#181818;stroke-width:1;"/><path d="M32.3281,535.1559 Q31.3125,535.6716 30.1719,535.9372 Q29.0469,536.2028 27.8125,536.2028 Q23.3906,536.2028 21.0625,533.2966 Q18.7344,530.3747 18.7344,524.8747 Q18.7344,519.3434 21.0625,516.4372 Q23.3906,513.5153 27.8125,513.5153 Q29.0469,513.5153 30.1875,513.7809 Q31.3438,514.0466 32.3281,514.5622 L32.3281,519.3747 Q31.2188,518.3434 30.1719,517.8747 Q29.125,517.3903 28.0156,517.3903 Q25.6406,517.3903 24.4219,519.2809 Q23.2188,521.1559 23.2188,524.8747 Q23.2188,528.5622 24.4219,530.4528 Q25.6406,532.3278 28.0156,532.3278 Q29.125,532.3278 30.1719,531.8591 Q31.2188,531.3747 32.3281,530.3434 L32.3281,535.1559 Z " fill="#EEEEEE"/><text fill="#EEEEEE" font-family="sans-serif" font-size="30" lengthAdjust="spacing" textLength="171.8408" x="50" y="535.9167">Kubernetes</text></g><!--class Consul--><g class="entity" data-entity="Consul" data-source-line="124" data-uid="ent0013" id="entity_Consul"><rect fill="#1A618C" height="52.9219" rx="2" ry="2" style="stroke:#EEEEEE;stroke-width:0.5;" width="151.2939" x="264.27" y="499.07"/><ellipse cx="284.27" cy="525.5309" fill="#ADD1B2" rx="16" ry="16" style="stroke:#181818;stroke-width:1;"/><path d="M289.5981,535.1559 Q288.5825,535.6716 287.4419,535.9372 Q286.3169,536.2028 285.0825,536.2028 Q280.6606,536.2028 278.3325,533.2966 Q276.0044,530.3747 276.0044,524.8747 Q276.0044,519.3434 278.3325,516.4372 Q280.6606,513.5153 285.0825,513.5153 Q286.3169,513.5153 287.4575,513.7809 Q288.6138,514.0466 289.5981,514.5622 L289.5981,519.3747 Q288.4888,518.3434 287.4419,517.8747 Q286.395,517.3903 285.2856,517.3903 Q282.9106,517.3903 281.6919,519.2809 Q280.4888,521.1559 280.4888,524.8747 Q280.4888,528.5622 281.6919,530.4528 Q282.9106,532.3278 285.2856,532.3278 Q286.395,532.3278 287.4419,531.8591 Q288.4888,531.3747 289.5981,530.3434 L289.5981,535.1559 Z " fill="#EEEEEE"/><text fill="#EEEEEE" font-family="sans-serif" font-size="30" lengthAdjust="spacing" textLength="101.2939" x="307.27" y="535.9167">Consul</text></g><!--class Custom Service Discovery--><g class="entity" data-entity="Custom Service Discovery" data-source-line="125" data-uid="ent0015" id="entity_Custom Service Discovery"><rect fill="#1A618C" height="52.9219" rx="2" ry="2" style="stroke:#EEEEEE;stroke-width:0.5;" width="443.0908" x="450.38" y="499.07"/><ellipse cx="470.38" cy="525.5309" fill="#ADD1B2" rx="16" ry="16" style="stroke:#181818;stroke-width:1;"/><path d="M475.7081,535.1559 Q474.6925,535.6716 473.5519,535.9372 Q472.4269,536.2028 471.1925,536.2028 Q466.7706,536.2028 464.4425,533.2966 Q462.1144,530.3747 462.1144,524.8747 Q462.1144,519.3434 464.4425,516.4372 Q466.7706,513.5153 471.1925,513.5153 Q472.4269,513.5153 473.5675,513.7809 Q474.7238,514.0466 475.7081,514.5622 L475.7081,519.3747 Q474.5988,518.3434 473.5519,517.8747 Q472.505,517.3903 471.3956,517.3903 Q469.0206,517.3903 467.8019,519.2809 Q466.5988,521.1559 466.5988,524.8747 Q466.5988,528.5622 467.8019,530.4528 Q469.0206,532.3278 471.3956,532.3278 Q472.505,532.3278 473.5519,531.8591 Q474.5988,531.3747 475.7081,530.3434 L475.7081,535.1559 Z " fill="#EEEEEE"/><text fill="#EEEEEE" font-family="sans-serif" font-size="30" lengthAdjust="spacing" textLength="393.0908" x="493.38" y="535.9167">Custom Service Discovery</text></g><!--class RoundRobin--><g class="entity" data-entity="RoundRobin" data-source-line="127" data-uid="ent0017" id="entity_RoundRobin"><rect fill="#1A618C" height="95.8438" rx="2" ry="2" style="stroke:#EEEEEE;stroke-width:0.5;" width="231.8604" x="927.99" y="477.61"/><ellipse cx="947.99" cy="525.5319" fill="#ADD1B2" rx="16" ry="16" style="stroke:#181818;stroke-width:1;"/><path d="M953.3181,535.1569 Q952.3025,535.6725 951.1619,535.9381 Q950.0369,536.2038 948.8025,536.2038 Q944.3806,536.2038 942.0525,533.2975 Q939.7244,530.3756 939.7244,524.8756 Q939.7244,519.3444 942.0525,516.4381 Q944.3806,513.5163 948.8025,513.5163 Q950.0369,513.5163 951.1775,513.7819 Q952.3338,514.0475 953.3181,514.5631 L953.3181,519.3756 Q952.2088,518.3444 951.1619,517.8756 Q950.115,517.3913 949.0056,517.3913 Q946.6306,517.3913 945.4119,519.2819 Q944.2088,521.1569 944.2088,524.8756 Q944.2088,528.5631 945.4119,530.4538 Q946.6306,532.3288 949.0056,532.3288 Q950.115,532.3288 951.1619,531.86 Q952.2088,531.3756 953.3181,530.3444 L953.3181,535.1569 Z " fill="#EEEEEE"/><text fill="#EEEEEE" font-family="sans-serif" font-size="30" font-style="italic" lengthAdjust="spacing" textLength="142.2656" x="990.7874" y="514.4567">&#171;default&#187;</text><text fill="#EEEEEE" font-family="sans-serif" font-size="30" lengthAdjust="spacing" textLength="181.8604" x="970.99" y="557.3786">RoundRobin</text></g><!--class LeastResponseTime--><g class="entity" data-entity="LeastResponseTime" data-source-line="128" data-uid="ent0019" id="entity_LeastResponseTime"><rect fill="#1A618C" height="52.9219" rx="2" ry="2" style="stroke:#EEEEEE;stroke-width:0.5;" width="350.7178" x="1194.56" y="499.07"/><ellipse cx="1214.56" cy="525.5309" fill="#ADD1B2" rx="16" ry="16" style="stroke:#181818;stroke-width:1;"/><path d="M1219.8881,535.1559 Q1218.8725,535.6716 1217.7319,535.9372 Q1216.6069,536.2028 1215.3725,536.2028 Q1210.9506,536.2028 1208.6225,533.2966 Q1206.2944,530.3747 1206.2944,524.8747 Q1206.2944,519.3434 1208.6225,516.4372 Q1210.9506,513.5153 1215.3725,513.5153 Q1216.6069,513.5153 1217.7475,513.7809 Q1218.9038,514.0466 1219.8881,514.5622 L1219.8881,519.3747 Q1218.7788,518.3434 1217.7319,517.8747 Q1216.685,517.3903 1215.5756,517.3903 Q1213.2006,517.3903 1211.9819,519.2809 Q1210.7788,521.1559 1210.7788,524.8747 Q1210.7788,528.5622 1211.9819,530.4528 Q1213.2006,532.3278 1215.5756,532.3278 Q1216.685,532.3278 1217.7319,531.8591 Q1218.7788,531.3747 1219.8881,530.3434 L1219.8881,535.1559 Z " fill="#EEEEEE"/><text fill="#EEEEEE" font-family="sans-serif" font-size="30" lengthAdjust="spacing" textLength="300.7178" x="1237.56" y="535.9167">LeastResponseTime</text></g><!--class Custom Load Balancer--><g class="entity" data-entity="Custom Load Balancer" data-source-line="129" data-uid="ent0021" id="entity_Custom Load Balancer"><rect fill="#1A618C" height="52.9219" rx="2" ry="2" style="stroke:#EEEEEE;stroke-width:0.5;" width="388.4814" x="1580.68" y="499.07"/><ellipse cx="1600.68" cy="525.5309" fill="#ADD1B2" rx="16" ry="16" style="stroke:#181818;stroke-width:1;"/><path d="M1606.0081,535.1559 Q1604.9925,535.6716 1603.8519,535.9372 Q1602.7269,536.2028 1601.4925,536.2028 Q1597.0706,536.2028 1594.7425,533.2966 Q1592.4144,530.3747 1592.4144,524.8747 Q1592.4144,519.3434 1594.7425,516.4372 Q1597.0706,513.5153 1601.4925,513.5153 Q1602.7269,513.5153 1603.8675,513.7809 Q1605.0238,514.0466 1606.0081,514.5622 L1606.0081,519.3747 Q1604.8988,518.3434 1603.8519,517.8747 Q1602.805,517.3903 1601.6956,517.3903 Q1599.3206,517.3903 1598.1019,519.2809 Q1596.8988,521.1559 1596.8988,524.8747 Q1596.8988,528.5622 1598.1019,530.4528 Q1599.3206,532.3278 1601.6956,532.3278 Q1602.805,532.3278 1603.8519,531.8591 Q1604.8988,531.3747 1606.0081,530.3434 L1606.0081,535.1559 Z " fill="#EEEEEE"/><text fill="#EEEEEE" font-family="sans-serif" font-size="30" lengthAdjust="spacing" textLength="338.4814" x="1623.68" y="535.9167">Custom Load Balancer</text></g><!--link Stork to Service--><g class="link" data-entity-1="Stork" data-entity-2="Service" data-source-line="117" data-uid="lnk7" id="link_Stork_Service"><path codeLine="117" d="M729.92,103.22 C729.92,122.34 729.92,144.37 729.92,163.49" fill="none" id="Stork-Service" style="stroke:#EEEEEE;stroke-width:3;"/><text fill="#EEEEEE" font-family="sans-serif" font-size="30" font-weight="bold" lengthAdjust="spacing" textLength="15.6885" x="709.5598" y="144.9503">*</text></g><!--link Service to ServiceDiscovery--><g class="link" data-entity-1="Service" data-entity-2="ServiceDiscovery" data-source-line="118" data-uid="lnk8" id="link_Service_ServiceDiscovery"><path codeLine="118" d="M636.3,257.27 C565.89,290.75 471.86,335.45 413.36,363.26" fill="none" id="Service-ServiceDiscovery" style="stroke:#EEEEEE;stroke-width:3;"/></g><!--link Service to LoadBalancer--><g class="link" data-entity-1="Service" data-entity-2="LoadBalancer" data-source-line="119" data-uid="lnk9" id="link_Service_LoadBalancer"><path codeLine="119" d="M823.76,225.81 C903.19,238.16 1019.48,259.36 1117.92,289.68 C1182.25,309.5 1252.98,341 1299.65,363.24" fill="none" id="Service-LoadBalancer" style="stroke:#EEEEEE;stroke-width:3;"/></g><!--link Service to ServiceInstance--><g class="link" data-entity-1="Service" data-entity-2="ServiceInstance" data-source-line="121" data-uid="lnk10" id="link_Service_ServiceInstance"><path codeLine="121" d="M729.92,260.03 C729.92,293.3 729.92,336.54 729.92,363.58" fill="none" id="Service-ServiceInstance" style="stroke:#EEEEEE;stroke-width:3;stroke-dasharray:1,3;"/><text fill="#EEEEEE" font-family="sans-serif" font-size="30" font-weight="bold" lengthAdjust="spacing" textLength="370.1221" x="734.92" y="322.5267">selectServiceInstance</text></g><!--reverse link ServiceDiscovery to Kubernetes--><g class="link" data-entity-1="ServiceDiscovery" data-entity-2="Kubernetes" data-source-line="123" data-uid="lnk12" id="link_ServiceDiscovery_Kubernetes"><path d="M296.4211,425.7361 C253.8511,449.2961 207.07,475.19 164.54,498.72" fill="none" id="ServiceDiscovery-backto-Kubernetes" style="stroke:#EEEEEE;stroke-width:3;stroke-dasharray:7,7;"/><polygon fill="none" points="312.17,417.02,293.5157,420.4865,299.3264,430.9858,312.17,417.02" style="stroke:#EEEEEE;stroke-width:3;"/></g><!--reverse link ServiceDiscovery to Consul--><g class="link" data-entity-1="ServiceDiscovery" data-entity-2="Consul" data-source-line="124" data-uid="lnk14" id="link_ServiceDiscovery_Consul"><path d="M352.7176,434.6795 C349.3476,458.2995 346.93,475.3 343.57,498.89" fill="none" id="ServiceDiscovery-backto-Consul" style="stroke:#EEEEEE;stroke-width:3;stroke-dasharray:7,7;"/><polygon fill="none" points="355.26,416.86,346.7777,433.8321,358.6574,435.527,355.26,416.86" style="stroke:#EEEEEE;stroke-width:3;"/></g><!--reverse link ServiceDiscovery to Custom Service Discovery--><g class="link" data-entity-1="ServiceDiscovery" data-entity-2="Custom Service Discovery" data-source-line="125" data-uid="lnk16" id="link_ServiceDiscovery_Custom Service Discovery"><path d="M436.1995,424.0758 C491.3995,447.5958 555.87,475.07 611.1,498.61" fill="none" id="ServiceDiscovery-backto-Custom Service Discovery" style="stroke:#EEEEEE;stroke-width:3;stroke-dasharray:7,7;"/><polygon fill="none" points="419.64,417.02,433.8475,429.5956,438.5514,418.556,419.64,417.02" style="stroke:#EEEEEE;stroke-width:3;"/></g><!--reverse link LoadBalancer to RoundRobin--><g class="link" data-entity-1="LoadBalancer" data-entity-2="RoundRobin" data-source-line="127" data-uid="lnk18" id="link_LoadBalancer_RoundRobin"><path d="M1275.6531,424.1748 C1236.2931,441.2248 1200.1,456.89 1153.38,477.13" fill="none" id="LoadBalancer-backto-RoundRobin" style="stroke:#EEEEEE;stroke-width:3;stroke-dasharray:7,7;"/><polygon fill="none" points="1292.17,417.02,1273.2681,418.6692,1278.038,429.6805,1292.17,417.02" style="stroke:#EEEEEE;stroke-width:3;"/></g><!--reverse link LoadBalancer to LeastResponseTime--><g class="link" data-entity-1="LoadBalancer" data-entity-2="LeastResponseTime" data-source-line="128" data-uid="lnk20" id="link_LoadBalancer_LeastResponseTime"><path d="M1357.7991,434.6981 C1360.9891,458.3181 1363.28,475.3 1366.46,498.89" fill="none" id="LoadBalancer-backto-LeastResponseTime" style="stroke:#EEEEEE;stroke-width:3;stroke-dasharray:7,7;"/><polygon fill="none" points="1355.39,416.86,1351.8531,435.5011,1363.7451,433.895,1355.39,416.86" style="stroke:#EEEEEE;stroke-width:3;"/></g><!--reverse link LoadBalancer to Custom Load Balancer--><g class="link" data-entity-1="LoadBalancer" data-entity-2="Custom Load Balancer" data-source-line="129" data-uid="lnk22" id="link_LoadBalancer_Custom Load Balancer"><path d="M1451.397,422.5125 C1526.027,446.0425 1618.27,475.13 1692.83,498.64" fill="none" id="LoadBalancer-backto-Custom Load Balancer" style="stroke:#EEEEEE;stroke-width:3;stroke-dasharray:7,7;"/><polygon fill="none" points="1434.23,417.1,1449.5928,428.2349,1453.2011,416.7902,1434.23,417.1" style="stroke:#EEEEEE;stroke-width:3;"/></g><!--SRC=[jLRlRzem4FsUlyA33vEcLUgFYNOJGWg1TbKPL0dID4rJPU8BiN1iPZj5RDh_FYS1uX3ITbF9Hz-xzzvTBkUy8H1H3gX_y_35lHq_U9FHn4VvqpvpEsTNdlEcX0H3Rp8UkFwt3QxTEUjSTgvioBthtRatmnrH-nAVdtwCIiZ47mnzMmUrX_cpWrnFnjCAe0vnVN_ojOhPGfotYFAGfGIGZW7DWOF43Aa5vKiiSQ9G92IQ2Hs_HupEOuqm9uXWkJ2PMY3n278bgGQqeZekEEWZSAH0QyhdQh-KwUTRxsuy309quUnKq0o7YxaKAIUUO4PGIyoL2G7NZWKB6LRgMd0Tq5-0Baxjs3qcn0YY3zQPNp1AKrJbF8Wn4QiC7M6cmAOPG8HJfj5l9zCft9GjTcpnFpLh9gk_LqbbL1nNIh6gaVQ5921VhfMp6As36OTfz9gPLo0OQMPT6kTu3asLFrsONO8zj4QYLE22_0jzvUDucK8eagNWPcgUVHEDT0VT5VrB4tPUxHd16i-mWbUMsviiaPAZ2WZ68DHKSFNgCgMAPm1Ii2Cgz3DABDT7b1XoJVKn1IZN82CSmX4r0lYP0W_X7ajDGxh4N1TaqvY62mvcZzcxMMtWnf6TyQIv6lK1dnQcN55So0Ip_LYjd16DO6HkbKRo7U0_rd5-siYSHm-QoYDs3zrG2_cCWnpIg9L5cpvW9wPcdIQGp40gfxX_0eDVe6xNR42vFbaACqwzdbCELG3oaOOme2hCRkvrFNJBbSRcRLkHaS2aZrbsAhSw1TWeSPm0CHfE8NroWbhlMjkuiyMPuvgq5QieM87lH6WDvCU-kKzcABELjUzvu-ukDItXe44XcYmP9AOTgcwW09kzf5Bs0c3BIvKMoQxsNRprPF8cE_yLySMCycwN5FyOlPwTUA3B8y1A-w3CbQPWIXDu1hzrc8NGDjPgIleB]--></g></svg>