<svg xmlns="http://www.w3.org/2000/svg" xmlns:xlink="http://www.w3.org/1999/xlink" contentStyleType="text/css" height="307px" preserveAspectRatio="none" style="width:974px;height:307px;background:#FFFFFF;" version="1.1" viewBox="0 0 974 307" width="974px" zoomAndPan="magnify"><defs/><g><line style="stroke:#181818;stroke-width:0.5;stroke-dasharray:5.0,5.0;" x1="51" x2="51" y1="36.2969" y2="162.8281"/><line style="stroke:#A80036;stroke-width:1.0;stroke-dasharray:1.0,4.0;" x1="51" x2="51" y1="162.8281" y2="203.6328"/><line style="stroke:#181818;stroke-width:0.5;stroke-dasharray:5.0,5.0;" x1="51" x2="51" y1="203.6328" y2="271.8984"/><line style="stroke:#181818;stroke-width:0.5;stroke-dasharray:5.0,5.0;" x1="297.2119" x2="297.2119" y1="36.2969" y2="162.8281"/><line style="stroke:#A80036;stroke-width:1.0;stroke-dasharray:1.0,4.0;" x1="297.2119" x2="297.2119" y1="162.8281" y2="203.6328"/><line style="stroke:#181818;stroke-width:0.5;stroke-dasharray:5.0,5.0;" x1="297.2119" x2="297.2119" y1="203.6328" y2="271.8984"/><line style="stroke:#181818;stroke-width:0.5;stroke-dasharray:5.0,5.0;" x1="500.9463" x2="500.9463" y1="36.2969" y2="162.8281"/><line style="stroke:#A80036;stroke-width:1.0;stroke-dasharray:1.0,4.0;" x1="500.9463" x2="500.9463" y1="162.8281" y2="203.6328"/><line style="stroke:#181818;stroke-width:0.5;stroke-dasharray:5.0,5.0;" x1="500.9463" x2="500.9463" y1="203.6328" y2="271.8984"/><line style="stroke:#181818;stroke-width:0.5;stroke-dasharray:5.0,5.0;" x1="617.4385" x2="617.4385" y1="36.2969" y2="162.8281"/><line style="stroke:#A80036;stroke-width:1.0;stroke-dasharray:1.0,4.0;" x1="617.4385" x2="617.4385" y1="162.8281" y2="203.6328"/><line style="stroke:#181818;stroke-width:0.5;stroke-dasharray:5.0,5.0;" x1="617.4385" x2="617.4385" y1="203.6328" y2="271.8984"/><line style="stroke:#181818;stroke-width:0.5;stroke-dasharray:5.0,5.0;" x1="934.9248" x2="934.9248" y1="36.2969" y2="162.8281"/><line style="stroke:#A80036;stroke-width:1.0;stroke-dasharray:1.0,4.0;" x1="934.9248" x2="934.9248" y1="162.8281" y2="203.6328"/><line style="stroke:#181818;stroke-width:0.5;stroke-dasharray:5.0,5.0;" x1="934.9248" x2="934.9248" y1="203.6328" y2="271.8984"/><rect fill="#E2E2F0" height="30.2969" rx="2.5" ry="2.5" style="stroke:#181818;stroke-width:0.5;" width="92.2236" x="5" y="5"/><text fill="#000000" font-family="sans-serif" font-size="14" lengthAdjust="spacing" textLength="78.2236" x="12" y="24.9951">Application</text><rect fill="#E2E2F0" height="30.2969" rx="2.5" ry="2.5" style="stroke:#181818;stroke-width:0.5;" width="92.2236" x="5" y="270.8984"/><text fill="#000000" font-family="sans-serif" font-size="14" lengthAdjust="spacing" textLength="78.2236" x="12" y="290.8936">Application</text><rect fill="#E2E2F0" height="30.2969" rx="2.5" ry="2.5" style="stroke:#181818;stroke-width:0.5;" width="226.7344" x="184.2119" y="5"/><text fill="#000000" font-family="sans-serif" font-size="14" lengthAdjust="spacing" textLength="212.7344" x="191.2119" y="24.9951">ObservableStorkInfrastructure</text><rect fill="#E2E2F0" height="30.2969" rx="2.5" ry="2.5" style="stroke:#181818;stroke-width:0.5;" width="226.7344" x="184.2119" y="270.8984"/><text fill="#000000" font-family="sans-serif" font-size="14" lengthAdjust="spacing" textLength="212.7344" x="191.2119" y="290.8936">ObservableStorkInfrastructure</text><rect fill="#E2E2F0" height="30.2969" rx="2.5" ry="2.5" style="stroke:#181818;stroke-width:0.5;" width="161.4922" x="420.9463" y="5"/><text fill="#000000" font-family="sans-serif" font-size="14" lengthAdjust="spacing" textLength="147.4922" x="427.9463" y="24.9951">ObservationCollector</text><rect fill="#E2E2F0" height="30.2969" rx="2.5" ry="2.5" style="stroke:#181818;stroke-width:0.5;" width="161.4922" x="420.9463" y="270.8984"/><text fill="#000000" font-family="sans-serif" font-size="14" lengthAdjust="spacing" textLength="147.4922" x="427.9463" y="290.8936">ObservationCollector</text><rect fill="#E2E2F0" height="30.2969" rx="2.5" ry="2.5" style="stroke:#181818;stroke-width:0.5;" width="50.8047" x="592.4385" y="5"/><text fill="#000000" font-family="sans-serif" font-size="14" lengthAdjust="spacing" textLength="36.8047" x="599.4385" y="24.9951">Stork</text><rect fill="#E2E2F0" height="30.2969" rx="2.5" ry="2.5" style="stroke:#181818;stroke-width:0.5;" width="50.8047" x="592.4385" y="270.8984"/><text fill="#000000" font-family="sans-serif" font-size="14" lengthAdjust="spacing" textLength="36.8047" x="599.4385" y="290.8936">Stork</text><rect fill="#E2E2F0" height="30.2969" rx="2.5" ry="2.5" style="stroke:#181818;stroke-width:0.5;" width="65.7412" x="902.9248" y="5"/><text fill="#000000" font-family="sans-serif" font-size="14" lengthAdjust="spacing" textLength="51.7412" x="909.9248" y="24.9951">Service</text><rect fill="#E2E2F0" height="30.2969" rx="2.5" ry="2.5" style="stroke:#181818;stroke-width:0.5;" width="65.7412" x="902.9248" y="270.8984"/><text fill="#000000" font-family="sans-serif" font-size="14" lengthAdjust="spacing" textLength="51.7412" x="909.9248" y="290.8936">Service</text><polygon fill="#181818" points="285.5791,63.4297,295.5791,67.4297,285.5791,71.4297,289.5791,67.4297" style="stroke:#181818;stroke-width:1.0;"/><line style="stroke:#181818;stroke-width:1.0;" x1="51.1118" x2="291.5791" y1="67.4297" y2="67.4297"/><text fill="#000000" font-family="sans-serif" font-size="13" font-weight="bold" lengthAdjust="spacing" textLength="20.9282" x="123.6462" y="62.3638">(1)</text><text fill="#000000" font-family="sans-serif" font-size="13" lengthAdjust="spacing" textLength="76.4702" x="148.5745" y="62.3638">instantiates</text><polygon fill="#181818" points="489.6924,92.5625,499.6924,96.5625,489.6924,100.5625,493.6924,96.5625" style="stroke:#181818;stroke-width:1.0;"/><line style="stroke:#181818;stroke-width:1.0;" x1="297.5791" x2="495.6924" y1="96.5625" y2="96.5625"/><text fill="#000000" font-family="sans-serif" font-size="13" font-weight="bold" lengthAdjust="spacing" textLength="20.9282" x="348.9365" y="91.4966">(2)</text><text fill="#000000" font-family="sans-serif" font-size="13" lengthAdjust="spacing" textLength="76.4702" x="373.8647" y="91.4966">instantiates</text><polygon fill="#181818" points="308.5791,121.6953,298.5791,125.6953,308.5791,129.6953,304.5791,125.6953" style="stroke:#181818;stroke-width:1.0;"/><line style="stroke:#181818;stroke-width:1.0;" x1="302.5791" x2="500.6924" y1="125.6953" y2="125.6953"/><text fill="#000000" font-family="sans-serif" font-size="13" font-weight="bold" lengthAdjust="spacing" textLength="20.9282" x="318.6931" y="120.6294">(3)</text><text fill="#000000" font-family="sans-serif" font-size="13" lengthAdjust="spacing" textLength="136.957" x="343.6213" y="120.6294">ObservationCollector</text><polygon fill="#181818" points="62.1118,150.8281,52.1118,154.8281,62.1118,158.8281,58.1118,154.8281" style="stroke:#181818;stroke-width:1.0;"/><line style="stroke:#181818;stroke-width:1.0;" x1="56.1118" x2="296.5791" y1="154.8281" y2="154.8281"/><text fill="#000000" font-family="sans-serif" font-size="13" font-weight="bold" lengthAdjust="spacing" textLength="20.9282" x="63.1118" y="149.7622">(4)</text><text fill="#000000" font-family="sans-serif" font-size="13" lengthAdjust="spacing" textLength="197.5391" x="88.04" y="149.7622">ObservableStorkInfrastructure</text><text fill="#000000" font-family="sans-serif" font-size="11" lengthAdjust="spacing" textLength="3.4966" x="491.7053" y="187.0386">&#160;</text><polygon fill="#181818" points="605.8408,220.7656,615.8408,224.7656,605.8408,228.7656,609.8408,224.7656" style="stroke:#181818;stroke-width:1.0;"/><line style="stroke:#181818;stroke-width:1.0;" x1="51.1118" x2="611.8408" y1="224.7656" y2="224.7656"/><text fill="#000000" font-family="sans-serif" font-size="13" font-weight="bold" lengthAdjust="spacing" textLength="20.9282" x="209.3064" y="219.6997">(5)</text><text fill="#000000" font-family="sans-serif" font-size="13" lengthAdjust="spacing" textLength="225.4116" x="234.2346" y="219.6997">initialize(observableInfrastructure)</text><polygon fill="#181818" points="923.7954,249.8984,933.7954,253.8984,923.7954,257.8984,927.7954,253.8984" style="stroke:#181818;stroke-width:1.0;"/><line style="stroke:#181818;stroke-width:1.0;" x1="617.8408" x2="929.7954" y1="253.8984" y2="253.8984"/><text fill="#000000" font-family="sans-serif" font-size="13" font-weight="bold" lengthAdjust="spacing" textLength="20.9282" x="629.8408" y="248.8325">(6)</text><text fill="#000000" font-family="sans-serif" font-size="13" lengthAdjust="spacing" textLength="269.0264" x="654.769" y="248.8325">instantiates (..., ObservationCollector, ...)</text><!--SRC=[XP2nRiCm34HtVWMHoGPIexDH10WwTIWwv0jeWGs8A9GhKHtozPKTe8rQDnwu4E_kU4mdqP4YdJ7nHsPr_CefqP7tNewAZjKu0cKBciy3Hzmy3RlciTq0GD6PE1b93VVZwCMHIT1g_pOaZfyqU3vOYASNVO-KB6PdEV8IEJay1-_P5Ru2PeDwKmJY6E0c7HzszqEnHz5aHIzadE0-_EDM7VQFISsiNT8lTruzwAPjl_9WwBeEo_nvqGpFBQHKy7BX9dmxrIOjNE59TNtuh_ROb8JjOfdj5Dv-0G00]--></g></svg>