<svg xmlns="http://www.w3.org/2000/svg" xmlns:xlink="http://www.w3.org/1999/xlink" contentStyleType="text/css" height="909px" preserveAspectRatio="none" style="width:804px;height:909px;background:#FFFFFF;" version="1.1" viewBox="0 0 804 909" width="804px" zoomAndPan="magnify"><defs/><g><line style="stroke:#181818;stroke-width:0.5;stroke-dasharray:5.0,5.0;" x1="37" x2="37" y1="36.2969" y2="175.8281"/><line style="stroke:#A80036;stroke-width:1.0;stroke-dasharray:1.0,4.0;" x1="37" x2="37" y1="175.8281" y2="216.6328"/><line style="stroke:#181818;stroke-width:0.5;stroke-dasharray:5.0,5.0;" x1="37" x2="37" y1="216.6328" y2="333.2969"/><line style="stroke:#A80036;stroke-width:1.0;stroke-dasharray:1.0,4.0;" x1="37" x2="37" y1="333.2969" y2="374.1016"/><line style="stroke:#181818;stroke-width:0.5;stroke-dasharray:5.0,5.0;" x1="37" x2="37" y1="374.1016" y2="490.7656"/><line style="stroke:#A80036;stroke-width:1.0;stroke-dasharray:1.0,4.0;" x1="37" x2="37" y1="490.7656" y2="531.5703"/><line style="stroke:#181818;stroke-width:0.5;stroke-dasharray:5.0,5.0;" x1="37" x2="37" y1="531.5703" y2="692.5"/><line style="stroke:#A80036;stroke-width:1.0;stroke-dasharray:1.0,4.0;" x1="37" x2="37" y1="692.5" y2="733.3047"/><line style="stroke:#181818;stroke-width:0.5;stroke-dasharray:5.0,5.0;" x1="37" x2="37" y1="733.3047" y2="873.9688"/><line style="stroke:#181818;stroke-width:0.5;stroke-dasharray:5.0,5.0;" x1="346.0718" x2="346.0718" y1="36.2969" y2="175.8281"/><line style="stroke:#A80036;stroke-width:1.0;stroke-dasharray:1.0,4.0;" x1="346.0718" x2="346.0718" y1="175.8281" y2="216.6328"/><line style="stroke:#181818;stroke-width:0.5;stroke-dasharray:5.0,5.0;" x1="346.0718" x2="346.0718" y1="216.6328" y2="333.2969"/><line style="stroke:#A80036;stroke-width:1.0;stroke-dasharray:1.0,4.0;" x1="346.0718" x2="346.0718" y1="333.2969" y2="374.1016"/><line style="stroke:#181818;stroke-width:0.5;stroke-dasharray:5.0,5.0;" x1="346.0718" x2="346.0718" y1="374.1016" y2="490.7656"/><line style="stroke:#A80036;stroke-width:1.0;stroke-dasharray:1.0,4.0;" x1="346.0718" x2="346.0718" y1="490.7656" y2="531.5703"/><line style="stroke:#181818;stroke-width:0.5;stroke-dasharray:5.0,5.0;" x1="346.0718" x2="346.0718" y1="531.5703" y2="692.5"/><line style="stroke:#A80036;stroke-width:1.0;stroke-dasharray:1.0,4.0;" x1="346.0718" x2="346.0718" y1="692.5" y2="733.3047"/><line style="stroke:#181818;stroke-width:0.5;stroke-dasharray:5.0,5.0;" x1="346.0718" x2="346.0718" y1="733.3047" y2="873.9688"/><line style="stroke:#181818;stroke-width:0.5;stroke-dasharray:5.0,5.0;" x1="505.564" x2="505.564" y1="36.2969" y2="175.8281"/><line style="stroke:#A80036;stroke-width:1.0;stroke-dasharray:1.0,4.0;" x1="505.564" x2="505.564" y1="175.8281" y2="216.6328"/><line style="stroke:#181818;stroke-width:0.5;stroke-dasharray:5.0,5.0;" x1="505.564" x2="505.564" y1="216.6328" y2="333.2969"/><line style="stroke:#A80036;stroke-width:1.0;stroke-dasharray:1.0,4.0;" x1="505.564" x2="505.564" y1="333.2969" y2="374.1016"/><line style="stroke:#181818;stroke-width:0.5;stroke-dasharray:5.0,5.0;" x1="505.564" x2="505.564" y1="374.1016" y2="490.7656"/><line style="stroke:#A80036;stroke-width:1.0;stroke-dasharray:1.0,4.0;" x1="505.564" x2="505.564" y1="490.7656" y2="531.5703"/><line style="stroke:#181818;stroke-width:0.5;stroke-dasharray:5.0,5.0;" x1="505.564" x2="505.564" y1="531.5703" y2="692.5"/><line style="stroke:#A80036;stroke-width:1.0;stroke-dasharray:1.0,4.0;" x1="505.564" x2="505.564" y1="692.5" y2="733.3047"/><line style="stroke:#181818;stroke-width:0.5;stroke-dasharray:5.0,5.0;" x1="505.564" x2="505.564" y1="733.3047" y2="873.9688"/><line style="stroke:#181818;stroke-width:0.5;stroke-dasharray:5.0,5.0;" x1="725.7085" x2="725.7085" y1="36.2969" y2="175.8281"/><line style="stroke:#A80036;stroke-width:1.0;stroke-dasharray:1.0,4.0;" x1="725.7085" x2="725.7085" y1="175.8281" y2="216.6328"/><line style="stroke:#181818;stroke-width:0.5;stroke-dasharray:5.0,5.0;" x1="725.7085" x2="725.7085" y1="216.6328" y2="333.2969"/><line style="stroke:#A80036;stroke-width:1.0;stroke-dasharray:1.0,4.0;" x1="725.7085" x2="725.7085" y1="333.2969" y2="374.1016"/><line style="stroke:#181818;stroke-width:0.5;stroke-dasharray:5.0,5.0;" x1="725.7085" x2="725.7085" y1="374.1016" y2="490.7656"/><line style="stroke:#A80036;stroke-width:1.0;stroke-dasharray:1.0,4.0;" x1="725.7085" x2="725.7085" y1="490.7656" y2="531.5703"/><line style="stroke:#181818;stroke-width:0.5;stroke-dasharray:5.0,5.0;" x1="725.7085" x2="725.7085" y1="531.5703" y2="692.5"/><line style="stroke:#A80036;stroke-width:1.0;stroke-dasharray:1.0,4.0;" x1="725.7085" x2="725.7085" y1="692.5" y2="733.3047"/><line style="stroke:#181818;stroke-width:0.5;stroke-dasharray:5.0,5.0;" x1="725.7085" x2="725.7085" y1="733.3047" y2="873.9688"/><rect fill="#E2E2F0" height="30.2969" rx="2.5" ry="2.5" style="stroke:#181818;stroke-width:0.5;" width="65.7412" x="5" y="5"/><text fill="#000000" font-family="sans-serif" font-size="14" lengthAdjust="spacing" textLength="51.7412" x="12" y="24.9951">Service</text><rect fill="#E2E2F0" height="30.2969" rx="2.5" ry="2.5" style="stroke:#181818;stroke-width:0.5;" width="65.7412" x="5" y="872.9688"/><text fill="#000000" font-family="sans-serif" font-size="14" lengthAdjust="spacing" textLength="51.7412" x="12" y="892.9639">Service</text><rect fill="#E2E2F0" height="30.2969" rx="2.5" ry="2.5" style="stroke:#181818;stroke-width:0.5;" width="161.4922" x="266.0718" y="5"/><text fill="#000000" font-family="sans-serif" font-size="14" lengthAdjust="spacing" textLength="147.4922" x="273.0718" y="24.9951">ObservationCollector</text><rect fill="#E2E2F0" height="30.2969" rx="2.5" ry="2.5" style="stroke:#181818;stroke-width:0.5;" width="161.4922" x="266.0718" y="872.9688"/><text fill="#000000" font-family="sans-serif" font-size="14" lengthAdjust="spacing" textLength="147.4922" x="273.0718" y="892.9639">ObservationCollector</text><rect fill="#E2E2F0" height="30.2969" rx="2.5" ry="2.5" style="stroke:#181818;stroke-width:0.5;" width="136.0557" x="437.564" y="5"/><text fill="#000000" font-family="sans-serif" font-size="14" lengthAdjust="spacing" textLength="122.0557" x="444.564" y="24.9951">StorkObservation</text><rect fill="#E2E2F0" height="30.2969" rx="2.5" ry="2.5" style="stroke:#181818;stroke-width:0.5;" width="136.0557" x="437.564" y="872.9688"/><text fill="#000000" font-family="sans-serif" font-size="14" lengthAdjust="spacing" textLength="122.0557" x="444.564" y="892.9639">StorkObservation</text><rect fill="#E2E2F0" height="30.2969" rx="2.5" ry="2.5" style="stroke:#181818;stroke-width:0.5;" width="146.0361" x="652.7085" y="5"/><text fill="#000000" font-family="sans-serif" font-size="14" lengthAdjust="spacing" textLength="132.0361" x="659.7085" y="24.9951">StorkEventHandler</text><rect fill="#E2E2F0" height="30.2969" rx="2.5" ry="2.5" style="stroke:#181818;stroke-width:0.5;" width="146.0361" x="652.7085" y="872.9688"/><text fill="#000000" font-family="sans-serif" font-size="14" lengthAdjust="spacing" textLength="132.0361" x="659.7085" y="892.9639">StorkEventHandler</text><polygon fill="#181818" points="334.8179,63.4297,344.8179,67.4297,334.8179,71.4297,338.8179,67.4297" style="stroke:#181818;stroke-width:1.0;"/><line style="stroke:#181818;stroke-width:1.0;" x1="37.8706" x2="340.8179" y1="67.4297" y2="67.4297"/><text fill="#000000" font-family="sans-serif" font-size="13" font-weight="bold" lengthAdjust="spacing" textLength="20.9282" x="49.8706" y="62.3638">(1)</text><text fill="#000000" font-family="sans-serif" font-size="13" lengthAdjust="spacing" textLength="260.019" x="74.7988" y="62.3638">create("serviceName", sd type, ss type)</text><polygon fill="#181818" points="493.5918,92.5625,503.5918,96.5625,493.5918,100.5625,497.5918,96.5625" style="stroke:#181818;stroke-width:1.0;"/><line style="stroke:#181818;stroke-width:1.0;" x1="346.8179" x2="499.5918" y1="96.5625" y2="96.5625"/><text fill="#000000" font-family="sans-serif" font-size="13" font-weight="bold" lengthAdjust="spacing" textLength="20.9282" x="375.5056" y="91.4966">(2)</text><text fill="#000000" font-family="sans-serif" font-size="13" lengthAdjust="spacing" textLength="76.4702" x="400.4338" y="91.4966">instantiates</text><line style="stroke:#181818;stroke-width:1.0;" x1="505.5918" x2="547.5918" y1="125.6953" y2="125.6953"/><line style="stroke:#181818;stroke-width:1.0;" x1="547.5918" x2="547.5918" y1="125.6953" y2="138.6953"/><line style="stroke:#181818;stroke-width:1.0;" x1="506.5918" x2="547.5918" y1="138.6953" y2="138.6953"/><polygon fill="#181818" points="516.5918,134.6953,506.5918,138.6953,516.5918,142.6953,512.5918,138.6953" style="stroke:#181818;stroke-width:1.0;"/><text fill="#000000" font-family="sans-serif" font-size="13" font-weight="bold" lengthAdjust="spacing" textLength="20.9282" x="512.5918" y="120.6294">(3)</text><text fill="#000000" font-family="sans-serif" font-size="13" lengthAdjust="spacing" textLength="128.7939" x="537.52" y="120.6294">Registers start time</text><polygon fill="#181818" points="48.8706,163.8281,38.8706,167.8281,48.8706,171.8281,44.8706,167.8281" style="stroke:#181818;stroke-width:1.0;"/><line style="stroke:#181818;stroke-width:1.0;" x1="42.8706" x2="345.8179" y1="167.8281" y2="167.8281"/><text fill="#000000" font-family="sans-serif" font-size="13" font-weight="bold" lengthAdjust="spacing" textLength="20.9282" x="123.2114" y="162.7622">(4)</text><text fill="#000000" font-family="sans-serif" font-size="13" lengthAdjust="spacing" textLength="113.3374" x="148.1396" y="162.7622">StorkObservation</text><text fill="#000000" font-family="sans-serif" font-size="11" lengthAdjust="spacing" textLength="3.4966" x="380.0503" y="200.0386">&#160;</text><polygon fill="#181818" points="493.5918,233.7656,503.5918,237.7656,493.5918,241.7656,497.5918,237.7656" style="stroke:#181818;stroke-width:1.0;"/><line style="stroke:#181818;stroke-width:1.0;" x1="37.8706" x2="499.5918" y1="237.7656" y2="237.7656"/><text fill="#000000" font-family="sans-serif" font-size="13" font-weight="bold" lengthAdjust="spacing" textLength="20.9282" x="89.8735" y="232.6997">(5)</text><text fill="#000000" font-family="sans-serif" font-size="13" lengthAdjust="spacing" textLength="338.7871" x="114.8018" y="232.6997">onServiceDiscoverySuccess(List&lt;ServiceInstance&gt;)</text><line style="stroke:#181818;stroke-width:1.0;" x1="505.5918" x2="547.5918" y1="312.2969" y2="312.2969"/><line style="stroke:#181818;stroke-width:1.0;" x1="547.5918" x2="547.5918" y1="312.2969" y2="325.2969"/><line style="stroke:#181818;stroke-width:1.0;" x1="506.5918" x2="547.5918" y1="325.2969" y2="325.2969"/><polygon fill="#181818" points="516.5918,321.2969,506.5918,325.2969,516.5918,329.2969,512.5918,325.2969" style="stroke:#181818;stroke-width:1.0;"/><text fill="#000000" font-family="sans-serif" font-size="13" font-weight="bold" lengthAdjust="spacing" textLength="20.9282" x="512.5918" y="284.5317">(6)</text><text fill="#000000" font-family="sans-serif" font-size="13" lengthAdjust="spacing" textLength="140.2007" x="551.2532" y="261.8325">Registers end service</text><text fill="#000000" font-family="sans-serif" font-size="13" lengthAdjust="spacing" textLength="100.1025" x="571.3022" y="276.9653">discovery time.</text><text fill="#000000" font-family="sans-serif" font-size="13" lengthAdjust="spacing" textLength="167.667" x="537.52" y="292.0981">Registers instances count</text><text fill="#000000" font-family="sans-serif" font-size="13" lengthAdjust="spacing" textLength="4.1323" x="619.2874" y="307.231">&#160;</text><text fill="#000000" font-family="sans-serif" font-size="11" lengthAdjust="spacing" textLength="3.4966" x="380.0503" y="357.5073">&#160;</text><polygon fill="#181818" points="493.5918,391.2344,503.5918,395.2344,493.5918,399.2344,497.5918,395.2344" style="stroke:#181818;stroke-width:1.0;"/><line style="stroke:#181818;stroke-width:1.0;" x1="37.8706" x2="499.5918" y1="395.2344" y2="395.2344"/><text fill="#000000" font-family="sans-serif" font-size="13" font-weight="bold" lengthAdjust="spacing" textLength="20.9282" x="133.8691" y="390.1685">(7)</text><text fill="#000000" font-family="sans-serif" font-size="13" lengthAdjust="spacing" textLength="250.7959" x="158.7974" y="390.1685">onServiceDiscoveryFailure(Throwable)</text><line style="stroke:#181818;stroke-width:1.0;" x1="505.5918" x2="547.5918" y1="469.7656" y2="469.7656"/><line style="stroke:#181818;stroke-width:1.0;" x1="547.5918" x2="547.5918" y1="469.7656" y2="482.7656"/><line style="stroke:#181818;stroke-width:1.0;" x1="506.5918" x2="547.5918" y1="482.7656" y2="482.7656"/><polygon fill="#181818" points="516.5918,478.7656,506.5918,482.7656,516.5918,486.7656,512.5918,482.7656" style="stroke:#181818;stroke-width:1.0;"/><text fill="#000000" font-family="sans-serif" font-size="13" font-weight="bold" lengthAdjust="spacing" textLength="20.9282" x="512.5918" y="442.0005">(8)</text><text fill="#000000" font-family="sans-serif" font-size="13" lengthAdjust="spacing" textLength="140.2007" x="541.7285" y="419.3013">Registers end service</text><text fill="#000000" font-family="sans-serif" font-size="13" lengthAdjust="spacing" textLength="100.1025" x="561.7776" y="434.4341">discovery time.</text><text fill="#000000" font-family="sans-serif" font-size="13" lengthAdjust="spacing" textLength="148.6177" x="537.52" y="449.5669">Registers failure cause</text><text fill="#000000" font-family="sans-serif" font-size="13" lengthAdjust="spacing" textLength="4.1323" x="609.7627" y="464.6997">&#160;</text><text fill="#000000" font-family="sans-serif" font-size="11" lengthAdjust="spacing" textLength="3.4966" x="380.0503" y="514.9761">&#160;</text><polygon fill="#181818" points="493.5918,548.7031,503.5918,552.7031,493.5918,556.7031,497.5918,552.7031" style="stroke:#181818;stroke-width:1.0;"/><line style="stroke:#181818;stroke-width:1.0;" x1="37.8706" x2="499.5918" y1="552.7031" y2="552.7031"/><text fill="#000000" font-family="sans-serif" font-size="13" font-weight="bold" lengthAdjust="spacing" textLength="20.9282" x="132.3774" y="547.6372">(9)</text><text fill="#000000" font-family="sans-serif" font-size="13" lengthAdjust="spacing" textLength="253.7793" x="157.3057" y="547.6372">onServiceSelectionSuccess(instanceId)</text><line style="stroke:#181818;stroke-width:1.0;" x1="505.5918" x2="547.5918" y1="642.3672" y2="642.3672"/><line style="stroke:#181818;stroke-width:1.0;" x1="547.5918" x2="547.5918" y1="642.3672" y2="655.3672"/><line style="stroke:#181818;stroke-width:1.0;" x1="506.5918" x2="547.5918" y1="655.3672" y2="655.3672"/><polygon fill="#181818" points="516.5918,651.3672,506.5918,655.3672,516.5918,659.3672,512.5918,655.3672" style="stroke:#181818;stroke-width:1.0;"/><text fill="#000000" font-family="sans-serif" font-size="13" font-weight="bold" lengthAdjust="spacing" textLength="29.9736" x="512.5918" y="607.0356">(10)</text><text fill="#000000" font-family="sans-serif" font-size="13" lengthAdjust="spacing" textLength="140.2007" x="560.4795" y="576.77">Registers end service</text><text fill="#000000" font-family="sans-serif" font-size="13" lengthAdjust="spacing" textLength="96.0654" x="582.5471" y="591.9028">selection time.</text><text fill="#000000" font-family="sans-serif" font-size="13" lengthAdjust="spacing" textLength="136.0811" x="562.5393" y="607.0356">Registers instance id</text><text fill="#000000" font-family="sans-serif" font-size="13" lengthAdjust="spacing" textLength="168.0288" x="546.5654" y="622.1685">Registers overall duration</text><text fill="#000000" font-family="sans-serif" font-size="13" lengthAdjust="spacing" textLength="4.1323" x="628.5137" y="637.3013">&#160;</text><polygon fill="#181818" points="713.7266,680.5,723.7266,684.5,713.7266,688.5,717.7266,684.5" style="stroke:#181818;stroke-width:1.0;"/><line style="stroke:#181818;stroke-width:1.0;" x1="505.5918" x2="719.7266" y1="684.5" y2="684.5"/><text fill="#000000" font-family="sans-serif" font-size="13" font-weight="bold" lengthAdjust="spacing" textLength="29.9736" x="551.3792" y="679.4341">(11)</text><text fill="#000000" font-family="sans-serif" font-size="13" lengthAdjust="spacing" textLength="94.5864" x="585.3528" y="679.4341">complete(this)</text><text fill="#000000" font-family="sans-serif" font-size="11" lengthAdjust="spacing" textLength="3.4966" x="380.0503" y="716.7104">&#160;</text><polygon fill="#181818" points="493.5918,750.4375,503.5918,754.4375,493.5918,758.4375,497.5918,754.4375" style="stroke:#181818;stroke-width:1.0;"/><line style="stroke:#181818;stroke-width:1.0;" x1="37.8706" x2="499.5918" y1="754.4375" y2="754.4375"/><text fill="#000000" font-family="sans-serif" font-size="13" font-weight="bold" lengthAdjust="spacing" textLength="29.9736" x="128.9688" y="749.3716">(12)</text><text fill="#000000" font-family="sans-serif" font-size="13" lengthAdjust="spacing" textLength="251.5513" x="162.9424" y="749.3716">onServiceSelectionFailure(Throwable))</text><line style="stroke:#181818;stroke-width:1.0;" x1="505.5918" x2="547.5918" y1="813.8359" y2="813.8359"/><line style="stroke:#181818;stroke-width:1.0;" x1="547.5918" x2="547.5918" y1="813.8359" y2="826.8359"/><line style="stroke:#181818;stroke-width:1.0;" x1="506.5918" x2="547.5918" y1="826.8359" y2="826.8359"/><polygon fill="#181818" points="516.5918,822.8359,506.5918,826.8359,516.5918,830.8359,512.5918,826.8359" style="stroke:#181818;stroke-width:1.0;"/><text fill="#000000" font-family="sans-serif" font-size="13" font-weight="bold" lengthAdjust="spacing" textLength="29.9736" x="512.5918" y="793.6372">(13)</text><text fill="#000000" font-family="sans-serif" font-size="13" lengthAdjust="spacing" textLength="172.1611" x="546.5654" y="778.5044">Registers overall duration.</text><text fill="#000000" font-family="sans-serif" font-size="13" lengthAdjust="spacing" textLength="148.6177" x="558.3372" y="793.6372">Registers failure cause</text><text fill="#000000" font-family="sans-serif" font-size="13" lengthAdjust="spacing" textLength="4.1323" x="630.5798" y="808.77">&#160;</text><polygon fill="#181818" points="713.7266,851.9688,723.7266,855.9688,713.7266,859.9688,717.7266,855.9688" style="stroke:#181818;stroke-width:1.0;"/><line style="stroke:#181818;stroke-width:1.0;" x1="505.5918" x2="719.7266" y1="855.9688" y2="855.9688"/><text fill="#000000" font-family="sans-serif" font-size="13" font-weight="bold" lengthAdjust="spacing" textLength="29.9736" x="551.3792" y="850.9028">(14)</text><text fill="#000000" font-family="sans-serif" font-size="13" lengthAdjust="spacing" textLength="94.5864" x="585.3528" y="850.9028">complete(this)</text><!--SRC=[jLFBQiCm4BphAnQVR6XDpo44IXyqq0SqFUOYozj4H9PShPoIl-_6iQaJEwMuz20G-vYTcMLfesqflIo0yAD2g_09YUGAhurUML1e0teXg-1iLMJe8Pfci_WgYOGGt1UqqgMq0HRejrhXKUmb8uxAe9szSSQW2iuVDt5Wqwdg9- -sJE11sjmm2z4CWSlP83PCG7cK0UE83fNFii3e0YY7i2kHFrH_4Z7Oph2dZ1XIMmhCHpCkYLv-e6S2hxZInBuHSAiF47I1vqSseYPzEqIQfi3lIFa0HMUR_AqcvRReTujAATvZ_CWyfaroNWjHE4j-9GEwEj3cq7Ywj7axfHQMBkrtdMvc42XNsR2quoNSIsqgZ_7RshjFcHdyHzhlXrcWP4KuWlG2z_laOEjxwyCy_ojhQg7FcmqwxuRt6gKna5U-ncOzPobqxuklnnMbGRwViDQKZ7UXlxeHBfpA-75XemH-0G00]--></g></svg>