<svg xmlns="http://www.w3.org/2000/svg" xmlns:xlink="http://www.w3.org/1999/xlink" contentStyleType="text/css" height="493px" preserveAspectRatio="none" style="width:961px;height:493px;background:#FFFFFF;" version="1.1" viewBox="0 0 961 493" width="961px" zoomAndPan="magnify"><defs/><g><line style="stroke:#181818;stroke-width:0.5;stroke-dasharray:5.0,5.0;" x1="51" x2="51" y1="36.2969" y2="133.6953"/><line style="stroke:#A80036;stroke-width:1.0;stroke-dasharray:1.0,4.0;" x1="51" x2="51" y1="133.6953" y2="174.5"/><line style="stroke:#181818;stroke-width:0.5;stroke-dasharray:5.0,5.0;" x1="51" x2="51" y1="174.5" y2="232.7656"/><line style="stroke:#A80036;stroke-width:1.0;stroke-dasharray:1.0,4.0;" x1="51" x2="51" y1="232.7656" y2="273.5703"/><line style="stroke:#181818;stroke-width:0.5;stroke-dasharray:5.0,5.0;" x1="51" x2="51" y1="273.5703" y2="458.3672"/><line style="stroke:#181818;stroke-width:0.5;stroke-dasharray:5.0,5.0;" x1="228" x2="228" y1="36.2969" y2="133.6953"/><line style="stroke:#A80036;stroke-width:1.0;stroke-dasharray:1.0,4.0;" x1="228" x2="228" y1="133.6953" y2="174.5"/><line style="stroke:#181818;stroke-width:0.5;stroke-dasharray:5.0,5.0;" x1="228" x2="228" y1="174.5" y2="232.7656"/><line style="stroke:#A80036;stroke-width:1.0;stroke-dasharray:1.0,4.0;" x1="228" x2="228" y1="232.7656" y2="273.5703"/><line style="stroke:#181818;stroke-width:0.5;stroke-dasharray:5.0,5.0;" x1="228" x2="228" y1="273.5703" y2="458.3672"/><line style="stroke:#181818;stroke-width:0.5;stroke-dasharray:5.0,5.0;" x1="419.5518" x2="419.5518" y1="36.2969" y2="133.6953"/><line style="stroke:#A80036;stroke-width:1.0;stroke-dasharray:1.0,4.0;" x1="419.5518" x2="419.5518" y1="133.6953" y2="174.5"/><line style="stroke:#181818;stroke-width:0.5;stroke-dasharray:5.0,5.0;" x1="419.5518" x2="419.5518" y1="174.5" y2="232.7656"/><line style="stroke:#A80036;stroke-width:1.0;stroke-dasharray:1.0,4.0;" x1="419.5518" x2="419.5518" y1="232.7656" y2="273.5703"/><line style="stroke:#181818;stroke-width:0.5;stroke-dasharray:5.0,5.0;" x1="419.5518" x2="419.5518" y1="273.5703" y2="458.3672"/><line style="stroke:#181818;stroke-width:0.5;stroke-dasharray:5.0,5.0;" x1="520.665" x2="520.665" y1="36.2969" y2="133.6953"/><line style="stroke:#A80036;stroke-width:1.0;stroke-dasharray:1.0,4.0;" x1="520.665" x2="520.665" y1="133.6953" y2="174.5"/><line style="stroke:#181818;stroke-width:0.5;stroke-dasharray:5.0,5.0;" x1="520.665" x2="520.665" y1="174.5" y2="232.7656"/><line style="stroke:#A80036;stroke-width:1.0;stroke-dasharray:1.0,4.0;" x1="520.665" x2="520.665" y1="232.7656" y2="273.5703"/><line style="stroke:#181818;stroke-width:0.5;stroke-dasharray:5.0,5.0;" x1="520.665" x2="520.665" y1="273.5703" y2="458.3672"/><line style="stroke:#181818;stroke-width:0.5;stroke-dasharray:5.0,5.0;" x1="760.7861" x2="760.7861" y1="36.2969" y2="133.6953"/><line style="stroke:#A80036;stroke-width:1.0;stroke-dasharray:1.0,4.0;" x1="760.7861" x2="760.7861" y1="133.6953" y2="174.5"/><line style="stroke:#181818;stroke-width:0.5;stroke-dasharray:5.0,5.0;" x1="760.7861" x2="760.7861" y1="174.5" y2="232.7656"/><line style="stroke:#A80036;stroke-width:1.0;stroke-dasharray:1.0,4.0;" x1="760.7861" x2="760.7861" y1="232.7656" y2="273.5703"/><line style="stroke:#181818;stroke-width:0.5;stroke-dasharray:5.0,5.0;" x1="760.7861" x2="760.7861" y1="273.5703" y2="458.3672"/><line style="stroke:#181818;stroke-width:0.5;stroke-dasharray:5.0,5.0;" x1="897.1436" x2="897.1436" y1="36.2969" y2="133.6953"/><line style="stroke:#A80036;stroke-width:1.0;stroke-dasharray:1.0,4.0;" x1="897.1436" x2="897.1436" y1="133.6953" y2="174.5"/><line style="stroke:#181818;stroke-width:0.5;stroke-dasharray:5.0,5.0;" x1="897.1436" x2="897.1436" y1="174.5" y2="232.7656"/><line style="stroke:#A80036;stroke-width:1.0;stroke-dasharray:1.0,4.0;" x1="897.1436" x2="897.1436" y1="232.7656" y2="273.5703"/><line style="stroke:#181818;stroke-width:0.5;stroke-dasharray:5.0,5.0;" x1="897.1436" x2="897.1436" y1="273.5703" y2="458.3672"/><rect fill="#E2E2F0" height="30.2969" rx="2.5" ry="2.5" style="stroke:#181818;stroke-width:0.5;" width="92.2236" x="5" y="5"/><text fill="#000000" font-family="sans-serif" font-size="14" lengthAdjust="spacing" textLength="78.2236" x="12" y="24.9951">Application</text><rect fill="#E2E2F0" height="30.2969" rx="2.5" ry="2.5" style="stroke:#181818;stroke-width:0.5;" width="92.2236" x="5" y="457.3672"/><text fill="#000000" font-family="sans-serif" font-size="14" lengthAdjust="spacing" textLength="78.2236" x="12" y="477.3623">Application</text><rect fill="#E2E2F0" height="30.2969" rx="2.5" ry="2.5" style="stroke:#181818;stroke-width:0.5;" width="50.8047" x="203" y="5"/><text fill="#000000" font-family="sans-serif" font-size="14" lengthAdjust="spacing" textLength="36.8047" x="210" y="24.9951">Stork</text><rect fill="#E2E2F0" height="30.2969" rx="2.5" ry="2.5" style="stroke:#181818;stroke-width:0.5;" width="50.8047" x="203" y="457.3672"/><text fill="#000000" font-family="sans-serif" font-size="14" lengthAdjust="spacing" textLength="36.8047" x="210" y="477.3623">Stork</text><rect fill="#E2E2F0" height="30.2969" rx="2.5" ry="2.5" style="stroke:#181818;stroke-width:0.5;" width="117.1133" x="361.5518" y="5"/><text fill="#000000" font-family="sans-serif" font-size="14" lengthAdjust="spacing" textLength="103.1133" x="368.5518" y="24.9951">ConfigProvider</text><rect fill="#E2E2F0" height="30.2969" rx="2.5" ry="2.5" style="stroke:#181818;stroke-width:0.5;" width="117.1133" x="361.5518" y="457.3672"/><text fill="#000000" font-family="sans-serif" font-size="14" lengthAdjust="spacing" textLength="103.1133" x="368.5518" y="477.3623">ConfigProvider</text><rect fill="#E2E2F0" height="30.2969" rx="2.5" ry="2.5" style="stroke:#181818;stroke-width:0.5;" width="65.7412" x="488.665" y="5"/><text fill="#000000" font-family="sans-serif" font-size="14" lengthAdjust="spacing" textLength="51.7412" x="495.665" y="24.9951">Service</text><rect fill="#E2E2F0" height="30.2969" rx="2.5" ry="2.5" style="stroke:#181818;stroke-width:0.5;" width="65.7412" x="488.665" y="457.3672"/><text fill="#000000" font-family="sans-serif" font-size="14" lengthAdjust="spacing" textLength="51.7412" x="495.665" y="477.3623">Service</text><rect fill="#E2E2F0" height="30.2969" rx="2.5" ry="2.5" style="stroke:#181818;stroke-width:0.5;" width="139.3574" x="691.7861" y="5"/><text fill="#000000" font-family="sans-serif" font-size="14" lengthAdjust="spacing" textLength="125.3574" x="698.7861" y="24.9951">Service Discovery</text><rect fill="#E2E2F0" height="30.2969" rx="2.5" ry="2.5" style="stroke:#181818;stroke-width:0.5;" width="139.3574" x="691.7861" y="457.3672"/><text fill="#000000" font-family="sans-serif" font-size="14" lengthAdjust="spacing" textLength="125.3574" x="698.7861" y="477.3623">Service Discovery</text><rect fill="#E2E2F0" height="30.2969" rx="2.5" ry="2.5" style="stroke:#181818;stroke-width:0.5;" width="113.873" x="841.1436" y="5"/><text fill="#000000" font-family="sans-serif" font-size="14" lengthAdjust="spacing" textLength="99.873" x="848.1436" y="24.9951">Load Balancer</text><rect fill="#E2E2F0" height="30.2969" rx="2.5" ry="2.5" style="stroke:#181818;stroke-width:0.5;" width="113.873" x="841.1436" y="457.3672"/><text fill="#000000" font-family="sans-serif" font-size="14" lengthAdjust="spacing" textLength="99.873" x="848.1436" y="477.3623">Load Balancer</text><polygon fill="#181818" points="216.4023,63.4297,226.4023,67.4297,216.4023,71.4297,220.4023,67.4297" style="stroke:#181818;stroke-width:1.0;"/><line style="stroke:#181818;stroke-width:1.0;" x1="51.1118" x2="222.4023" y1="67.4297" y2="67.4297"/><text fill="#000000" font-family="sans-serif" font-size="13" font-weight="bold" lengthAdjust="spacing" textLength="20.9282" x="95.1294" y="62.3638">(1)</text><text fill="#000000" font-family="sans-serif" font-size="13" lengthAdjust="spacing" textLength="64.3271" x="120.0576" y="62.3638">initialize()</text><polygon fill="#181818" points="408.1084,92.5625,418.1084,96.5625,408.1084,100.5625,412.1084,96.5625" style="stroke:#181818;stroke-width:1.0;"/><line style="stroke:#181818;stroke-width:1.0;" x1="228.4023" x2="414.1084" y1="96.5625" y2="96.5625"/><text fill="#000000" font-family="sans-serif" font-size="13" font-weight="bold" lengthAdjust="spacing" textLength="20.9282" x="275.1907" y="91.4966">(2)</text><text fill="#000000" font-family="sans-serif" font-size="13" lengthAdjust="spacing" textLength="73.2012" x="300.1189" y="91.4966">getConfig()</text><polygon fill="#181818" points="239.4023,121.6953,229.4023,125.6953,239.4023,129.6953,235.4023,125.6953" style="stroke:#181818;stroke-width:1.0;"/><line style="stroke:#181818;stroke-width:1.0;" x1="233.4023" x2="419.1084" y1="125.6953" y2="125.6953"/><text fill="#000000" font-family="sans-serif" font-size="13" font-weight="bold" lengthAdjust="spacing" textLength="20.9282" x="240.4023" y="120.6294">(3)</text><text fill="#000000" font-family="sans-serif" font-size="13" lengthAdjust="spacing" textLength="142.7778" x="265.3306" y="120.6294">: List&lt;ServiceConfig&gt;</text><text fill="#000000" font-family="sans-serif" font-size="11" lengthAdjust="spacing" textLength="3.4966" x="472.8477" y="157.9058">&#160;</text><polygon fill="#181818" points="216.4023,191.6328,226.4023,195.6328,216.4023,199.6328,220.4023,195.6328" style="stroke:#181818;stroke-width:1.0;"/><line style="stroke:#181818;stroke-width:1.0;" x1="51.1118" x2="222.4023" y1="195.6328" y2="195.6328"/><text fill="#000000" font-family="sans-serif" font-size="13" font-weight="bold" lengthAdjust="spacing" textLength="20.9282" x="63.1118" y="190.5669">(4)</text><text fill="#000000" font-family="sans-serif" font-size="13" lengthAdjust="spacing" textLength="128.3623" x="88.04" y="190.5669">getService("name")</text><polygon fill="#181818" points="62.1118,220.7656,52.1118,224.7656,62.1118,228.7656,58.1118,224.7656" style="stroke:#181818;stroke-width:1.0;"/><line style="stroke:#181818;stroke-width:1.0;" x1="56.1118" x2="227.4023" y1="224.7656" y2="224.7656"/><text fill="#000000" font-family="sans-serif" font-size="13" font-weight="bold" lengthAdjust="spacing" textLength="20.9282" x="103.2703" y="219.6997">(5)</text><text fill="#000000" font-family="sans-serif" font-size="13" lengthAdjust="spacing" textLength="48.0454" x="128.1985" y="219.6997">Service</text><text fill="#000000" font-family="sans-serif" font-size="11" lengthAdjust="spacing" textLength="6.9932" x="471.0994" y="256.9761">&#160;&#160;</text><polygon fill="#181818" points="509.5356,290.7031,519.5356,294.7031,509.5356,298.7031,513.5356,294.7031" style="stroke:#181818;stroke-width:1.0;"/><line style="stroke:#181818;stroke-width:1.0;" x1="51.1118" x2="515.5356" y1="294.7031" y2="294.7031"/><text fill="#000000" font-family="sans-serif" font-size="13" font-weight="bold" lengthAdjust="spacing" textLength="20.9282" x="197.8052" y="289.6372">(6)</text><text fill="#000000" font-family="sans-serif" font-size="13" lengthAdjust="spacing" textLength="152.1089" x="222.7334" y="289.6372">selectServiceInstance()</text><polygon fill="#181818" points="749.4648,319.8359,759.4648,323.8359,749.4648,327.8359,753.4648,323.8359" style="stroke:#181818;stroke-width:1.0;"/><line style="stroke:#181818;stroke-width:1.0;" x1="521.5356" x2="755.4648" y1="323.8359" y2="323.8359"/><text fill="#000000" font-family="sans-serif" font-size="13" font-weight="bold" lengthAdjust="spacing" textLength="20.9282" x="558.2344" y="318.77">(7)</text><text fill="#000000" font-family="sans-serif" font-size="13" lengthAdjust="spacing" textLength="141.6035" x="583.1626" y="318.77">getServiceInstances()</text><polygon fill="#181818" points="532.5356,348.9688,522.5356,352.9688,532.5356,356.9688,528.5356,352.9688" style="stroke:#181818;stroke-width:1.0;"/><line style="stroke:#181818;stroke-width:1.0;stroke-dasharray:2.0,2.0;" x1="526.5356" x2="760.4648" y1="352.9688" y2="352.9688"/><text fill="#000000" font-family="sans-serif" font-size="13" font-weight="bold" lengthAdjust="spacing" textLength="20.9282" x="533.5356" y="347.9028">(8)</text><text fill="#000000" font-family="sans-serif" font-size="13" lengthAdjust="spacing" textLength="191.001" x="558.4639" y="347.9028">Uni&lt;List&lt;ServiceInstance&gt;&gt;</text><polygon fill="#181818" points="886.0801,378.1016,896.0801,382.1016,886.0801,386.1016,890.0801,382.1016" style="stroke:#181818;stroke-width:1.0;"/><line style="stroke:#181818;stroke-width:1.0;" x1="521.5356" x2="892.0801" y1="382.1016" y2="382.1016"/><text fill="#000000" font-family="sans-serif" font-size="13" font-weight="bold" lengthAdjust="spacing" textLength="20.9282" x="621.2893" y="377.0356">(9)</text><text fill="#000000" font-family="sans-serif" font-size="13" lengthAdjust="spacing" textLength="152.1089" x="646.2175" y="377.0356">selectServiceInstance()</text><polygon fill="#181818" points="532.5356,407.2344,522.5356,411.2344,532.5356,415.2344,528.5356,411.2344" style="stroke:#181818;stroke-width:1.0;"/><line style="stroke:#181818;stroke-width:1.0;stroke-dasharray:2.0,2.0;" x1="526.5356" x2="897.0801" y1="411.2344" y2="411.2344"/><text fill="#000000" font-family="sans-serif" font-size="13" font-weight="bold" lengthAdjust="spacing" textLength="29.9736" x="619.5754" y="406.1685">(10)</text><text fill="#000000" font-family="sans-serif" font-size="13" lengthAdjust="spacing" textLength="146.4912" x="653.5491" y="406.1685">Uni&lt;ServiceInstance&gt;</text><polygon fill="#181818" points="62.1118,436.3672,52.1118,440.3672,62.1118,444.3672,58.1118,440.3672" style="stroke:#181818;stroke-width:1.0;"/><line style="stroke:#181818;stroke-width:1.0;stroke-dasharray:2.0,2.0;" x1="56.1118" x2="520.5356" y1="440.3672" y2="440.3672"/><text fill="#000000" font-family="sans-serif" font-size="13" font-weight="bold" lengthAdjust="spacing" textLength="29.9736" x="196.0913" y="435.3013">(11)</text><text fill="#000000" font-family="sans-serif" font-size="13" lengthAdjust="spacing" textLength="146.4912" x="230.0649" y="435.3013">Uni&lt;ServiceInstance&gt;</text><!--SRC=[VL5DJuGm4BttLpGziGU8PqAQh7hPP4rCZ3-Wsnt9P66ARI7HN- -iW59aFN1vyxvu3HUapdZJoW3lFP259mZ1rB1li2PfWI9uOVheg6zFuAMgJZgxsoaX1EiYMkmCHRdlkWQjYUWemL-YyvS4UN3qXlMpTmEUsJeXWn_GGeAf2PIF6AmRm7-ez7vqvYplJMEuk-TQYoOorsC1MKeaZ6WQ_8Hi9qQGhsaPfjKGHunPg-F2h9H73B6QgeqyBKHH59A_cntOV99aYamBQj5a8Ib_XlXs72t_U4wpbFnm3TZP-40XNfUu_kJ4OFB6Y4cTMHLOjiNDyoJnbR1Q3Z3BjKv2qvVvf-cQkH6tJleDojFnRl2_0000]--></g></svg>