<svg xmlns="http://www.w3.org/2000/svg" xmlns:xlink="http://www.w3.org/1999/xlink" contentStyleType="text/css" height="364px" preserveAspectRatio="none" style="width:1075px;height:364px;background:#FFFFFF;" version="1.1" viewBox="0 0 1075 364" width="1075px" zoomAndPan="magnify"><defs/><g><!--class Stork--><g id="elem_Stork"><rect codeLine="2" fill="#F1F1F1" height="40.2656" id="Stork" rx="2.5" ry="2.5" style="stroke:#181818;stroke-width:0.5;" width="109.3457" x="466.42" y="7"/><ellipse cx="481.42" cy="27.1328" fill="#ADD1B2" rx="11" ry="11" style="stroke:#181818;stroke-width:1.0;"/><path d="M484.3888,32.7734 Q483.8106,33.0703 483.17,33.2109 Q482.5294,33.3672 481.8263,33.3672 Q479.3263,33.3672 477.9981,31.7266 Q476.6856,30.0703 476.6856,26.9453 Q476.6856,23.8203 477.9981,22.1641 Q479.3263,20.5078 481.8263,20.5078 Q482.5294,20.5078 483.17,20.6641 Q483.8263,20.8203 484.3888,21.1172 L484.3888,23.8359 Q483.7638,23.2578 483.17,22.9922 Q482.5763,22.7109 481.9513,22.7109 Q480.6075,22.7109 479.92,23.7891 Q479.2325,24.8516 479.2325,26.9453 Q479.2325,29.0391 479.92,30.1172 Q480.6075,31.1797 481.9513,31.1797 Q482.5763,31.1797 483.17,30.9141 Q483.7638,30.6328 484.3888,30.0547 L484.3888,32.7734 Z " fill="#000000"/><text fill="#000000" font-family="sans-serif" font-size="12" font-style="italic" lengthAdjust="spacing" textLength="81.3457" x="493.42" y="23.1387">&#171;entry-point&#187;</text><text fill="#000000" font-family="sans-serif" font-size="14" lengthAdjust="spacing" textLength="36.8047" x="515.6905" y="38.9639">Stork</text></g><!--class ServiceDiscovery--><g id="elem_ServiceDiscovery"><rect codeLine="3" fill="#F1F1F1" height="32" id="ServiceDiscovery" rx="2.5" ry="2.5" style="stroke:#181818;stroke-width:0.5;" width="152.9072" x="208.64" y="225.53"/><ellipse cx="223.64" cy="241.53" fill="#B4A7E5" rx="11" ry="11" style="stroke:#181818;stroke-width:1.0;"/><path d="M219.5619,237.2956 L219.5619,235.1394 L226.9525,235.1394 L226.9525,237.2956 L224.4838,237.2956 L224.4838,245.3738 L226.9525,245.3738 L226.9525,247.53 L219.5619,247.53 L219.5619,245.3738 L222.0306,245.3738 L222.0306,237.2956 L219.5619,237.2956 Z " fill="#000000"/><text fill="#000000" font-family="sans-serif" font-size="14" font-style="italic" lengthAdjust="spacing" textLength="120.9072" x="237.64" y="246.3767">ServiceDiscovery</text></g><!--class ServiceInstance--><g id="elem_ServiceInstance"><rect codeLine="4" fill="#F1F1F1" height="32" id="ServiceInstance" rx="2.5" ry="2.5" style="stroke:#181818;stroke-width:0.5;" width="143.2891" x="449.45" y="225.53"/><ellipse cx="464.45" cy="241.53" fill="#B4A7E5" rx="11" ry="11" style="stroke:#181818;stroke-width:1.0;"/><path d="M460.3719,237.2956 L460.3719,235.1394 L467.7625,235.1394 L467.7625,237.2956 L465.2938,237.2956 L465.2938,245.3738 L467.7625,245.3738 L467.7625,247.53 L460.3719,247.53 L460.3719,245.3738 L462.8406,245.3738 L462.8406,237.2956 L460.3719,237.2956 Z " fill="#000000"/><text fill="#000000" font-family="sans-serif" font-size="14" font-style="italic" lengthAdjust="spacing" textLength="111.2891" x="478.45" y="246.3767">ServiceInstance</text></g><!--class LoadBalancer--><g id="elem_LoadBalancer"><rect codeLine="5" fill="#F1F1F1" height="32" id="LoadBalancer" rx="2.5" ry="2.5" style="stroke:#181818;stroke-width:0.5;" width="127.4229" x="641.38" y="225.53"/><ellipse cx="656.38" cy="241.53" fill="#B4A7E5" rx="11" ry="11" style="stroke:#181818;stroke-width:1.0;"/><path d="M652.3019,237.2956 L652.3019,235.1394 L659.6925,235.1394 L659.6925,237.2956 L657.2238,237.2956 L657.2238,245.3738 L659.6925,245.3738 L659.6925,247.53 L652.3019,247.53 L652.3019,245.3738 L654.7706,245.3738 L654.7706,237.2956 L652.3019,237.2956 Z " fill="#000000"/><text fill="#000000" font-family="sans-serif" font-size="14" font-style="italic" lengthAdjust="spacing" textLength="95.4229" x="670.38" y="246.3767">LoadBalancer</text></g><!--class Service--><g id="elem_Service"><rect codeLine="6" fill="#F1F1F1" height="40.2656" id="Service" rx="2.5" ry="2.5" style="stroke:#181818;stroke-width:0.5;" width="84.332" x="478.93" y="108.27"/><ellipse cx="493.93" cy="128.4028" fill="#ADD1B2" rx="11" ry="11" style="stroke:#181818;stroke-width:1.0;"/><path d="M496.8988,134.0434 Q496.3206,134.3403 495.68,134.4809 Q495.0394,134.6372 494.3363,134.6372 Q491.8363,134.6372 490.5081,132.9966 Q489.1956,131.3403 489.1956,128.2153 Q489.1956,125.0903 490.5081,123.4341 Q491.8363,121.7778 494.3363,121.7778 Q495.0394,121.7778 495.68,121.9341 Q496.3363,122.0903 496.8988,122.3872 L496.8988,125.1059 Q496.2738,124.5278 495.68,124.2622 Q495.0863,123.9809 494.4613,123.9809 Q493.1175,123.9809 492.43,125.0591 Q491.7425,126.1216 491.7425,128.2153 Q491.7425,130.3091 492.43,131.3872 Q493.1175,132.4497 494.4613,132.4497 Q495.0863,132.4497 495.68,132.1841 Q496.2738,131.9028 496.8988,131.3247 L496.8988,134.0434 Z " fill="#000000"/><text fill="#000000" font-family="sans-serif" font-size="12" font-style="italic" lengthAdjust="spacing" textLength="56.332" x="505.93" y="124.4087">&#171;named&#187;</text><text fill="#000000" font-family="sans-serif" font-size="14" lengthAdjust="spacing" textLength="51.7412" x="508.2254" y="140.2339">Service</text></g><!--class Kubernetes--><g id="elem_Kubernetes"><rect codeLine="14" fill="#F1F1F1" height="32" id="Kubernetes" rx="2.5" ry="2.5" style="stroke:#181818;stroke-width:0.5;" width="112.1924" x="7" y="322.67"/><ellipse cx="22" cy="338.67" fill="#ADD1B2" rx="11" ry="11" style="stroke:#181818;stroke-width:1.0;"/><path d="M24.9688,344.3106 Q24.3906,344.6075 23.75,344.7481 Q23.1094,344.9044 22.4063,344.9044 Q19.9063,344.9044 18.5781,343.2638 Q17.2656,341.6075 17.2656,338.4825 Q17.2656,335.3575 18.5781,333.7013 Q19.9063,332.045 22.4063,332.045 Q23.1094,332.045 23.75,332.2013 Q24.4063,332.3575 24.9688,332.6544 L24.9688,335.3731 Q24.3438,334.795 23.75,334.5294 Q23.1563,334.2481 22.5313,334.2481 Q21.1875,334.2481 20.5,335.3263 Q19.8125,336.3888 19.8125,338.4825 Q19.8125,340.5763 20.5,341.6544 Q21.1875,342.7169 22.5313,342.7169 Q23.1563,342.7169 23.75,342.4513 Q24.3438,342.17 24.9688,341.5919 L24.9688,344.3106 Z " fill="#000000"/><text fill="#000000" font-family="sans-serif" font-size="14" lengthAdjust="spacing" textLength="80.1924" x="36" y="343.5167">Kubernetes</text></g><!--class Consul--><g id="elem_Consul"><rect codeLine="15" fill="#F1F1F1" height="32" id="Consul" rx="2.5" ry="2.5" style="stroke:#181818;stroke-width:0.5;" width="79.2705" x="154.46" y="322.67"/><ellipse cx="169.46" cy="338.67" fill="#ADD1B2" rx="11" ry="11" style="stroke:#181818;stroke-width:1.0;"/><path d="M172.4288,344.3106 Q171.8506,344.6075 171.21,344.7481 Q170.5694,344.9044 169.8663,344.9044 Q167.3663,344.9044 166.0381,343.2638 Q164.7256,341.6075 164.7256,338.4825 Q164.7256,335.3575 166.0381,333.7013 Q167.3663,332.045 169.8663,332.045 Q170.5694,332.045 171.21,332.2013 Q171.8663,332.3575 172.4288,332.6544 L172.4288,335.3731 Q171.8038,334.795 171.21,334.5294 Q170.6163,334.2481 169.9913,334.2481 Q168.6475,334.2481 167.96,335.3263 Q167.2725,336.3888 167.2725,338.4825 Q167.2725,340.5763 167.96,341.6544 Q168.6475,342.7169 169.9913,342.7169 Q170.6163,342.7169 171.21,342.4513 Q171.8038,342.17 172.4288,341.5919 L172.4288,344.3106 Z " fill="#000000"/><text fill="#000000" font-family="sans-serif" font-size="14" lengthAdjust="spacing" textLength="47.2705" x="183.46" y="343.5167">Consul</text></g><!--class Custom Service Discovery--><g id="elem_Custom Service Discovery"><rect codeLine="16" fill="#F1F1F1" height="32" id="Custom Service Discovery" rx="2.5" ry="2.5" style="stroke:#181818;stroke-width:0.5;" width="215.4424" x="268.38" y="322.67"/><ellipse cx="283.38" cy="338.67" fill="#ADD1B2" rx="11" ry="11" style="stroke:#181818;stroke-width:1.0;"/><path d="M286.3488,344.3106 Q285.7706,344.6075 285.13,344.7481 Q284.4894,344.9044 283.7863,344.9044 Q281.2863,344.9044 279.9581,343.2638 Q278.6456,341.6075 278.6456,338.4825 Q278.6456,335.3575 279.9581,333.7013 Q281.2863,332.045 283.7863,332.045 Q284.4894,332.045 285.13,332.2013 Q285.7863,332.3575 286.3488,332.6544 L286.3488,335.3731 Q285.7238,334.795 285.13,334.5294 Q284.5363,334.2481 283.9113,334.2481 Q282.5675,334.2481 281.88,335.3263 Q281.1925,336.3888 281.1925,338.4825 Q281.1925,340.5763 281.88,341.6544 Q282.5675,342.7169 283.9113,342.7169 Q284.5363,342.7169 285.13,342.4513 Q285.7238,342.17 286.3488,341.5919 L286.3488,344.3106 Z " fill="#000000"/><text fill="#000000" font-family="sans-serif" font-size="14" lengthAdjust="spacing" textLength="183.4424" x="297.38" y="343.5167">Custom Service Discovery</text></g><!--class RoundRobin--><g id="elem_RoundRobin"><rect codeLine="18" fill="#F1F1F1" height="40.2656" id="RoundRobin" rx="2.5" ry="2.5" style="stroke:#181818;stroke-width:0.5;" width="116.8682" x="518.66" y="318.53"/><ellipse cx="533.66" cy="338.6628" fill="#ADD1B2" rx="11" ry="11" style="stroke:#181818;stroke-width:1.0;"/><path d="M536.6288,344.3034 Q536.0506,344.6003 535.41,344.7409 Q534.7694,344.8972 534.0663,344.8972 Q531.5663,344.8972 530.2381,343.2566 Q528.9256,341.6003 528.9256,338.4753 Q528.9256,335.3503 530.2381,333.6941 Q531.5663,332.0378 534.0663,332.0378 Q534.7694,332.0378 535.41,332.1941 Q536.0663,332.3503 536.6288,332.6472 L536.6288,335.3659 Q536.0038,334.7878 535.41,334.5222 Q534.8163,334.2409 534.1913,334.2409 Q532.8475,334.2409 532.16,335.3191 Q531.4725,336.3816 531.4725,338.4753 Q531.4725,340.5691 532.16,341.6472 Q532.8475,342.7097 534.1913,342.7097 Q534.8163,342.7097 535.41,342.4441 Q536.0038,342.1628 536.6288,341.5847 L536.6288,344.3034 Z " fill="#000000"/><text fill="#000000" font-family="sans-serif" font-size="12" font-style="italic" lengthAdjust="spacing" textLength="56.9063" x="561.641" y="334.6687">&#171;default&#187;</text><text fill="#000000" font-family="sans-serif" font-size="14" lengthAdjust="spacing" textLength="84.8682" x="547.66" y="350.4939">RoundRobin</text></g><!--class LeastResponseTime--><g id="elem_LeastResponseTime"><rect codeLine="19" fill="#F1F1F1" height="32" id="LeastResponseTime" rx="2.5" ry="2.5" style="stroke:#181818;stroke-width:0.5;" width="172.335" x="670.93" y="322.67"/><ellipse cx="685.93" cy="338.67" fill="#ADD1B2" rx="11" ry="11" style="stroke:#181818;stroke-width:1.0;"/><path d="M688.8988,344.3106 Q688.3206,344.6075 687.68,344.7481 Q687.0394,344.9044 686.3363,344.9044 Q683.8363,344.9044 682.5081,343.2638 Q681.1956,341.6075 681.1956,338.4825 Q681.1956,335.3575 682.5081,333.7013 Q683.8363,332.045 686.3363,332.045 Q687.0394,332.045 687.68,332.2013 Q688.3363,332.3575 688.8988,332.6544 L688.8988,335.3731 Q688.2738,334.795 687.68,334.5294 Q687.0863,334.2481 686.4613,334.2481 Q685.1175,334.2481 684.43,335.3263 Q683.7425,336.3888 683.7425,338.4825 Q683.7425,340.5763 684.43,341.6544 Q685.1175,342.7169 686.4613,342.7169 Q687.0863,342.7169 687.68,342.4513 Q688.2738,342.17 688.8988,341.5919 L688.8988,344.3106 Z " fill="#000000"/><text fill="#000000" font-family="sans-serif" font-size="14" lengthAdjust="spacing" textLength="140.335" x="699.93" y="343.5167">LeastResponseTime</text></g><!--class Custom Load Balancer--><g id="elem_Custom Load Balancer"><rect codeLine="20" fill="#F1F1F1" height="32" id="Custom Load Balancer" rx="2.5" ry="2.5" style="stroke:#181818;stroke-width:0.5;" width="189.958" x="878.12" y="322.67"/><ellipse cx="893.12" cy="338.67" fill="#ADD1B2" rx="11" ry="11" style="stroke:#181818;stroke-width:1.0;"/><path d="M896.0888,344.3106 Q895.5106,344.6075 894.87,344.7481 Q894.2294,344.9044 893.5263,344.9044 Q891.0263,344.9044 889.6981,343.2638 Q888.3856,341.6075 888.3856,338.4825 Q888.3856,335.3575 889.6981,333.7013 Q891.0263,332.045 893.5263,332.045 Q894.2294,332.045 894.87,332.2013 Q895.5263,332.3575 896.0888,332.6544 L896.0888,335.3731 Q895.4638,334.795 894.87,334.5294 Q894.2763,334.2481 893.6513,334.2481 Q892.3075,334.2481 891.62,335.3263 Q890.9325,336.3888 890.9325,338.4825 Q890.9325,340.5763 891.62,341.6544 Q892.3075,342.7169 893.6513,342.7169 Q894.2763,342.7169 894.87,342.4513 Q895.4638,342.17 896.0888,341.5919 L896.0888,344.3106 Z " fill="#000000"/><text fill="#000000" font-family="sans-serif" font-size="14" lengthAdjust="spacing" textLength="157.958" x="907.12" y="343.5167">Custom Load Balancer</text></g><!--link Stork to Service--><g id="link_Stork_Service"><path codeLine="8" d="M521.1,47.75 C521.1,65.15 521.1,90.44 521.1,107.83 " fill="none" id="Stork-Service" style="stroke:#181818;stroke-width:1.0;"/><text fill="#000000" font-family="sans-serif" font-size="13" lengthAdjust="spacing" textLength="6.5" x="514.362" y="97.3702">*</text></g><!--link Service to ServiceDiscovery--><g id="link_Service_ServiceDiscovery"><path codeLine="9" d="M479.45,149.01 C433.4,170.7 360.16,205.19 317.97,225.05 " fill="none" id="Service-ServiceDiscovery" style="stroke:#181818;stroke-width:1.0;"/></g><!--link Service to LoadBalancer--><g id="link_Service_LoadBalancer"><path codeLine="10" d="M563.51,135.67 C594.84,142.08 637.08,154.62 667.1,178.53 C682.5,190.81 693.24,211.15 699.28,225.16 " fill="none" id="Service-LoadBalancer" style="stroke:#181818;stroke-width:1.0;"/></g><!--link Service to ServiceInstance--><g id="link_Service_ServiceInstance"><path codeLine="12" d="M520.54,148.79 C520.22,161.97 519.92,179.8 520.1,195.53 C520.21,205.38 520.45,216.43 520.67,225.12 " fill="none" id="Service-ServiceInstance" style="stroke:#181818;stroke-width:1.0;stroke-dasharray:1.0,3.0;"/><text fill="#000000" font-family="sans-serif" font-size="13" lengthAdjust="spacing" textLength="141.9653" x="521.1" y="191.5969">selectServiceInstance</text></g><!--reverse link ServiceDiscovery to Kubernetes--><g id="link_ServiceDiscovery_Kubernetes"><path d="M232.3852,265.1201 C191.1052,282.8101 140.52,304.49 99.24,322.18 " fill="none" id="ServiceDiscovery-backto-Kubernetes" style="stroke:#181818;stroke-width:1.0;stroke-dasharray:7.0,7.0;"/><polygon fill="none" points="248.93,258.03,230.0218,259.6051,234.7485,270.635,248.93,258.03" style="stroke:#181818;stroke-width:1.0;"/></g><!--reverse link ServiceDiscovery to Consul--><g id="link_ServiceDiscovery_Consul"><path d="M258.0335,270.8233 C241.0435,288.5733 225.65,304.68 208.68,322.42 " fill="none" id="ServiceDiscovery-backto-Consul" style="stroke:#181818;stroke-width:1.0;stroke-dasharray:7.0,7.0;"/><polygon fill="none" points="270.48,257.82,253.6991,266.6744,262.3679,274.9721,270.48,257.82" style="stroke:#181818;stroke-width:1.0;"/></g><!--reverse link ServiceDiscovery to Custom Service Discovery--><g id="link_ServiceDiscovery_Custom Service Discovery"><path d="M312.1627,270.8269 C329.1427,288.5769 344.55,304.68 361.51,322.42 " fill="none" id="ServiceDiscovery-backto-Custom Service Discovery" style="stroke:#181818;stroke-width:1.0;stroke-dasharray:7.0,7.0;"/><polygon fill="none" points="299.72,257.82,307.827,274.9745,316.4983,266.6794,299.72,257.82" style="stroke:#181818;stroke-width:1.0;"/></g><!--reverse link LoadBalancer to RoundRobin--><g id="link_LoadBalancer_RoundRobin"><path d="M669.8023,268.7661 C647.6923,285.1961 627.19,300.44 603.25,318.23 " fill="none" id="LoadBalancer-backto-RoundRobin" style="stroke:#181818;stroke-width:1.0;stroke-dasharray:7.0,7.0;"/><polygon fill="none" points="684.25,258.03,666.2236,263.9502,673.381,273.582,684.25,258.03" style="stroke:#181818;stroke-width:1.0;"/></g><!--reverse link LoadBalancer to LeastResponseTime--><g id="link_LoadBalancer_LeastResponseTime"><path d="M722.0818,273.6153 C731.7818,291.3653 739.07,304.68 748.76,322.42 " fill="none" id="LoadBalancer-backto-LeastResponseTime" style="stroke:#181818;stroke-width:1.0;stroke-dasharray:7.0,7.0;"/><polygon fill="none" points="713.45,257.82,716.8167,276.4926,727.3469,270.738,713.45,257.82" style="stroke:#181818;stroke-width:1.0;"/></g><!--reverse link LoadBalancer to Custom Load Balancer--><g id="link_LoadBalancer_Custom Load Balancer"><path d="M765.7132,264.0508 C815.5532,281.7408 879.63,304.49 929.46,322.18 " fill="none" id="LoadBalancer-backto-Custom Load Balancer" style="stroke:#181818;stroke-width:1.0;stroke-dasharray:7.0,7.0;"/><polygon fill="none" points="748.75,258.03,763.7062,269.7052,767.7201,258.3964,748.75,258.03" style="stroke:#181818;stroke-width:1.0;"/></g><!--SRC=[ZP6zRW8n48JxUmhB9TAzG7IY26cYK1tfeXJ67eGL_voyQoJU7gF3wC85IEDYlndDx7fl3OI7to9HevqY4XkEwKTq7GAdOpj46tYvRCgBj5CQOeDqi1flbdGy81tdw3qGgw0n8UkepAjovscgEQEu90NbOKf6CqQthP0BMNbJTMKyYvwmNmaJy6KYCyptRRaNGN3GVDlvqkuZbvC4C4XOFpZuSWwQ5nZ5gnWekty8vIeJHt_T_ShbG_F5tSSSJ1-tDdITmKvbLtvcQlpZocieuXuqb8huj1vFzBNX6OdAv3tJ2G00]--></g></svg>