<?xml version="1.0" encoding="us-ascii" standalone="no"?><svg xmlns="http://www.w3.org/2000/svg" xmlns:xlink="http://www.w3.org/1999/xlink" contentStyleType="text/css" height="557px" preserveAspectRatio="none" style="width:2305px;height:557px;" version="1.1" viewBox="0 0 2305 557" width="2305px" zoomAndPan="magnify"><defs/><g><line style="stroke:#444444;stroke-width:0.5;stroke-dasharray:5.0,5.0;" x1="102" x2="102" y1="62.9219" y2="300.6094"/><line style="stroke:#444444;stroke-width:1.0;stroke-dasharray:1.0,4.0;" x1="102" x2="102" y1="300.6094" y2="371.5313"/><line style="stroke:#444444;stroke-width:0.5;stroke-dasharray:5.0,5.0;" x1="102" x2="102" y1="371.5313" y2="495.375"/><line style="stroke:#444444;stroke-width:0.5;stroke-dasharray:5.0,5.0;" x1="724.5" x2="724.5" y1="62.9219" y2="300.6094"/><line style="stroke:#444444;stroke-width:1.0;stroke-dasharray:1.0,4.0;" x1="724.5" x2="724.5" y1="300.6094" y2="371.5313"/><line style="stroke:#444444;stroke-width:0.5;stroke-dasharray:5.0,5.0;" x1="724.5" x2="724.5" y1="371.5313" y2="495.375"/><line style="stroke:#444444;stroke-width:0.5;stroke-dasharray:5.0,5.0;" x1="1178.5" x2="1178.5" y1="62.9219" y2="300.6094"/><line style="stroke:#444444;stroke-width:1.0;stroke-dasharray:1.0,4.0;" x1="1178.5" x2="1178.5" y1="300.6094" y2="371.5313"/><line style="stroke:#444444;stroke-width:0.5;stroke-dasharray:5.0,5.0;" x1="1178.5" x2="1178.5" y1="371.5313" y2="495.375"/><line style="stroke:#444444;stroke-width:0.5;stroke-dasharray:5.0,5.0;" x1="1413.5" x2="1413.5" y1="62.9219" y2="300.6094"/><line style="stroke:#444444;stroke-width:1.0;stroke-dasharray:1.0,4.0;" x1="1413.5" x2="1413.5" y1="300.6094" y2="371.5313"/><line style="stroke:#444444;stroke-width:0.5;stroke-dasharray:5.0,5.0;" x1="1413.5" x2="1413.5" y1="371.5313" y2="495.375"/><line style="stroke:#444444;stroke-width:0.5;stroke-dasharray:5.0,5.0;" x1="2231" x2="2231" y1="62.9219" y2="300.6094"/><line style="stroke:#444444;stroke-width:1.0;stroke-dasharray:1.0,4.0;" x1="2231" x2="2231" y1="300.6094" y2="371.5313"/><line style="stroke:#444444;stroke-width:0.5;stroke-dasharray:5.0,5.0;" x1="2231" x2="2231" y1="371.5313" y2="495.375"/><rect fill="#F0F8FF" height="56.9219" rx="2" ry="2" style="stroke:#444444;stroke-width:3.0;" width="194" x="5" y="5"/><text fill="#444444" font-family="sans-serif" font-size="30" lengthAdjust="spacing" textLength="172" x="16" y="43.8467">Application</text><rect fill="#F0F8FF" height="56.9219" rx="2" ry="2" style="stroke:#444444;stroke-width:3.0;" width="194" x="5" y="494.375"/><text fill="#444444" font-family="sans-serif" font-size="30" lengthAdjust="spacing" textLength="172" x="16" y="533.2217">Application</text><rect fill="#F0F8FF" height="56.9219" rx="2" ry="2" style="stroke:#444444;stroke-width:3.0;" width="491" x="479.5" y="5"/><text fill="#444444" font-family="sans-serif" font-size="30" lengthAdjust="spacing" textLength="469" x="490.5" y="43.8467">ObservableStorkInfrastructure</text><rect fill="#F0F8FF" height="56.9219" rx="2" ry="2" style="stroke:#444444;stroke-width:3.0;" width="491" x="479.5" y="494.375"/><text fill="#444444" font-family="sans-serif" font-size="30" lengthAdjust="spacing" textLength="469" x="490.5" y="533.2217">ObservableStorkInfrastructure</text><rect fill="#F0F8FF" height="56.9219" rx="2" ry="2" style="stroke:#444444;stroke-width:3.0;" width="347" x="1005.5" y="5"/><text fill="#444444" font-family="sans-serif" font-size="30" lengthAdjust="spacing" textLength="325" x="1016.5" y="43.8467">ObservationCollector</text><rect fill="#F0F8FF" height="56.9219" rx="2" ry="2" style="stroke:#444444;stroke-width:3.0;" width="347" x="1005.5" y="494.375"/><text fill="#444444" font-family="sans-serif" font-size="30" lengthAdjust="spacing" textLength="325" x="1016.5" y="533.2217">ObservationCollector</text><rect fill="#F0F8FF" height="56.9219" rx="2" ry="2" style="stroke:#444444;stroke-width:3.0;" width="103" x="1362.5" y="5"/><text fill="#444444" font-family="sans-serif" font-size="30" lengthAdjust="spacing" textLength="81" x="1373.5" y="43.8467">Stork</text><rect fill="#F0F8FF" height="56.9219" rx="2" ry="2" style="stroke:#444444;stroke-width:3.0;" width="103" x="1362.5" y="494.375"/><text fill="#444444" font-family="sans-serif" font-size="30" lengthAdjust="spacing" textLength="81" x="1373.5" y="533.2217">Stork</text><rect fill="#F0F8FF" height="56.9219" rx="2" ry="2" style="stroke:#444444;stroke-width:3.0;" width="136" x="2163" y="5"/><text fill="#444444" font-family="sans-serif" font-size="30" lengthAdjust="spacing" textLength="114" x="2174" y="43.8467">Service</text><rect fill="#F0F8FF" height="56.9219" rx="2" ry="2" style="stroke:#444444;stroke-width:3.0;" width="136" x="2163" y="494.375"/><text fill="#444444" font-family="sans-serif" font-size="30" lengthAdjust="spacing" textLength="114" x="2174" y="533.2217">Service</text><polygon fill="#444444" points="713,117.8438,723,121.8438,713,125.8438,717,121.8438" style="stroke:#444444;stroke-width:1.0;"/><line style="stroke:#444444;stroke-width:3.0;" x1="102" x2="719" y1="121.8438" y2="121.8438"/><text fill="#444444" font-family="sans-serif" font-size="30" font-weight="bold" lengthAdjust="spacing" textLength="49" x="279.5" y="108.7686">(1)</text><text fill="#444444" font-family="sans-serif" font-size="30" font-weight="bold" lengthAdjust="spacing" textLength="207" x="340.5" y="108.7686">instantiates</text><polygon fill="#444444" points="1167,174.7656,1177,178.7656,1167,182.7656,1171,178.7656" style="stroke:#444444;stroke-width:1.0;"/><line style="stroke:#444444;stroke-width:3.0;" x1="725" x2="1173" y1="178.7656" y2="178.7656"/><text fill="#444444" font-family="sans-serif" font-size="30" font-weight="bold" lengthAdjust="spacing" textLength="49" x="818" y="165.6904">(2)</text><text fill="#444444" font-family="sans-serif" font-size="30" font-weight="bold" lengthAdjust="spacing" textLength="207" x="879" y="165.6904">instantiates</text><polygon fill="#444444" points="736,231.6875,726,235.6875,736,239.6875,732,235.6875" style="stroke:#444444;stroke-width:1.0;"/><line style="stroke:#444444;stroke-width:3.0;" x1="730" x2="1178" y1="235.6875" y2="235.6875"/><text fill="#444444" font-family="sans-serif" font-size="30" font-weight="bold" lengthAdjust="spacing" textLength="49" x="741" y="222.6123">(3)</text><text fill="#444444" font-family="sans-serif" font-size="30" font-weight="bold" lengthAdjust="spacing" textLength="361" x="802" y="222.6123">ObservationCollector</text><polygon fill="#444444" points="113,288.6094,103,292.6094,113,296.6094,109,292.6094" style="stroke:#444444;stroke-width:1.0;"/><line style="stroke:#444444;stroke-width:3.0;" x1="107" x2="724" y1="292.6094" y2="292.6094"/><text fill="#444444" font-family="sans-serif" font-size="30" font-weight="bold" lengthAdjust="spacing" textLength="50" x="118" y="279.5342">(4)</text><text fill="#444444" font-family="sans-serif" font-size="30" font-weight="bold" lengthAdjust="spacing" textLength="529" x="180" y="279.5342">ObservableStorkInfrastructure</text><text fill="#444444" font-family="sans-serif" font-size="30" lengthAdjust="spacing" textLength="10" x="1161.5" y="346.4561">&#160;</text><polygon fill="#444444" points="1402,416.4531,1412,420.4531,1402,424.4531,1406,420.4531" style="stroke:#444444;stroke-width:1.0;"/><line style="stroke:#444444;stroke-width:3.0;" x1="102" x2="1408" y1="420.4531" y2="420.4531"/><text fill="#444444" font-family="sans-serif" font-size="30" font-weight="bold" lengthAdjust="spacing" textLength="50" x="422.5" y="407.3779">(5)</text><text fill="#444444" font-family="sans-serif" font-size="30" font-weight="bold" lengthAdjust="spacing" textLength="609" x="484.5" y="407.3779">initialize(observableInfrastructure)</text><polygon fill="#444444" points="2219,473.375,2229,477.375,2219,481.375,2223,477.375" style="stroke:#444444;stroke-width:1.0;"/><line style="stroke:#444444;stroke-width:3.0;" x1="1414" x2="2225" y1="477.375" y2="477.375"/><text fill="#444444" font-family="sans-serif" font-size="30" font-weight="bold" lengthAdjust="spacing" textLength="50" x="1430" y="464.2998">(6)</text><text fill="#444444" font-family="sans-serif" font-size="30" font-weight="bold" lengthAdjust="spacing" textLength="723" x="1492" y="464.2998">instantiates (..., ObservationCollector, ...)</text><!--SRC=[jLPTJzim57tthp3mC90OOeoNeGafIGj3G8CIf6bFo4bkMgkktTaE5PlsttUJeCPfavPDD59Ux7FFnurpaxqCSYw1-jTFzzxDw2a8xyA8LfSdU0g-A83iDQ1u68IZWHVzU4KU-ET-u0zTo8CNt7hNmoNL0K1ozkLJ0mcZmJ1obUZ1UNKj8LVXwB45M8TuKHH-RsC6J4-lDRmGGZvGBbDHP43j1EWO96Wcg9boEMUQpGpDbQQ9ifDZAlXuOYcJ6Ssm7YkjekePz49p2tJ1xQJcuCyWgG5hkHoRrJ2Ftsw2sz4mZkbdibIX2KkdOwqAcGLAeA3LJ1hS0cc90qi5C-PAIHlpNq0_dxfx3opBK92UEsjHpQWnL6izdh1CBKfqpeG1bsO0EIk4fRz9gLExQPfCNF4_QzQmobz9qZeknDDQBTP8VQKpq6_NgbXGgxEYcyQ-27m4IcJzh7DqpiRGbtnpC3U2UsnHeb6GAliN-jRhyJQ5LCtcIkAfsVeaUkawtTNzAsRYhDspZ5cMC0FlBBToibIHxLH02G6fvKgQTvTfL084Q2LsgE2Nb4o_x51YA2stknJWqeBEMGexr8ZXPm4oXGUcBK_vd4bRaprEU3gLW7FCdStc5OwEt8gDvjQeEtmwc6P4IQLdJApkhSMvupdSuLUbbtm9-8znNAtsCbUxdQQg7RU7NcgLtkAWWlHgbRjzBp3fU4RtA8mp77z8nfAcK1ucmWghP35By1ku_pMvF3mzsiVQUTDXwitd-0V3oWdGMWyJ0_gP9G9Yz36zaRbcnkeYjOM6BcJ94DJJHEaMe29ehs01_ZOHugZJZvURHUa5lY76OZrd5WpP36xOMiPwIDgORKukkZDlDUIalTZIO79oSaBnNcjH1QvIS8mWy6D-g9PCRP8ZKeFBghhXA-df8IeSTuOvBiMF_W80]--></g></svg>