<?xml version="1.0" encoding="us-ascii" standalone="no"?><svg xmlns="http://www.w3.org/2000/svg" xmlns:xlink="http://www.w3.org/1999/xlink" contentStyleType="text/css" height="1709px" preserveAspectRatio="none" style="width:1899px;height:1709px;" version="1.1" viewBox="0 0 1899 1709" width="1899px" zoomAndPan="magnify"><defs/><g><line style="stroke:#EEEEEE;stroke-width:0.5;stroke-dasharray:5.0,5.0;" x1="73" x2="73" y1="62.9219" y2="313.6094"/><line style="stroke:#EEEEEE;stroke-width:1.0;stroke-dasharray:1.0,4.0;" x1="73" x2="73" y1="313.6094" y2="384.5313"/><line style="stroke:#EEEEEE;stroke-width:0.5;stroke-dasharray:5.0,5.0;" x1="73" x2="73" y1="384.5313" y2="616.1406"/><line style="stroke:#EEEEEE;stroke-width:1.0;stroke-dasharray:1.0,4.0;" x1="73" x2="73" y1="616.1406" y2="687.0625"/><line style="stroke:#EEEEEE;stroke-width:0.5;stroke-dasharray:5.0,5.0;" x1="73" x2="73" y1="687.0625" y2="918.6719"/><line style="stroke:#EEEEEE;stroke-width:1.0;stroke-dasharray:1.0,4.0;" x1="73" x2="73" y1="918.6719" y2="989.5938"/><line style="stroke:#EEEEEE;stroke-width:0.5;stroke-dasharray:5.0,5.0;" x1="73" x2="73" y1="989.5938" y2="1313.0469"/><line style="stroke:#EEEEEE;stroke-width:1.0;stroke-dasharray:1.0,4.0;" x1="73" x2="73" y1="1313.0469" y2="1383.9688"/><line style="stroke:#EEEEEE;stroke-width:0.5;stroke-dasharray:5.0,5.0;" x1="73" x2="73" y1="1383.9688" y2="1647.5781"/><line style="stroke:#EEEEEE;stroke-width:0.5;stroke-dasharray:5.0,5.0;" x1="847.5" x2="847.5" y1="62.9219" y2="313.6094"/><line style="stroke:#EEEEEE;stroke-width:1.0;stroke-dasharray:1.0,4.0;" x1="847.5" x2="847.5" y1="313.6094" y2="384.5313"/><line style="stroke:#EEEEEE;stroke-width:0.5;stroke-dasharray:5.0,5.0;" x1="847.5" x2="847.5" y1="384.5313" y2="616.1406"/><line style="stroke:#EEEEEE;stroke-width:1.0;stroke-dasharray:1.0,4.0;" x1="847.5" x2="847.5" y1="616.1406" y2="687.0625"/><line style="stroke:#EEEEEE;stroke-width:0.5;stroke-dasharray:5.0,5.0;" x1="847.5" x2="847.5" y1="687.0625" y2="918.6719"/><line style="stroke:#EEEEEE;stroke-width:1.0;stroke-dasharray:1.0,4.0;" x1="847.5" x2="847.5" y1="918.6719" y2="989.5938"/><line style="stroke:#EEEEEE;stroke-width:0.5;stroke-dasharray:5.0,5.0;" x1="847.5" x2="847.5" y1="989.5938" y2="1313.0469"/><line style="stroke:#EEEEEE;stroke-width:1.0;stroke-dasharray:1.0,4.0;" x1="847.5" x2="847.5" y1="1313.0469" y2="1383.9688"/><line style="stroke:#EEEEEE;stroke-width:0.5;stroke-dasharray:5.0,5.0;" x1="847.5" x2="847.5" y1="1383.9688" y2="1647.5781"/><line style="stroke:#EEEEEE;stroke-width:0.5;stroke-dasharray:5.0,5.0;" x1="1176.5" x2="1176.5" y1="62.9219" y2="313.6094"/><line style="stroke:#EEEEEE;stroke-width:1.0;stroke-dasharray:1.0,4.0;" x1="1176.5" x2="1176.5" y1="313.6094" y2="384.5313"/><line style="stroke:#EEEEEE;stroke-width:0.5;stroke-dasharray:5.0,5.0;" x1="1176.5" x2="1176.5" y1="384.5313" y2="616.1406"/><line style="stroke:#EEEEEE;stroke-width:1.0;stroke-dasharray:1.0,4.0;" x1="1176.5" x2="1176.5" y1="616.1406" y2="687.0625"/><line style="stroke:#EEEEEE;stroke-width:0.5;stroke-dasharray:5.0,5.0;" x1="1176.5" x2="1176.5" y1="687.0625" y2="918.6719"/><line style="stroke:#EEEEEE;stroke-width:1.0;stroke-dasharray:1.0,4.0;" x1="1176.5" x2="1176.5" y1="918.6719" y2="989.5938"/><line style="stroke:#EEEEEE;stroke-width:0.5;stroke-dasharray:5.0,5.0;" x1="1176.5" x2="1176.5" y1="989.5938" y2="1313.0469"/><line style="stroke:#EEEEEE;stroke-width:1.0;stroke-dasharray:1.0,4.0;" x1="1176.5" x2="1176.5" y1="1313.0469" y2="1383.9688"/><line style="stroke:#EEEEEE;stroke-width:0.5;stroke-dasharray:5.0,5.0;" x1="1176.5" x2="1176.5" y1="1383.9688" y2="1647.5781"/><line style="stroke:#EEEEEE;stroke-width:0.5;stroke-dasharray:5.0,5.0;" x1="1737.5" x2="1737.5" y1="62.9219" y2="313.6094"/><line style="stroke:#EEEEEE;stroke-width:1.0;stroke-dasharray:1.0,4.0;" x1="1737.5" x2="1737.5" y1="313.6094" y2="384.5313"/><line style="stroke:#EEEEEE;stroke-width:0.5;stroke-dasharray:5.0,5.0;" x1="1737.5" x2="1737.5" y1="384.5313" y2="616.1406"/><line style="stroke:#EEEEEE;stroke-width:1.0;stroke-dasharray:1.0,4.0;" x1="1737.5" x2="1737.5" y1="616.1406" y2="687.0625"/><line style="stroke:#EEEEEE;stroke-width:0.5;stroke-dasharray:5.0,5.0;" x1="1737.5" x2="1737.5" y1="687.0625" y2="918.6719"/><line style="stroke:#EEEEEE;stroke-width:1.0;stroke-dasharray:1.0,4.0;" x1="1737.5" x2="1737.5" y1="918.6719" y2="989.5938"/><line style="stroke:#EEEEEE;stroke-width:0.5;stroke-dasharray:5.0,5.0;" x1="1737.5" x2="1737.5" y1="989.5938" y2="1313.0469"/><line style="stroke:#EEEEEE;stroke-width:1.0;stroke-dasharray:1.0,4.0;" x1="1737.5" x2="1737.5" y1="1313.0469" y2="1383.9688"/><line style="stroke:#EEEEEE;stroke-width:0.5;stroke-dasharray:5.0,5.0;" x1="1737.5" x2="1737.5" y1="1383.9688" y2="1647.5781"/><rect fill="#1A618C" height="56.9219" rx="2" ry="2" style="stroke:#EEEEEE;stroke-width:3.0;" width="136" x="5" y="5"/><text fill="#EEEEEE" font-family="sans-serif" font-size="30" lengthAdjust="spacing" textLength="114" x="16" y="43.8467">Service</text><rect fill="#1A618C" height="56.9219" rx="2" ry="2" style="stroke:#EEEEEE;stroke-width:3.0;" width="136" x="5" y="1646.5781"/><text fill="#EEEEEE" font-family="sans-serif" font-size="30" lengthAdjust="spacing" textLength="114" x="16" y="1685.4248">Service</text><rect fill="#1A618C" height="56.9219" rx="2" ry="2" style="stroke:#EEEEEE;stroke-width:3.0;" width="347" x="674.5" y="5"/><text fill="#EEEEEE" font-family="sans-serif" font-size="30" lengthAdjust="spacing" textLength="325" x="685.5" y="43.8467">ObservationCollector</text><rect fill="#1A618C" height="56.9219" rx="2" ry="2" style="stroke:#EEEEEE;stroke-width:3.0;" width="347" x="674.5" y="1646.5781"/><text fill="#EEEEEE" font-family="sans-serif" font-size="30" lengthAdjust="spacing" textLength="325" x="685.5" y="1685.4248">ObservationCollector</text><rect fill="#1A618C" height="56.9219" rx="2" ry="2" style="stroke:#EEEEEE;stroke-width:3.0;" width="290" x="1031.5" y="5"/><text fill="#EEEEEE" font-family="sans-serif" font-size="30" lengthAdjust="spacing" textLength="268" x="1042.5" y="43.8467">StorkObservation</text><rect fill="#1A618C" height="56.9219" rx="2" ry="2" style="stroke:#EEEEEE;stroke-width:3.0;" width="290" x="1031.5" y="1646.5781"/><text fill="#EEEEEE" font-family="sans-serif" font-size="30" lengthAdjust="spacing" textLength="268" x="1042.5" y="1685.4248">StorkObservation</text><rect fill="#1A618C" height="56.9219" rx="2" ry="2" style="stroke:#EEEEEE;stroke-width:3.0;" width="312" x="1581.5" y="5"/><text fill="#EEEEEE" font-family="sans-serif" font-size="30" lengthAdjust="spacing" textLength="290" x="1592.5" y="43.8467">StorkEventHandler</text><rect fill="#1A618C" height="56.9219" rx="2" ry="2" style="stroke:#EEEEEE;stroke-width:3.0;" width="312" x="1581.5" y="1646.5781"/><text fill="#EEEEEE" font-family="sans-serif" font-size="30" lengthAdjust="spacing" textLength="290" x="1592.5" y="1685.4248">StorkEventHandler</text><polygon fill="#EEEEEE" points="836,117.8438,846,121.8438,836,125.8438,840,121.8438" style="stroke:#EEEEEE;stroke-width:1.0;"/><line style="stroke:#EEEEEE;stroke-width:3.0;" x1="73" x2="842" y1="121.8438" y2="121.8438"/><text fill="#EEEEEE" font-family="sans-serif" font-size="30" font-weight="bold" lengthAdjust="spacing" textLength="49" x="89" y="108.7686">(1)</text><text fill="#EEEEEE" font-family="sans-serif" font-size="30" font-weight="bold" lengthAdjust="spacing" textLength="682" x="150" y="108.7686">create("serviceName", sd type, ss type)</text><polygon fill="#EEEEEE" points="1164.5,174.7656,1174.5,178.7656,1164.5,182.7656,1168.5,178.7656" style="stroke:#EEEEEE;stroke-width:1.0;"/><line style="stroke:#EEEEEE;stroke-width:3.0;" x1="848" x2="1170.5" y1="178.7656" y2="178.7656"/><text fill="#EEEEEE" font-family="sans-serif" font-size="30" font-weight="bold" lengthAdjust="spacing" textLength="49" x="878.25" y="165.6904">(2)</text><text fill="#EEEEEE" font-family="sans-serif" font-size="30" font-weight="bold" lengthAdjust="spacing" textLength="207" x="939.25" y="165.6904">instantiates</text><line style="stroke:#EEEEEE;stroke-width:3.0;" x1="1176.5" x2="1218.5" y1="235.6875" y2="235.6875"/><line style="stroke:#EEEEEE;stroke-width:3.0;" x1="1218.5" x2="1218.5" y1="235.6875" y2="248.6875"/><line style="stroke:#EEEEEE;stroke-width:3.0;" x1="1177.5" x2="1218.5" y1="248.6875" y2="248.6875"/><polygon fill="#EEEEEE" points="1187.5,244.6875,1177.5,248.6875,1187.5,252.6875,1183.5,248.6875" style="stroke:#EEEEEE;stroke-width:1.0;"/><text fill="#EEEEEE" font-family="sans-serif" font-size="30" font-weight="bold" lengthAdjust="spacing" textLength="49" x="1187.5" y="222.6123">(3)</text><text fill="#EEEEEE" font-family="sans-serif" font-size="30" font-weight="bold" lengthAdjust="spacing" textLength="343" x="1248.5" y="222.6123">Registers start time</text><polygon fill="#EEEEEE" points="84,301.6094,74,305.6094,84,309.6094,80,305.6094" style="stroke:#EEEEEE;stroke-width:1.0;"/><line style="stroke:#EEEEEE;stroke-width:3.0;" x1="78" x2="847" y1="305.6094" y2="305.6094"/><text fill="#EEEEEE" font-family="sans-serif" font-size="30" font-weight="bold" lengthAdjust="spacing" textLength="50" x="278.5" y="292.5342">(4)</text><text fill="#EEEEEE" font-family="sans-serif" font-size="30" font-weight="bold" lengthAdjust="spacing" textLength="302" x="340.5" y="292.5342">StorkObservation</text><text fill="#EEEEEE" font-family="sans-serif" font-size="30" lengthAdjust="spacing" textLength="10" x="900.25" y="359.4561">&#160;</text><polygon fill="#EEEEEE" points="1164.5,429.4531,1174.5,433.4531,1164.5,437.4531,1168.5,433.4531" style="stroke:#EEEEEE;stroke-width:1.0;"/><line style="stroke:#EEEEEE;stroke-width:3.0;" x1="73" x2="1170.5" y1="433.4531" y2="433.4531"/><text fill="#EEEEEE" font-family="sans-serif" font-size="30" font-weight="bold" lengthAdjust="spacing" textLength="50" x="151.75" y="420.3779">(5)</text><text fill="#EEEEEE" font-family="sans-serif" font-size="30" font-weight="bold" lengthAdjust="spacing" textLength="884" x="213.75" y="420.3779">onServiceDiscoverySuccess(List&lt;ServiceInstance&gt;)</text><line style="stroke:#EEEEEE;stroke-width:3.0;" x1="1176.5" x2="1218.5" y1="595.1406" y2="595.1406"/><line style="stroke:#EEEEEE;stroke-width:3.0;" x1="1218.5" x2="1218.5" y1="595.1406" y2="608.1406"/><line style="stroke:#EEEEEE;stroke-width:3.0;" x1="1177.5" x2="1218.5" y1="608.1406" y2="608.1406"/><polygon fill="#EEEEEE" points="1187.5,604.1406,1177.5,608.1406,1187.5,612.1406,1183.5,608.1406" style="stroke:#EEEEEE;stroke-width:1.0;"/><text fill="#EEEEEE" font-family="sans-serif" font-size="30" font-weight="bold" lengthAdjust="spacing" textLength="50" x="1187.5" y="529.6826">(6)</text><text fill="#EEEEEE" font-family="sans-serif" font-size="30" font-weight="bold" lengthAdjust="spacing" textLength="368" x="1286.5" y="477.2998">Registers end service</text><text fill="#EEEEEE" font-family="sans-serif" font-size="30" font-weight="bold" lengthAdjust="spacing" textLength="263" x="1339" y="512.2217">discovery time.</text><text fill="#EEEEEE" font-family="sans-serif" font-size="30" font-weight="bold" lengthAdjust="spacing" textLength="442" x="1249.5" y="547.1436">Registers instances count</text><text fill="#EEEEEE" font-family="sans-serif" font-size="30" font-weight="bold" lengthAdjust="spacing" textLength="10" x="1465.5" y="582.0654">&#160;</text><text fill="#EEEEEE" font-family="sans-serif" font-size="30" lengthAdjust="spacing" textLength="10" x="900.25" y="661.9873">&#160;</text><polygon fill="#EEEEEE" points="1164.5,731.9844,1174.5,735.9844,1164.5,739.9844,1168.5,735.9844" style="stroke:#EEEEEE;stroke-width:1.0;"/><line style="stroke:#EEEEEE;stroke-width:3.0;" x1="73" x2="1170.5" y1="735.9844" y2="735.9844"/><text fill="#EEEEEE" font-family="sans-serif" font-size="30" font-weight="bold" lengthAdjust="spacing" textLength="49" x="261.25" y="722.9092">(7)</text><text fill="#EEEEEE" font-family="sans-serif" font-size="30" font-weight="bold" lengthAdjust="spacing" textLength="666" x="322.25" y="722.9092">onServiceDiscoveryFailure(Throwable)</text><line style="stroke:#EEEEEE;stroke-width:3.0;" x1="1176.5" x2="1218.5" y1="897.6719" y2="897.6719"/><line style="stroke:#EEEEEE;stroke-width:3.0;" x1="1218.5" x2="1218.5" y1="897.6719" y2="910.6719"/><line style="stroke:#EEEEEE;stroke-width:3.0;" x1="1177.5" x2="1218.5" y1="910.6719" y2="910.6719"/><polygon fill="#EEEEEE" points="1187.5,906.6719,1177.5,910.6719,1187.5,914.6719,1183.5,910.6719" style="stroke:#EEEEEE;stroke-width:1.0;"/><text fill="#EEEEEE" font-family="sans-serif" font-size="30" font-weight="bold" lengthAdjust="spacing" textLength="50" x="1187.5" y="832.2139">(8)</text><text fill="#EEEEEE" font-family="sans-serif" font-size="30" font-weight="bold" lengthAdjust="spacing" textLength="368" x="1261" y="779.8311">Registers end service</text><text fill="#EEEEEE" font-family="sans-serif" font-size="30" font-weight="bold" lengthAdjust="spacing" textLength="263" x="1313.5" y="814.7529">discovery time.</text><text fill="#EEEEEE" font-family="sans-serif" font-size="30" font-weight="bold" lengthAdjust="spacing" textLength="391" x="1249.5" y="849.6748">Registers failure cause</text><text fill="#EEEEEE" font-family="sans-serif" font-size="30" font-weight="bold" lengthAdjust="spacing" textLength="10" x="1440" y="884.5967">&#160;</text><text fill="#EEEEEE" font-family="sans-serif" font-size="30" lengthAdjust="spacing" textLength="10" x="900.25" y="964.5186">&#160;</text><polygon fill="#EEEEEE" points="1164.5,1034.5156,1174.5,1038.5156,1164.5,1042.5156,1168.5,1038.5156" style="stroke:#EEEEEE;stroke-width:1.0;"/><line style="stroke:#EEEEEE;stroke-width:3.0;" x1="73" x2="1170.5" y1="1038.5156" y2="1038.5156"/><text fill="#EEEEEE" font-family="sans-serif" font-size="30" font-weight="bold" lengthAdjust="spacing" textLength="50" x="260.25" y="1025.4404">(9)</text><text fill="#EEEEEE" font-family="sans-serif" font-size="30" font-weight="bold" lengthAdjust="spacing" textLength="667" x="322.25" y="1025.4404">onServiceSelectionSuccess(instanceId)</text><line style="stroke:#EEEEEE;stroke-width:3.0;" x1="1176.5" x2="1218.5" y1="1235.125" y2="1235.125"/><line style="stroke:#EEEEEE;stroke-width:3.0;" x1="1218.5" x2="1218.5" y1="1235.125" y2="1248.125"/><line style="stroke:#EEEEEE;stroke-width:3.0;" x1="1177.5" x2="1218.5" y1="1248.125" y2="1248.125"/><polygon fill="#EEEEEE" points="1187.5,1244.125,1177.5,1248.125,1187.5,1252.125,1183.5,1248.125" style="stroke:#EEEEEE;stroke-width:1.0;"/><text fill="#EEEEEE" font-family="sans-serif" font-size="30" font-weight="bold" lengthAdjust="spacing" textLength="69" x="1187.5" y="1152.2061">(10)</text><text fill="#EEEEEE" font-family="sans-serif" font-size="30" font-weight="bold" lengthAdjust="spacing" textLength="368" x="1307.5" y="1082.3623">Registers end service</text><text fill="#EEEEEE" font-family="sans-serif" font-size="30" font-weight="bold" lengthAdjust="spacing" textLength="254" x="1364.5" y="1117.2842">selection time.</text><text fill="#EEEEEE" font-family="sans-serif" font-size="30" font-weight="bold" lengthAdjust="spacing" textLength="360" x="1311.5" y="1152.2061">Registers instance id</text><text fill="#EEEEEE" font-family="sans-serif" font-size="30" font-weight="bold" lengthAdjust="spacing" textLength="446" x="1268.5" y="1187.1279">Registers overall duration</text><text fill="#EEEEEE" font-family="sans-serif" font-size="30" font-weight="bold" lengthAdjust="spacing" textLength="10" x="1486.5" y="1222.0498">&#160;</text><polygon fill="#EEEEEE" points="1725.5,1301.0469,1735.5,1305.0469,1725.5,1309.0469,1729.5,1305.0469" style="stroke:#EEEEEE;stroke-width:1.0;"/><line style="stroke:#EEEEEE;stroke-width:3.0;" x1="1176.5" x2="1731.5" y1="1305.0469" y2="1305.0469"/><text fill="#EEEEEE" font-family="sans-serif" font-size="30" font-weight="bold" lengthAdjust="spacing" textLength="69" x="1290.5" y="1291.9717">(11)</text><text fill="#EEEEEE" font-family="sans-serif" font-size="30" font-weight="bold" lengthAdjust="spacing" textLength="252" x="1371.5" y="1291.9717">complete(this)</text><text fill="#EEEEEE" font-family="sans-serif" font-size="30" lengthAdjust="spacing" textLength="10" x="900.25" y="1358.8936">&#160;</text><polygon fill="#EEEEEE" points="1164.5,1428.8906,1174.5,1432.8906,1164.5,1436.8906,1168.5,1432.8906" style="stroke:#EEEEEE;stroke-width:1.0;"/><line style="stroke:#EEEEEE;stroke-width:3.0;" x1="73" x2="1170.5" y1="1432.8906" y2="1432.8906"/><text fill="#EEEEEE" font-family="sans-serif" font-size="30" font-weight="bold" lengthAdjust="spacing" textLength="69" x="249.25" y="1419.8154">(12)</text><text fill="#EEEEEE" font-family="sans-serif" font-size="30" font-weight="bold" lengthAdjust="spacing" textLength="670" x="330.25" y="1419.8154">onServiceSelectionFailure(Throwable))</text><line style="stroke:#EEEEEE;stroke-width:3.0;" x1="1176.5" x2="1218.5" y1="1559.6563" y2="1559.6563"/><line style="stroke:#EEEEEE;stroke-width:3.0;" x1="1218.5" x2="1218.5" y1="1559.6563" y2="1572.6563"/><line style="stroke:#EEEEEE;stroke-width:3.0;" x1="1177.5" x2="1218.5" y1="1572.6563" y2="1572.6563"/><polygon fill="#EEEEEE" points="1187.5,1568.6563,1177.5,1572.6563,1187.5,1576.6563,1183.5,1572.6563" style="stroke:#EEEEEE;stroke-width:1.0;"/><text fill="#EEEEEE" font-family="sans-serif" font-size="30" font-weight="bold" lengthAdjust="spacing" textLength="69" x="1187.5" y="1511.6592">(13)</text><text fill="#EEEEEE" font-family="sans-serif" font-size="30" font-weight="bold" lengthAdjust="spacing" textLength="458" x="1268.5" y="1476.7373">Registers overall duration.</text><text fill="#EEEEEE" font-family="sans-serif" font-size="30" font-weight="bold" lengthAdjust="spacing" textLength="391" x="1302" y="1511.6592">Registers failure cause</text><text fill="#EEEEEE" font-family="sans-serif" font-size="30" font-weight="bold" lengthAdjust="spacing" textLength="10" x="1492.5" y="1546.5811">&#160;</text><polygon fill="#EEEEEE" points="1725.5,1625.5781,1735.5,1629.5781,1725.5,1633.5781,1729.5,1629.5781" style="stroke:#EEEEEE;stroke-width:1.0;"/><line style="stroke:#EEEEEE;stroke-width:3.0;" x1="1176.5" x2="1731.5" y1="1629.5781" y2="1629.5781"/><text fill="#EEEEEE" font-family="sans-serif" font-size="30" font-weight="bold" lengthAdjust="spacing" textLength="70" x="1290" y="1616.5029">(14)</text><text fill="#EEEEEE" font-family="sans-serif" font-size="30" font-weight="bold" lengthAdjust="spacing" textLength="252" x="1372" y="1616.5029">complete(this)</text><!--SRC=[jLPhInj15Fs-l-9MFrJ1Ye-YLaHOOtoW9f88fI38PEOc6JAPIMTc5LlwttkpsPZPxAxQr2m4mjnppxddplEJmAxK22Vd3pVnPUEXrhnkjY3zLhVZlUs3MlHf1cdNQyt6QTpwaU5MzxRtzlSEGiXjNBkAp-ilHAlxR6VhMtS6QRPEwwrG1rRhwVS2EMisxdA08YHkjPhVyvWf9FeCKdEL20JVH-YXHiiKk87K8sRPq47NMEWOtzy09Njz3qmB4CmEADCRC8zedwpq24_IzoSSyX4rEFHUwfwRjt9tSLcxQjJRRTYDNbIWm_YWPqsYHSqe4lIMQKSXr3uAO5mnvywCzctv2s5tAupTCY584Bu6Owq9eoLJkV5sdmdpD4PtcN8OqfnYboNAm-zeh3EfPjRYA1J_KoYDiaxcdEIMIXHRQvuAf2V62hJlrqfPIAiqevp6FokQ0gD4DUk8AcSzh7B-kh7GGhXeIMAce8tu5_hSvdYV0ZV3aT6qQjwSYKgwqkec_Kk6QYVVCy4ywp277omtjx9C8fOgO9H2xgNHxiDbPYer0bYZbgXmCgPazdc94dNjfL-cWDGURPTnNA966tycg3dUCkibboEc_OJihY_vG2ETO-7Px38uLHHcl5fSWRgapW0pEwAqiKEcvcC5EzUoYzTqgrIIlm0ME8xJqKhcD5fQL1e9UnXpR-mR5QIGIgrnj6e3HoLpT4F2T8R7T5Lhu3XUJ15BlD79i4DtuCfHvtXjQts5SaUp3jE2i8-IOswisN4qoiQdGcroFXYRJwA1GO0g1klq3l0Nz5vGL4MKYS2Nur9kE0HkaNbSMt4JP8CDSMK3d03_F4Bwuz8_wr5fEj7ELqIKKZjFzKZYTL4XNf9p22tiIKTzSq2freENGwoMp4mT5jiHRMvk0lropajAD3gBdqh7ny-fvtR2EStZsZNLSPG5BrCZ78_NtsK3GXz8BxQif_TQJ5LIOvltUeQJcOQZ6o7H_bulRk6CIPLONBlhqvPW7OLBBBixqGBE4eSB5Dt6xFQRzdtQXqlnlrMxANLriq6AS7ZiaIa58h4fD_cfB27SNuVfqqSXxH_VbsvzyIuKfsw1BipRU7N25ZBu5m00]--></g></svg>