<?xml version="1.0" encoding="us-ascii" standalone="no"?><svg xmlns="http://www.w3.org/2000/svg" xmlns:xlink="http://www.w3.org/1999/xlink" contentStyleType="text/css" height="557px" preserveAspectRatio="none" style="width:2305px;height:557px;" version="1.1" viewBox="0 0 2305 557" width="2305px" zoomAndPan="magnify"><defs/><g><line style="stroke:#EEEEEE;stroke-width:0.5;stroke-dasharray:5.0,5.0;" x1="102" x2="102" y1="62.9219" y2="300.6094"/><line style="stroke:#EEEEEE;stroke-width:1.0;stroke-dasharray:1.0,4.0;" x1="102" x2="102" y1="300.6094" y2="371.5313"/><line style="stroke:#EEEEEE;stroke-width:0.5;stroke-dasharray:5.0,5.0;" x1="102" x2="102" y1="371.5313" y2="495.375"/><line style="stroke:#EEEEEE;stroke-width:0.5;stroke-dasharray:5.0,5.0;" x1="724.5" x2="724.5" y1="62.9219" y2="300.6094"/><line style="stroke:#EEEEEE;stroke-width:1.0;stroke-dasharray:1.0,4.0;" x1="724.5" x2="724.5" y1="300.6094" y2="371.5313"/><line style="stroke:#EEEEEE;stroke-width:0.5;stroke-dasharray:5.0,5.0;" x1="724.5" x2="724.5" y1="371.5313" y2="495.375"/><line style="stroke:#EEEEEE;stroke-width:0.5;stroke-dasharray:5.0,5.0;" x1="1178.5" x2="1178.5" y1="62.9219" y2="300.6094"/><line style="stroke:#EEEEEE;stroke-width:1.0;stroke-dasharray:1.0,4.0;" x1="1178.5" x2="1178.5" y1="300.6094" y2="371.5313"/><line style="stroke:#EEEEEE;stroke-width:0.5;stroke-dasharray:5.0,5.0;" x1="1178.5" x2="1178.5" y1="371.5313" y2="495.375"/><line style="stroke:#EEEEEE;stroke-width:0.5;stroke-dasharray:5.0,5.0;" x1="1413.5" x2="1413.5" y1="62.9219" y2="300.6094"/><line style="stroke:#EEEEEE;stroke-width:1.0;stroke-dasharray:1.0,4.0;" x1="1413.5" x2="1413.5" y1="300.6094" y2="371.5313"/><line style="stroke:#EEEEEE;stroke-width:0.5;stroke-dasharray:5.0,5.0;" x1="1413.5" x2="1413.5" y1="371.5313" y2="495.375"/><line style="stroke:#EEEEEE;stroke-width:0.5;stroke-dasharray:5.0,5.0;" x1="2231" x2="2231" y1="62.9219" y2="300.6094"/><line style="stroke:#EEEEEE;stroke-width:1.0;stroke-dasharray:1.0,4.0;" x1="2231" x2="2231" y1="300.6094" y2="371.5313"/><line style="stroke:#EEEEEE;stroke-width:0.5;stroke-dasharray:5.0,5.0;" x1="2231" x2="2231" y1="371.5313" y2="495.375"/><rect fill="#1A618C" height="56.9219" rx="2" ry="2" style="stroke:#EEEEEE;stroke-width:3.0;" width="194" x="5" y="5"/><text fill="#EEEEEE" font-family="sans-serif" font-size="30" lengthAdjust="spacing" textLength="172" x="16" y="43.8467">Application</text><rect fill="#1A618C" height="56.9219" rx="2" ry="2" style="stroke:#EEEEEE;stroke-width:3.0;" width="194" x="5" y="494.375"/><text fill="#EEEEEE" font-family="sans-serif" font-size="30" lengthAdjust="spacing" textLength="172" x="16" y="533.2217">Application</text><rect fill="#1A618C" height="56.9219" rx="2" ry="2" style="stroke:#EEEEEE;stroke-width:3.0;" width="491" x="479.5" y="5"/><text fill="#EEEEEE" font-family="sans-serif" font-size="30" lengthAdjust="spacing" textLength="469" x="490.5" y="43.8467">ObservableStorkInfrastructure</text><rect fill="#1A618C" height="56.9219" rx="2" ry="2" style="stroke:#EEEEEE;stroke-width:3.0;" width="491" x="479.5" y="494.375"/><text fill="#EEEEEE" font-family="sans-serif" font-size="30" lengthAdjust="spacing" textLength="469" x="490.5" y="533.2217">ObservableStorkInfrastructure</text><rect fill="#1A618C" height="56.9219" rx="2" ry="2" style="stroke:#EEEEEE;stroke-width:3.0;" width="347" x="1005.5" y="5"/><text fill="#EEEEEE" font-family="sans-serif" font-size="30" lengthAdjust="spacing" textLength="325" x="1016.5" y="43.8467">ObservationCollector</text><rect fill="#1A618C" height="56.9219" rx="2" ry="2" style="stroke:#EEEEEE;stroke-width:3.0;" width="347" x="1005.5" y="494.375"/><text fill="#EEEEEE" font-family="sans-serif" font-size="30" lengthAdjust="spacing" textLength="325" x="1016.5" y="533.2217">ObservationCollector</text><rect fill="#1A618C" height="56.9219" rx="2" ry="2" style="stroke:#EEEEEE;stroke-width:3.0;" width="103" x="1362.5" y="5"/><text fill="#EEEEEE" font-family="sans-serif" font-size="30" lengthAdjust="spacing" textLength="81" x="1373.5" y="43.8467">Stork</text><rect fill="#1A618C" height="56.9219" rx="2" ry="2" style="stroke:#EEEEEE;stroke-width:3.0;" width="103" x="1362.5" y="494.375"/><text fill="#EEEEEE" font-family="sans-serif" font-size="30" lengthAdjust="spacing" textLength="81" x="1373.5" y="533.2217">Stork</text><rect fill="#1A618C" height="56.9219" rx="2" ry="2" style="stroke:#EEEEEE;stroke-width:3.0;" width="136" x="2163" y="5"/><text fill="#EEEEEE" font-family="sans-serif" font-size="30" lengthAdjust="spacing" textLength="114" x="2174" y="43.8467">Service</text><rect fill="#1A618C" height="56.9219" rx="2" ry="2" style="stroke:#EEEEEE;stroke-width:3.0;" width="136" x="2163" y="494.375"/><text fill="#EEEEEE" font-family="sans-serif" font-size="30" lengthAdjust="spacing" textLength="114" x="2174" y="533.2217">Service</text><polygon fill="#EEEEEE" points="713,117.8438,723,121.8438,713,125.8438,717,121.8438" style="stroke:#EEEEEE;stroke-width:1.0;"/><line style="stroke:#EEEEEE;stroke-width:3.0;" x1="102" x2="719" y1="121.8438" y2="121.8438"/><text fill="#EEEEEE" font-family="sans-serif" font-size="30" font-weight="bold" lengthAdjust="spacing" textLength="49" x="279.5" y="108.7686">(1)</text><text fill="#EEEEEE" font-family="sans-serif" font-size="30" font-weight="bold" lengthAdjust="spacing" textLength="207" x="340.5" y="108.7686">instantiates</text><polygon fill="#EEEEEE" points="1167,174.7656,1177,178.7656,1167,182.7656,1171,178.7656" style="stroke:#EEEEEE;stroke-width:1.0;"/><line style="stroke:#EEEEEE;stroke-width:3.0;" x1="725" x2="1173" y1="178.7656" y2="178.7656"/><text fill="#EEEEEE" font-family="sans-serif" font-size="30" font-weight="bold" lengthAdjust="spacing" textLength="49" x="818" y="165.6904">(2)</text><text fill="#EEEEEE" font-family="sans-serif" font-size="30" font-weight="bold" lengthAdjust="spacing" textLength="207" x="879" y="165.6904">instantiates</text><polygon fill="#EEEEEE" points="736,231.6875,726,235.6875,736,239.6875,732,235.6875" style="stroke:#EEEEEE;stroke-width:1.0;"/><line style="stroke:#EEEEEE;stroke-width:3.0;" x1="730" x2="1178" y1="235.6875" y2="235.6875"/><text fill="#EEEEEE" font-family="sans-serif" font-size="30" font-weight="bold" lengthAdjust="spacing" textLength="49" x="741" y="222.6123">(3)</text><text fill="#EEEEEE" font-family="sans-serif" font-size="30" font-weight="bold" lengthAdjust="spacing" textLength="361" x="802" y="222.6123">ObservationCollector</text><polygon fill="#EEEEEE" points="113,288.6094,103,292.6094,113,296.6094,109,292.6094" style="stroke:#EEEEEE;stroke-width:1.0;"/><line style="stroke:#EEEEEE;stroke-width:3.0;" x1="107" x2="724" y1="292.6094" y2="292.6094"/><text fill="#EEEEEE" font-family="sans-serif" font-size="30" font-weight="bold" lengthAdjust="spacing" textLength="50" x="118" y="279.5342">(4)</text><text fill="#EEEEEE" font-family="sans-serif" font-size="30" font-weight="bold" lengthAdjust="spacing" textLength="529" x="180" y="279.5342">ObservableStorkInfrastructure</text><text fill="#EEEEEE" font-family="sans-serif" font-size="30" lengthAdjust="spacing" textLength="10" x="1161.5" y="346.4561">&#160;</text><polygon fill="#EEEEEE" points="1402,416.4531,1412,420.4531,1402,424.4531,1406,420.4531" style="stroke:#EEEEEE;stroke-width:1.0;"/><line style="stroke:#EEEEEE;stroke-width:3.0;" x1="102" x2="1408" y1="420.4531" y2="420.4531"/><text fill="#EEEEEE" font-family="sans-serif" font-size="30" font-weight="bold" lengthAdjust="spacing" textLength="50" x="422.5" y="407.3779">(5)</text><text fill="#EEEEEE" font-family="sans-serif" font-size="30" font-weight="bold" lengthAdjust="spacing" textLength="609" x="484.5" y="407.3779">initialize(observableInfrastructure)</text><polygon fill="#EEEEEE" points="2219,473.375,2229,477.375,2219,481.375,2223,477.375" style="stroke:#EEEEEE;stroke-width:1.0;"/><line style="stroke:#EEEEEE;stroke-width:3.0;" x1="1414" x2="2225" y1="477.375" y2="477.375"/><text fill="#EEEEEE" font-family="sans-serif" font-size="30" font-weight="bold" lengthAdjust="spacing" textLength="50" x="1430" y="464.2998">(6)</text><text fill="#EEEEEE" font-family="sans-serif" font-size="30" font-weight="bold" lengthAdjust="spacing" textLength="723" x="1492" y="464.2998">instantiates (..., ObservationCollector, ...)</text><!--SRC=[jLLRJzim57xFhp3qOI0nn6Kg34r8QIWC0GrAaAOz8ISvQQswTcSxhTYq_xwJX3LEcxHief7oOd_dkvmunpi9f4m0wTqyFxYtWsVFl_S3KZoTOxTxVEuvEnKax7l-uCeDlh_YEjtZxbdtt8OykjwTUzDV47NEwCdHvxI2-C5LFx1rIATVF0l8jJzugW5M8MuG-D_gcByGvmDX8kPP0iICW0n1WAASw34JKwheH9DKAX99CpeWd0r7Xb2Ha8IgCLOQIUGCr5mn0sJEpAZaO3CGH8CnJ0prSfIdhxVUtQ0VXkJKMQYGYCRZePAPI3p9KT0eAZHkWJ2E1OivrVfQ2XEodq1EZ-ozHveaA4W-MMj1oQWmL6qz7D54pdDqIha6c-OAKffnGtuvkKxffcgnOul_Nh66LRsb9BMZuhXAoVaAQK-g1DJRjGeMr6giQAOnBnm_WUH9E-iKdTCXj2LV7yoEO1zQbAWKX4p-XRxsSxnD8PQJgHHuQZP-YLQwHdTb_x89FwdtBA66HbJ3EyijdIoP9LiLa9n3R9WK-jrbAXKF0KhoBIhqSaggNhOeqHU6cMqAC650fJI6BMg4y2C34SCZLOR5R4g5AScUHYmU2y0vPizc_Gf7HtR5MdChr0q-BKmreeHK4ygNzrRYtBCKxl5MQILV0FvZ71UhhSp5RgEfOiVkeHiRgJOuA22jMlbksm_iD7oZ1nJ66UxYLIr83FbXScXcfCWc4Tw1kr-YoxsZ_LsidLOT9kvqobbCymbGM_SZ3Mf68muX-XZVYbHHRLGMcqn14p9dyCff8bKDK13KLx20nNZtMkhau-LwKNA1VuWsMC-e0Usi1rTiDMCj97NC9YSNpPat6hBINcnei7DuU4ZmNMbH0IvIC8p0yJBVamkcEic-KuBpghBXI-d97YeSD8OvoCNt_m00]--></g></svg>